M48
; DRILL file KiCad 10.0.3 date 2026-06-03T18:53:55
; FORMAT={-:-/ absolute / inch / decimal}
; #@! TF.CreationDate,2026-06-03T18:53:55+08:00
; #@! TF.GenerationSoftware,Kicad,Pcbnew,10.0.3
; #@! TF.FileFunction,Plated,1,2,PTH
FMAT,2
INCH
; #@! TA.AperFunction,Plated,PTH,ViaDrill
T1C0.0118
; #@! TA.AperFunction,Plated,PTH,ComponentDrill
T2C0.0118
; #@! TA.AperFunction,Plated,PTH,ViaDrill
T3C0.0197
; #@! TA.AperFunction,Plated,PTH,ComponentDrill
T4C0.0236
; #@! TA.AperFunction,Plated,PTH,ComponentDrill
T5C0.0394
%
G90
G05
T1
X2.8071Y-3.4134
X2.8228Y-3.3583
X2.8386Y-3.4646
X2.8659Y-2.6451
X2.8659Y-2.6844
X2.8661Y-1.9567
X2.8661Y-1.9961
X2.8661Y-2.2165
X2.8661Y-2.9528
X2.9134Y-2.5591
X2.9252Y-2.1969
X2.9331Y-2.3504
X2.937Y-2.3898
X2.937Y-2.6024
X2.9803Y-2.811
X3.0177Y-2.7146
X3.0197Y-2.811
X3.0354Y-2.5827
X3.0591Y-2.5079
X3.063Y-1.9843
X3.063Y-2.8189
X3.0669Y-2.7126
X3.0945Y-2.6417
X3.1102Y-1.9843
X3.1102Y-2.4843
X3.1378Y-2.685
X3.1378Y-2.7835
X3.1378Y-2.8346
X3.1772Y-3.2677
X3.185Y-3.1575
X3.189Y-3.0748
X3.1969Y-2.1614
X3.2126Y-3.4606
X3.2165Y-3.3465
X3.2205Y-3.4055
X3.2283Y-2.1732
X3.2283Y-2.7835
X3.2283Y-2.8346
X3.2283Y-3.0118
X3.2323Y-3.2126
X3.2362Y-2.685
X3.2362Y-3.0945
X3.2598Y-2.8858
X3.2835Y-1.9882
X3.2874Y-2.9461
X3.2992Y-2.5
X3.3031Y-2.6339
X3.3031Y-2.8346
X3.315Y-2.3819
X3.315Y-2.4331
X3.3228Y-2.7835
X3.3465Y-2.311
X3.3504Y-2.685
X3.3622Y-2.7441
X3.374Y-1.9882
X3.4134Y-2.752
X3.4252Y-2.1654
X3.5118Y-2.311
X3.5315Y-2.9055
X3.5354Y-2.8701
X3.5394Y-2.5709
X3.5472Y-2.5276
X3.5512Y-1.9843
X3.5669Y-2.6142
X3.5669Y-3.2205
X3.5709Y-2.874
X3.5827Y-3.1024
X3.6015Y-2.4338
X3.6063Y-1.9843
X3.6142Y-3.2638
X3.6142Y-3.4094
X3.6142Y-3.4567
X3.6181Y-3.3504
X3.6197Y-2.2205
X3.6197Y-2.2677
X3.6197Y-2.315
X3.626Y-3.0236
X3.6339Y-2.1614
X3.6378Y-3.1575
X3.6535Y-2.9412
X3.6637Y-2.5752
X3.6654Y-2.6181
X3.689Y-2.1417
X3.7126Y-2.7835
X3.7165Y-2.8346
X3.7244Y-2.874
X3.7441Y-2.4646
X3.7441Y-2.9016
X3.752Y-2.1417
X3.7638Y-2.5118
X3.7953Y-1.9724
X3.8071Y-2.1417
X3.8105Y-2.0437
X3.8268Y-2.3189
X3.8504Y-1.9724
X3.8661Y-2.1417
X3.878Y-2.7992
X3.8819Y-2.7559
X3.8937Y-2.3189
X3.9232Y-2.1437
X3.9272Y-2.2894
X3.9331Y-2.189
X3.9331Y-2.2362
X3.9567Y-2.3701
X3.9764Y-3.1299
X3.9764Y-3.2165
X3.9843Y-2.7244
X3.9921Y-3.0276
X4.0Y-2.0512
X4.0Y-2.8622
X4.0039Y-3.4764
X4.0079Y-3.3228
X4.0315Y-3.4055
X4.0354Y-2.7874
X4.0472Y-2.0472
X4.0512Y-2.937
X4.0551Y-3.4646
X4.1478Y-1.9823
X4.1732Y-2.7992
X4.189Y-2.5669
X4.2087Y-2.5315
X4.2244Y-2.8031
X4.248Y-2.0591
X4.2717Y-2.7992
X4.2874Y-2.0591
X4.2953Y-2.1732
X4.2992Y-2.2205
X4.3268Y-2.4764
X4.3898Y-2.8307
X4.3931Y-1.9823
X4.3937Y-3.3425
X4.4252Y-3.4724
X4.4685Y-3.4016
X4.4764Y-2.8307
X4.5157Y-2.3583
X4.5236Y-2.1496
X4.5394Y-1.9764
X4.5512Y-2.0157
X4.5827Y-1.9843
X4.5984Y-2.1535
X4.6535Y-2.3819
X4.6575Y-2.6929
X4.6575Y-2.7402
X4.6614Y-2.3386
X4.6969Y-2.3976
X4.6969Y-2.6929
X4.7008Y-2.2953
X4.7008Y-2.3465
X4.7008Y-2.7402
X4.7835Y-2.2559
X4.8307Y-1.9252
X4.8307Y-2.2598
X4.878Y-1.9528
X4.9055Y-2.0
X4.937Y-2.5433
X4.9724Y-2.0945
X4.9724Y-2.1535
X4.9803Y-2.4567
X4.9921Y-2.6378
X5.0039Y-2.1654
T2
X2.9587Y-3.1646
X2.9587Y-3.204
X2.9587Y-3.2434
X3.0059Y-3.1646
X3.0059Y-3.204
X3.0059Y-3.2434
X3.0531Y-3.1646
X3.0531Y-3.204
X3.0531Y-3.2434
X3.1004Y-3.1646
X3.1004Y-3.204
X3.1004Y-3.2434
X3.3583Y-3.1626
X3.3583Y-3.202
X3.3583Y-3.2413
X3.4055Y-3.1626
X3.4055Y-3.202
X3.4055Y-3.2413
X3.4528Y-3.1626
X3.4528Y-3.202
X3.4528Y-3.2413
X3.5Y-3.1626
X3.5Y-3.202
X3.5Y-3.2413
X3.7555Y-3.1626
X3.7555Y-3.202
X3.7555Y-3.2413
X3.8028Y-3.1626
X3.8028Y-3.202
X3.8028Y-3.2413
X3.85Y-3.1626
X3.85Y-3.202
X3.85Y-3.2413
X3.8973Y-3.1626
X3.8973Y-3.202
X3.8973Y-3.2413
X4.1522Y-3.1626
X4.1522Y-3.202
X4.1522Y-3.2413
X4.1994Y-3.1626
X4.1994Y-3.202
X4.1994Y-3.2413
X4.2467Y-3.1626
X4.2467Y-3.202
X4.2467Y-3.2413
X4.2939Y-3.1626
X4.2939Y-3.202
X4.2939Y-3.2413
T3
X3.0595Y-2.9461
X3.4663Y-2.9412
X3.8702Y-2.937
X4.2555Y-2.9386
X4.622Y-2.6339
X4.626Y-2.4449
T5
X4.4344Y-2.4982
X4.4344Y-2.5982
X4.5344Y-2.4982
X4.5344Y-2.5982
X4.551Y-2.8957
X4.551Y-2.9957
X4.551Y-3.0957
X4.9585Y-3.4713
X4.9624Y-3.0937
T4
G00X4.7587Y-2.3742
M15
G01X4.802Y-2.3742
M16
G05
G00X4.7587Y-2.7144
M15
G01X4.802Y-2.7144
M16
G05
G00X4.9299Y-2.3742
M15
G01X4.9614Y-2.3742
M16
G05
G00X4.9299Y-2.7144
M15
G01X4.9614Y-2.7144
M16
G05
M30
