%TF.GenerationSoftware,KiCad,Pcbnew,10.0.3*%
%TF.CreationDate,2026-06-03T18:53:55+08:00*%
%TF.ProjectId,motor_slider,6d6f746f-725f-4736-9c69-6465722e6b69,rev?*%
%TF.SameCoordinates,Original*%
%TF.FileFunction,Copper,L2,Bot*%
%TF.FilePolarity,Positive*%
%FSLAX46Y46*%
G04 Gerber Fmt 4.6, Leading zero omitted, Abs format (unit mm)*
G04 Created by KiCad (PCBNEW 10.0.3) date 2026-06-03 18:53:55*
%MOMM*%
%LPD*%
G01*
G04 APERTURE LIST*
G04 Aperture macros list*
%AMRoundRect*
0 Rectangle with rounded corners*
0 $1 Rounding radius*
0 $2 $3 $4 $5 $6 $7 $8 $9 X,Y pos of 4 corners*
0 Add a 4 corners polygon primitive as box body*
4,1,4,$2,$3,$4,$5,$6,$7,$8,$9,$2,$3,0*
0 Add four circle primitives for the rounded corners*
1,1,$1+$1,$2,$3*
1,1,$1+$1,$4,$5*
1,1,$1+$1,$6,$7*
1,1,$1+$1,$8,$9*
0 Add four rect primitives between the rounded corners*
20,1,$1+$1,$2,$3,$4,$5,0*
20,1,$1+$1,$4,$5,$6,$7,0*
20,1,$1+$1,$6,$7,$8,$9,0*
20,1,$1+$1,$8,$9,$2,$3,0*%
G04 Aperture macros list end*
%TA.AperFunction,HeatsinkPad*%
%ADD10C,0.600000*%
%TD*%
%TA.AperFunction,HeatsinkPad*%
%ADD11R,4.100000X2.500000*%
%TD*%
%TA.AperFunction,ComponentPad*%
%ADD12R,1.700000X1.700000*%
%TD*%
%TA.AperFunction,ComponentPad*%
%ADD13C,1.700000*%
%TD*%
%TA.AperFunction,HeatsinkPad*%
%ADD14O,2.100000X1.000000*%
%TD*%
%TA.AperFunction,HeatsinkPad*%
%ADD15O,1.800000X1.000000*%
%TD*%
%TA.AperFunction,SMDPad,CuDef*%
%ADD16RoundRect,0.250000X-0.250000X-0.475000X0.250000X-0.475000X0.250000X0.475000X-0.250000X0.475000X0*%
%TD*%
%TA.AperFunction,SMDPad,CuDef*%
%ADD17RoundRect,0.237500X-0.287500X-0.237500X0.287500X-0.237500X0.287500X0.237500X-0.287500X0.237500X0*%
%TD*%
%TA.AperFunction,SMDPad,CuDef*%
%ADD18RoundRect,0.218750X0.218750X0.256250X-0.218750X0.256250X-0.218750X-0.256250X0.218750X-0.256250X0*%
%TD*%
%TA.AperFunction,ViaPad*%
%ADD19C,0.600000*%
%TD*%
%TA.AperFunction,ViaPad*%
%ADD20C,1.000000*%
%TD*%
%TA.AperFunction,Conductor*%
%ADD21C,0.500000*%
%TD*%
%TA.AperFunction,Conductor*%
%ADD22C,0.200000*%
%TD*%
G04 APERTURE END LIST*
D10*
%TO.P,U1,17,GND_17*%
%TO.N,GND*%
X75150000Y-82382000D03*
X76350000Y-82382000D03*
X77550000Y-82382000D03*
X78750000Y-82382000D03*
X75150000Y-81382000D03*
X76350000Y-81382000D03*
D11*
X76950000Y-81382000D03*
D10*
X77550000Y-81382000D03*
X78750000Y-81382000D03*
X75150000Y-80382000D03*
X76350000Y-80382000D03*
X77550000Y-80382000D03*
X78750000Y-80382000D03*
%TD*%
%TO.P,U15,17,GND_17*%
%TO.N,GND*%
X105464954Y-82330000D03*
X106664954Y-82330000D03*
X107864954Y-82330000D03*
X109064954Y-82330000D03*
X105464954Y-81330000D03*
X106664954Y-81330000D03*
D11*
X107264954Y-81330000D03*
D10*
X107864954Y-81330000D03*
X109064954Y-81330000D03*
X105464954Y-80330000D03*
X106664954Y-80330000D03*
X107864954Y-80330000D03*
X109064954Y-80330000D03*
%TD*%
D12*
%TO.P,J6,1,Pin_1_1*%
%TO.N,Net-(J6-Pin_1)*%
X126045000Y-78580000D03*
%TD*%
%TO.P,J7,1,Pin_1_1*%
%TO.N,GND*%
X125945000Y-88170000D03*
%TD*%
D10*
%TO.P,U11,17,GND_17*%
%TO.N,GND*%
X95390318Y-82330000D03*
X96590318Y-82330000D03*
X97790318Y-82330000D03*
X98990318Y-82330000D03*
X95390318Y-81330000D03*
X96590318Y-81330000D03*
D11*
X97190318Y-81330000D03*
D10*
X97790318Y-81330000D03*
X98990318Y-81330000D03*
X95390318Y-80330000D03*
X96590318Y-80330000D03*
X97790318Y-80330000D03*
X98990318Y-80330000D03*
%TD*%
D12*
%TO.P,J2,1,Pin_1_1*%
%TO.N,/PB6*%
X112635000Y-65995000D03*
D13*
%TO.P,J2,2,Pin_2_2*%
%TO.N,/USBDN*%
X115175000Y-65995000D03*
%TO.P,J2,3,Pin_3_3*%
%TO.N,/PB7*%
X112635000Y-63455000D03*
%TO.P,J2,4,Pin_4_4*%
%TO.N,/USBDP*%
X115175000Y-63455000D03*
%TD*%
D14*
%TO.P,J1,S1,SHIELD_S1*%
%TO.N,Net-(J1-SHIELD)*%
X121420000Y-68945000D03*
D15*
X125620000Y-68945000D03*
D14*
X121420000Y-60305000D03*
D15*
X125620000Y-60305000D03*
%TD*%
D10*
%TO.P,U8,17,GND_17*%
%TO.N,GND*%
X85300000Y-82330000D03*
X86500000Y-82330000D03*
X87700000Y-82330000D03*
X88900000Y-82330000D03*
X85300000Y-81330000D03*
X86500000Y-81330000D03*
D11*
X87100000Y-81330000D03*
D10*
X87700000Y-81330000D03*
X88900000Y-81330000D03*
X85300000Y-80330000D03*
X86500000Y-80330000D03*
X87700000Y-80330000D03*
X88900000Y-80330000D03*
%TD*%
D12*
%TO.P,J8,1,Pin_1_1*%
%TO.N,Net-(J6-Pin_1)*%
X115595000Y-78630000D03*
D13*
%TO.P,J8,2,Pin_2_2*%
%TO.N,Vdrive*%
X115595000Y-76090000D03*
%TO.P,J8,3,Pin_3_3*%
%TO.N,+5V*%
X115595000Y-73550000D03*
%TD*%
D16*
%TO.P,C22,1*%
%TO.N,Net-(U3-VDDA)*%
X91411500Y-63576750D03*
%TO.P,C22,2*%
%TO.N,GND*%
X93311500Y-63576750D03*
%TD*%
D17*
%TO.P,C23,1*%
%TO.N,Net-(U3-VDDA)*%
X91478000Y-61818220D03*
%TO.P,C23,2*%
%TO.N,GND*%
X93228000Y-61818220D03*
%TD*%
D18*
%TO.P,L1,1*%
%TO.N,+3.3V*%
X93059000Y-65411220D03*
%TO.P,L1,2*%
%TO.N,Net-(U3-VDDA)*%
X91484000Y-65411220D03*
%TD*%
D19*
%TO.N,Vdrive*%
X72800000Y-75000000D03*
D20*
X98303000Y-74600000D03*
D19*
X83500000Y-74832000D03*
X92800000Y-74707000D03*
D20*
X77711788Y-74832000D03*
X88043682Y-74707000D03*
X108090318Y-74640000D03*
D19*
X102900000Y-74600000D03*
%TO.N,GND*%
X107900000Y-52300000D03*
X82100000Y-81600000D03*
X101600000Y-52100000D03*
X119300000Y-60900000D03*
X118300000Y-69600000D03*
X95100000Y-73700000D03*
X93100000Y-66500000D03*
X81200000Y-54900000D03*
X95300000Y-54400000D03*
X86700000Y-69900000D03*
X101200000Y-69200000D03*
X107300000Y-71200000D03*
X89700000Y-73800000D03*
X76700000Y-71400000D03*
X102400000Y-86500000D03*
X115600000Y-51200000D03*
X105353979Y-50350000D03*
X114700000Y-59900000D03*
X118400000Y-59400000D03*
X115300000Y-50200000D03*
X96787000Y-51909500D03*
X74300000Y-55800000D03*
X126300000Y-53200000D03*
X85700000Y-50500000D03*
X92100000Y-76800000D03*
X106000000Y-71100000D03*
X74500000Y-59700000D03*
X96400000Y-50100000D03*
X81800000Y-86500000D03*
X81000000Y-78100000D03*
X108900000Y-52300000D03*
X83400000Y-50500000D03*
X123900000Y-49600000D03*
X79000000Y-50400000D03*
X113500000Y-86400000D03*
X91600000Y-50400000D03*
X101000000Y-79500000D03*
X91940000Y-58800000D03*
X74600000Y-60700000D03*
X125400000Y-64600000D03*
X91000000Y-78800000D03*
X97800000Y-50100000D03*
X118300000Y-68400000D03*
X89900000Y-65300000D03*
X89800000Y-72900000D03*
X84200000Y-60500000D03*
X99900000Y-56800000D03*
X77800000Y-50400000D03*
X116800000Y-54700000D03*
X101600000Y-72700000D03*
X100500000Y-60200000D03*
X126300000Y-54700000D03*
X111500000Y-71900000D03*
X99750000Y-58150000D03*
X82000000Y-76500000D03*
X98200000Y-54400000D03*
X109200000Y-56400000D03*
X90600000Y-66400000D03*
X108500000Y-71100000D03*
X90100000Y-64200000D03*
X96700000Y-54400000D03*
X84200000Y-61800000D03*
X75700000Y-71400000D03*
X74000000Y-65000000D03*
X102800000Y-52000000D03*
X101800000Y-84400000D03*
X119400000Y-59600000D03*
X92400000Y-80200000D03*
X99650000Y-54450000D03*
X113700000Y-71900000D03*
X98600000Y-70000000D03*
X98900000Y-58900000D03*
X80900000Y-80200000D03*
X81600000Y-87900000D03*
X72800000Y-50700000D03*
X98500000Y-71100000D03*
X77700000Y-63700000D03*
X79000000Y-63100000D03*
X102500000Y-70800000D03*
X122700000Y-57400000D03*
X111600000Y-84900000D03*
X94600000Y-73000000D03*
X126500000Y-62400000D03*
X93700000Y-54400000D03*
X121500000Y-57300000D03*
X127100000Y-55000000D03*
X114900000Y-54600000D03*
X119400000Y-58300000D03*
X116400000Y-50400000D03*
X87000000Y-55000000D03*
X90600000Y-81800000D03*
X126800000Y-67000000D03*
X72100000Y-88000000D03*
X118200000Y-60500000D03*
X81700000Y-85000000D03*
X119400000Y-69600000D03*
X109900000Y-62900000D03*
X122700000Y-48900000D03*
X91800000Y-87800000D03*
X101700000Y-88300000D03*
X95100000Y-62600000D03*
X74600000Y-66100000D03*
X90700000Y-73000000D03*
X119300000Y-68400000D03*
X85400000Y-69700000D03*
X72800000Y-56300000D03*
X82200000Y-78600000D03*
X91940000Y-56400000D03*
X103000000Y-88000000D03*
X109100000Y-55200000D03*
X82800000Y-73300000D03*
X77800000Y-71600000D03*
X124600000Y-50800000D03*
X99900000Y-55600000D03*
X80700000Y-83000000D03*
X92300000Y-54900000D03*
X72800000Y-49700000D03*
X112400000Y-88200000D03*
X101000000Y-81700000D03*
X82000000Y-55200000D03*
X91800000Y-82900000D03*
X90200000Y-50400000D03*
X97200000Y-58900000D03*
X71300000Y-86700000D03*
X101400000Y-76900000D03*
X91800000Y-86600000D03*
X91900000Y-85100000D03*
X111583775Y-50350000D03*
X91940000Y-57600000D03*
X71700000Y-85300000D03*
%TO.N,+3.3V*%
X93059000Y-65411220D03*
X83900000Y-66900000D03*
X83800000Y-63500000D03*
%TO.N,/BOOT0*%
X77100000Y-65600000D03*
X85100000Y-68200000D03*
X79700000Y-68200000D03*
X95600000Y-63800000D03*
X82200000Y-68200000D03*
X78600000Y-67100000D03*
D20*
%TO.N,+5V*%
X117400000Y-66900000D03*
X117500000Y-62100000D03*
D19*
%TO.N,/PB6*%
X106400000Y-65200000D03*
%TO.N,/PB7*%
X106900000Y-64300000D03*
%TO.N,/SWD_CLK*%
X83900000Y-72000000D03*
X76650000Y-68950000D03*
X94400000Y-72000000D03*
X82000000Y-72000000D03*
X79700000Y-72000000D03*
X72795000Y-67185000D03*
%TO.N,/SWD_DIO*%
X72795000Y-68185000D03*
X79700000Y-70700000D03*
X82000000Y-70700000D03*
X84400000Y-70700000D03*
X94300000Y-70700000D03*
X77900000Y-68900000D03*
%TO.N,/~{NRST}*%
X89200000Y-58700000D03*
X85000000Y-58700000D03*
%TO.N,Net-(U3-VDDA)*%
X91478000Y-61818220D03*
%TD*%
%TO.N,Vdrive*%
D21*
X92800000Y-74707000D02*
X98196000Y-74707000D01*
X98303000Y-74600000D02*
X102900000Y-74600000D01*
X88043682Y-74707000D02*
X92800000Y-74707000D01*
X72968000Y-74832000D02*
X72800000Y-75000000D01*
X114145000Y-74640000D02*
X115595000Y-76090000D01*
X102900000Y-74600000D02*
X108050318Y-74600000D01*
X108090318Y-74640000D02*
X114145000Y-74640000D01*
X98196000Y-74707000D02*
X98303000Y-74600000D01*
X83500000Y-74832000D02*
X87918682Y-74832000D01*
X77711788Y-74832000D02*
X72968000Y-74832000D01*
X108050318Y-74600000D02*
X108090318Y-74640000D01*
X87918682Y-74832000D02*
X88043682Y-74707000D01*
X77711788Y-74832000D02*
X83500000Y-74832000D01*
%TO.N,+3.3V*%
D22*
X83900000Y-66900000D02*
X83900000Y-63600000D01*
X83900000Y-63600000D02*
X83800000Y-63500000D01*
%TO.N,/BOOT0*%
X95600000Y-63800000D02*
X95600000Y-65700000D01*
X86000000Y-67300000D02*
X85100000Y-68200000D01*
X82200000Y-68200000D02*
X79700000Y-68200000D01*
X95600000Y-65700000D02*
X94000000Y-67300000D01*
X78600000Y-67100000D02*
X77100000Y-65600000D01*
X94000000Y-67300000D02*
X86000000Y-67300000D01*
%TO.N,+5V*%
D21*
X117400000Y-66900000D02*
X117400000Y-62200000D01*
X117400000Y-62200000D02*
X117500000Y-62100000D01*
%TO.N,/PB6*%
D22*
X110900000Y-65200000D02*
X111695000Y-65995000D01*
X106400000Y-65200000D02*
X110900000Y-65200000D01*
X111695000Y-65995000D02*
X112635000Y-65995000D01*
%TO.N,/PB7*%
X106900000Y-64300000D02*
X110900000Y-64300000D01*
X111745000Y-63455000D02*
X112635000Y-63455000D01*
X110900000Y-64300000D02*
X111745000Y-63455000D01*
%TO.N,/SWD_CLK*%
X76650000Y-68950000D02*
X74885000Y-67185000D01*
X74885000Y-67185000D02*
X72795000Y-67185000D01*
X82000000Y-72000000D02*
X79700000Y-72000000D01*
X94400000Y-72000000D02*
X83900000Y-72000000D01*
%TO.N,/SWD_DIO*%
X94300000Y-70700000D02*
X84400000Y-70700000D01*
X82000000Y-70700000D02*
X79700000Y-70700000D01*
X77100000Y-69700000D02*
X74310000Y-69700000D01*
X74310000Y-69700000D02*
X72795000Y-68185000D01*
X77900000Y-68900000D02*
X77100000Y-69700000D01*
%TO.N,/~{NRST}*%
X85000000Y-58700000D02*
X89200000Y-58700000D01*
%TO.N,Net-(U3-VDDA)*%
X91484000Y-63649250D02*
X91411500Y-63576750D01*
X91411500Y-61884720D02*
X91478000Y-61818220D01*
X91411500Y-63576750D02*
X91411500Y-61884720D01*
X91484000Y-65411220D02*
X91484000Y-63649250D01*
%TD*%
%TA.AperFunction,Conductor*%
%TO.N,GND*%
G36*
X127742539Y-46120185D02*
G01*
X127788294Y-46172989D01*
X127799500Y-46224500D01*
X127799500Y-91975500D01*
X127779815Y-92042539D01*
X127727011Y-92088294D01*
X127675500Y-92099500D01*
X68924500Y-92099500D01*
X68857461Y-92079815D01*
X68811706Y-92027011D01*
X68800500Y-91975500D01*
X68800500Y-87272155D01*
X124595000Y-87272155D01*
X124595000Y-87920000D01*
X125511988Y-87920000D01*
X125479075Y-87977007D01*
X125445000Y-88104174D01*
X125445000Y-88235826D01*
X125479075Y-88362993D01*
X125511988Y-88420000D01*
X124595000Y-88420000D01*
X124595000Y-89067844D01*
X124601401Y-89127372D01*
X124601403Y-89127379D01*
X124651645Y-89262086D01*
X124651649Y-89262093D01*
X124737809Y-89377187D01*
X124737812Y-89377190D01*
X124852906Y-89463350D01*
X124852913Y-89463354D01*
X124987620Y-89513596D01*
X124987627Y-89513598D01*
X125047155Y-89519999D01*
X125047172Y-89520000D01*
X125695000Y-89520000D01*
X125695000Y-88603012D01*
X125752007Y-88635925D01*
X125879174Y-88670000D01*
X126010826Y-88670000D01*
X126137993Y-88635925D01*
X126195000Y-88603012D01*
X126195000Y-89520000D01*
X126842828Y-89520000D01*
X126842844Y-89519999D01*
X126902372Y-89513598D01*
X126902379Y-89513596D01*
X127037086Y-89463354D01*
X127037093Y-89463350D01*
X127152187Y-89377190D01*
X127152190Y-89377187D01*
X127238350Y-89262093D01*
X127238354Y-89262086D01*
X127288596Y-89127379D01*
X127288598Y-89127372D01*
X127294999Y-89067844D01*
X127295000Y-89067827D01*
X127295000Y-88420000D01*
X126378012Y-88420000D01*
X126410925Y-88362993D01*
X126445000Y-88235826D01*
X126445000Y-88104174D01*
X126410925Y-87977007D01*
X126378012Y-87920000D01*
X127295000Y-87920000D01*
X127295000Y-87272172D01*
X127294999Y-87272155D01*
X127288598Y-87212627D01*
X127288596Y-87212620D01*
X127238354Y-87077913D01*
X127238350Y-87077906D01*
X127152190Y-86962812D01*
X127152187Y-86962809D01*
X127037093Y-86876649D01*
X127037086Y-86876645D01*
X126902379Y-86826403D01*
X126902372Y-86826401D01*
X126842844Y-86820000D01*
X126195000Y-86820000D01*
X126195000Y-87736988D01*
X126137993Y-87704075D01*
X126010826Y-87670000D01*
X125879174Y-87670000D01*
X125752007Y-87704075D01*
X125695000Y-87736988D01*
X125695000Y-86820000D01*
X125047155Y-86820000D01*
X124987627Y-86826401D01*
X124987620Y-86826403D01*
X124852913Y-86876645D01*
X124852906Y-86876649D01*
X124737812Y-86962809D01*
X124737809Y-86962812D01*
X124651649Y-87077906D01*
X124651645Y-87077913D01*
X124601403Y-87212620D01*
X124601401Y-87212627D01*
X124595000Y-87272155D01*
X68800500Y-87272155D01*
X68800500Y-83097845D01*
X74787706Y-83097845D01*
X74916652Y-83151257D01*
X74916656Y-83151258D01*
X75071202Y-83181999D01*
X75071206Y-83182000D01*
X75228794Y-83182000D01*
X75228797Y-83181999D01*
X75383343Y-83151258D01*
X75383347Y-83151257D01*
X75512293Y-83097845D01*
X75987706Y-83097845D01*
X76116652Y-83151257D01*
X76116656Y-83151258D01*
X76271202Y-83181999D01*
X76271206Y-83182000D01*
X76428794Y-83182000D01*
X76428797Y-83181999D01*
X76583343Y-83151258D01*
X76583347Y-83151257D01*
X76712293Y-83097845D01*
X77187706Y-83097845D01*
X77316652Y-83151257D01*
X77316656Y-83151258D01*
X77471202Y-83181999D01*
X77471206Y-83182000D01*
X77628794Y-83182000D01*
X77628797Y-83181999D01*
X77783343Y-83151258D01*
X77783347Y-83151257D01*
X77912293Y-83097845D01*
X78387706Y-83097845D01*
X78516652Y-83151257D01*
X78516656Y-83151258D01*
X78671202Y-83181999D01*
X78671206Y-83182000D01*
X78828794Y-83182000D01*
X78828797Y-83181999D01*
X78983343Y-83151258D01*
X78983347Y-83151257D01*
X79112293Y-83097845D01*
X79060293Y-83045845D01*
X84937706Y-83045845D01*
X85066652Y-83099257D01*
X85066656Y-83099258D01*
X85221202Y-83129999D01*
X85221206Y-83130000D01*
X85378794Y-83130000D01*
X85378797Y-83129999D01*
X85533343Y-83099258D01*
X85533347Y-83099257D01*
X85662293Y-83045845D01*
X86137706Y-83045845D01*
X86266652Y-83099257D01*
X86266656Y-83099258D01*
X86421202Y-83129999D01*
X86421206Y-83130000D01*
X86578794Y-83130000D01*
X86578797Y-83129999D01*
X86733343Y-83099258D01*
X86733347Y-83099257D01*
X86862293Y-83045845D01*
X87337706Y-83045845D01*
X87466652Y-83099257D01*
X87466656Y-83099258D01*
X87621202Y-83129999D01*
X87621206Y-83130000D01*
X87778794Y-83130000D01*
X87778797Y-83129999D01*
X87933343Y-83099258D01*
X87933347Y-83099257D01*
X88062293Y-83045845D01*
X88537706Y-83045845D01*
X88666652Y-83099257D01*
X88666656Y-83099258D01*
X88821202Y-83129999D01*
X88821206Y-83130000D01*
X88978794Y-83130000D01*
X88978797Y-83129999D01*
X89133343Y-83099258D01*
X89133347Y-83099257D01*
X89262293Y-83045845D01*
X95028024Y-83045845D01*
X95156970Y-83099257D01*
X95156974Y-83099258D01*
X95311520Y-83129999D01*
X95311524Y-83130000D01*
X95469112Y-83130000D01*
X95469115Y-83129999D01*
X95623661Y-83099258D01*
X95623665Y-83099257D01*
X95752611Y-83045845D01*
X96228024Y-83045845D01*
X96356970Y-83099257D01*
X96356974Y-83099258D01*
X96511520Y-83129999D01*
X96511524Y-83130000D01*
X96669112Y-83130000D01*
X96669115Y-83129999D01*
X96823661Y-83099258D01*
X96823665Y-83099257D01*
X96952611Y-83045845D01*
X97428024Y-83045845D01*
X97556970Y-83099257D01*
X97556974Y-83099258D01*
X97711520Y-83129999D01*
X97711524Y-83130000D01*
X97869112Y-83130000D01*
X97869115Y-83129999D01*
X98023661Y-83099258D01*
X98023665Y-83099257D01*
X98152611Y-83045845D01*
X98628024Y-83045845D01*
X98756970Y-83099257D01*
X98756974Y-83099258D01*
X98911520Y-83129999D01*
X98911524Y-83130000D01*
X99069112Y-83130000D01*
X99069115Y-83129999D01*
X99223661Y-83099258D01*
X99223665Y-83099257D01*
X99352611Y-83045845D01*
X105102660Y-83045845D01*
X105231606Y-83099257D01*
X105231610Y-83099258D01*
X105386156Y-83129999D01*
X105386160Y-83130000D01*
X105543748Y-83130000D01*
X105543751Y-83129999D01*
X105698297Y-83099258D01*
X105698301Y-83099257D01*
X105827247Y-83045845D01*
X106302660Y-83045845D01*
X106431606Y-83099257D01*
X106431610Y-83099258D01*
X106586156Y-83129999D01*
X106586160Y-83130000D01*
X106743748Y-83130000D01*
X106743751Y-83129999D01*
X106898297Y-83099258D01*
X106898301Y-83099257D01*
X107027247Y-83045845D01*
X107502660Y-83045845D01*
X107631606Y-83099257D01*
X107631610Y-83099258D01*
X107786156Y-83129999D01*
X107786160Y-83130000D01*
X107943748Y-83130000D01*
X107943751Y-83129999D01*
X108098297Y-83099258D01*
X108098301Y-83099257D01*
X108227247Y-83045845D01*
X108702660Y-83045845D01*
X108831606Y-83099257D01*
X108831610Y-83099258D01*
X108986156Y-83129999D01*
X108986160Y-83130000D01*
X109143748Y-83130000D01*
X109143751Y-83129999D01*
X109298297Y-83099258D01*
X109298301Y-83099257D01*
X109427247Y-83045845D01*
X109064955Y-82683553D01*
X109064954Y-82683553D01*
X108702660Y-83045845D01*
X108227247Y-83045845D01*
X107864955Y-82683553D01*
X107864954Y-82683553D01*
X107502660Y-83045845D01*
X107027247Y-83045845D01*
X106664955Y-82683553D01*
X106664954Y-82683553D01*
X106302660Y-83045845D01*
X105827247Y-83045845D01*
X105464955Y-82683553D01*
X105464954Y-82683553D01*
X105102660Y-83045845D01*
X99352611Y-83045845D01*
X98990319Y-82683553D01*
X98990318Y-82683553D01*
X98628024Y-83045845D01*
X98152611Y-83045845D01*
X97790319Y-82683553D01*
X97790318Y-82683553D01*
X97428024Y-83045845D01*
X96952611Y-83045845D01*
X96590319Y-82683553D01*
X96590318Y-82683553D01*
X96228024Y-83045845D01*
X95752611Y-83045845D01*
X95390319Y-82683553D01*
X95390318Y-82683553D01*
X95028024Y-83045845D01*
X89262293Y-83045845D01*
X88900001Y-82683553D01*
X88900000Y-82683553D01*
X88537706Y-83045845D01*
X88062293Y-83045845D01*
X87700001Y-82683553D01*
X87700000Y-82683553D01*
X87337706Y-83045845D01*
X86862293Y-83045845D01*
X86500001Y-82683553D01*
X86500000Y-82683553D01*
X86137706Y-83045845D01*
X85662293Y-83045845D01*
X85300001Y-82683553D01*
X85300000Y-82683553D01*
X84937706Y-83045845D01*
X79060293Y-83045845D01*
X78750001Y-82735553D01*
X78750000Y-82735553D01*
X78387706Y-83097845D01*
X77912293Y-83097845D01*
X77550001Y-82735553D01*
X77550000Y-82735553D01*
X77187706Y-83097845D01*
X76712293Y-83097845D01*
X76350001Y-82735553D01*
X76350000Y-82735553D01*
X75987706Y-83097845D01*
X75512293Y-83097845D01*
X75150001Y-82735553D01*
X75150000Y-82735553D01*
X74787706Y-83097845D01*
X68800500Y-83097845D01*
X68800500Y-82303202D01*
X74350000Y-82303202D01*
X74350000Y-82460797D01*
X74380741Y-82615343D01*
X74380743Y-82615351D01*
X74434153Y-82744293D01*
X74796446Y-82382001D01*
X74796446Y-82381999D01*
X74766610Y-82352163D01*
X75000000Y-82352163D01*
X75000000Y-82411837D01*
X75022836Y-82466968D01*
X75065032Y-82509164D01*
X75120163Y-82532000D01*
X75179837Y-82532000D01*
X75234968Y-82509164D01*
X75277164Y-82466968D01*
X75300000Y-82411837D01*
X75300000Y-82381999D01*
X75503553Y-82381999D01*
X75750000Y-82628446D01*
X75996446Y-82382001D01*
X75996446Y-82382000D01*
X75966609Y-82352163D01*
X76200000Y-82352163D01*
X76200000Y-82411837D01*
X76222836Y-82466968D01*
X76265032Y-82509164D01*
X76320163Y-82532000D01*
X76379837Y-82532000D01*
X76434968Y-82509164D01*
X76477164Y-82466968D01*
X76500000Y-82411837D01*
X76500000Y-82381999D01*
X76703553Y-82381999D01*
X76950000Y-82628446D01*
X77196446Y-82382001D01*
X77196446Y-82382000D01*
X77166609Y-82352163D01*
X77400000Y-82352163D01*
X77400000Y-82411837D01*
X77422836Y-82466968D01*
X77465032Y-82509164D01*
X77520163Y-82532000D01*
X77579837Y-82532000D01*
X77634968Y-82509164D01*
X77677164Y-82466968D01*
X77700000Y-82411837D01*
X77700000Y-82381999D01*
X77903553Y-82381999D01*
X78150000Y-82628446D01*
X78396446Y-82382001D01*
X78396446Y-82382000D01*
X78366609Y-82352163D01*
X78600000Y-82352163D01*
X78600000Y-82411837D01*
X78622836Y-82466968D01*
X78665032Y-82509164D01*
X78720163Y-82532000D01*
X78779837Y-82532000D01*
X78834968Y-82509164D01*
X78877164Y-82466968D01*
X78900000Y-82411837D01*
X78900000Y-82381999D01*
X79103553Y-82381999D01*
X79103553Y-82382001D01*
X79465845Y-82744293D01*
X79519257Y-82615347D01*
X79519258Y-82615343D01*
X79549999Y-82460797D01*
X79550000Y-82460794D01*
X79550000Y-82303206D01*
X79549999Y-82303205D01*
X79543257Y-82269307D01*
X79543257Y-82269306D01*
X79539656Y-82251202D01*
X84500000Y-82251202D01*
X84500000Y-82408797D01*
X84530741Y-82563343D01*
X84530743Y-82563351D01*
X84584153Y-82692293D01*
X84946446Y-82330001D01*
X84946446Y-82329999D01*
X84916610Y-82300163D01*
X85150000Y-82300163D01*
X85150000Y-82359837D01*
X85172836Y-82414968D01*
X85215032Y-82457164D01*
X85270163Y-82480000D01*
X85329837Y-82480000D01*
X85384968Y-82457164D01*
X85427164Y-82414968D01*
X85450000Y-82359837D01*
X85450000Y-82329999D01*
X85653553Y-82329999D01*
X85900000Y-82576446D01*
X86146446Y-82330001D01*
X86146446Y-82330000D01*
X86116609Y-82300163D01*
X86350000Y-82300163D01*
X86350000Y-82359837D01*
X86372836Y-82414968D01*
X86415032Y-82457164D01*
X86470163Y-82480000D01*
X86529837Y-82480000D01*
X86584968Y-82457164D01*
X86627164Y-82414968D01*
X86650000Y-82359837D01*
X86650000Y-82329999D01*
X86853553Y-82329999D01*
X87100000Y-82576446D01*
X87346446Y-82330001D01*
X87346446Y-82330000D01*
X87316609Y-82300163D01*
X87550000Y-82300163D01*
X87550000Y-82359837D01*
X87572836Y-82414968D01*
X87615032Y-82457164D01*
X87670163Y-82480000D01*
X87729837Y-82480000D01*
X87784968Y-82457164D01*
X87827164Y-82414968D01*
X87850000Y-82359837D01*
X87850000Y-82329999D01*
X88053553Y-82329999D01*
X88300000Y-82576446D01*
X88546446Y-82330001D01*
X88546446Y-82330000D01*
X88516609Y-82300163D01*
X88750000Y-82300163D01*
X88750000Y-82359837D01*
X88772836Y-82414968D01*
X88815032Y-82457164D01*
X88870163Y-82480000D01*
X88929837Y-82480000D01*
X88984968Y-82457164D01*
X89027164Y-82414968D01*
X89050000Y-82359837D01*
X89050000Y-82329999D01*
X89253553Y-82329999D01*
X89253553Y-82330001D01*
X89615845Y-82692293D01*
X89669257Y-82563347D01*
X89669258Y-82563343D01*
X89699999Y-82408797D01*
X89700000Y-82408794D01*
X89700000Y-82251206D01*
X89699999Y-82251202D01*
X94590318Y-82251202D01*
X94590318Y-82408797D01*
X94621059Y-82563343D01*
X94621061Y-82563351D01*
X94674471Y-82692293D01*
X95036764Y-82330001D01*
X95036764Y-82329999D01*
X95006928Y-82300163D01*
X95240318Y-82300163D01*
X95240318Y-82359837D01*
X95263154Y-82414968D01*
X95305350Y-82457164D01*
X95360481Y-82480000D01*
X95420155Y-82480000D01*
X95475286Y-82457164D01*
X95517482Y-82414968D01*
X95540318Y-82359837D01*
X95540318Y-82329999D01*
X95743871Y-82329999D01*
X95990318Y-82576446D01*
X96236764Y-82330001D01*
X96236764Y-82330000D01*
X96206927Y-82300163D01*
X96440318Y-82300163D01*
X96440318Y-82359837D01*
X96463154Y-82414968D01*
X96505350Y-82457164D01*
X96560481Y-82480000D01*
X96620155Y-82480000D01*
X96675286Y-82457164D01*
X96717482Y-82414968D01*
X96740318Y-82359837D01*
X96740318Y-82329999D01*
X96943871Y-82329999D01*
X97190318Y-82576446D01*
X97436764Y-82330001D01*
X97436764Y-82330000D01*
X97406927Y-82300163D01*
X97640318Y-82300163D01*
X97640318Y-82359837D01*
X97663154Y-82414968D01*
X97705350Y-82457164D01*
X97760481Y-82480000D01*
X97820155Y-82480000D01*
X97875286Y-82457164D01*
X97917482Y-82414968D01*
X97940318Y-82359837D01*
X97940318Y-82329999D01*
X98143871Y-82329999D01*
X98390318Y-82576446D01*
X98636764Y-82330001D01*
X98636764Y-82330000D01*
X98606927Y-82300163D01*
X98840318Y-82300163D01*
X98840318Y-82359837D01*
X98863154Y-82414968D01*
X98905350Y-82457164D01*
X98960481Y-82480000D01*
X99020155Y-82480000D01*
X99075286Y-82457164D01*
X99117482Y-82414968D01*
X99140318Y-82359837D01*
X99140318Y-82329999D01*
X99343871Y-82329999D01*
X99343871Y-82330001D01*
X99706163Y-82692293D01*
X99759575Y-82563347D01*
X99759576Y-82563343D01*
X99790317Y-82408797D01*
X99790318Y-82408794D01*
X99790318Y-82251206D01*
X99790317Y-82251202D01*
X104664954Y-82251202D01*
X104664954Y-82408797D01*
X104695695Y-82563343D01*
X104695697Y-82563351D01*
X104749107Y-82692293D01*
X105111400Y-82330001D01*
X105111400Y-82329999D01*
X105081564Y-82300163D01*
X105314954Y-82300163D01*
X105314954Y-82359837D01*
X105337790Y-82414968D01*
X105379986Y-82457164D01*
X105435117Y-82480000D01*
X105494791Y-82480000D01*
X105549922Y-82457164D01*
X105592118Y-82414968D01*
X105614954Y-82359837D01*
X105614954Y-82329999D01*
X105818507Y-82329999D01*
X106064954Y-82576446D01*
X106311400Y-82330001D01*
X106311400Y-82330000D01*
X106281563Y-82300163D01*
X106514954Y-82300163D01*
X106514954Y-82359837D01*
X106537790Y-82414968D01*
X106579986Y-82457164D01*
X106635117Y-82480000D01*
X106694791Y-82480000D01*
X106749922Y-82457164D01*
X106792118Y-82414968D01*
X106814954Y-82359837D01*
X106814954Y-82329999D01*
X107018507Y-82329999D01*
X107264954Y-82576446D01*
X107511400Y-82330001D01*
X107511400Y-82330000D01*
X107481563Y-82300163D01*
X107714954Y-82300163D01*
X107714954Y-82359837D01*
X107737790Y-82414968D01*
X107779986Y-82457164D01*
X107835117Y-82480000D01*
X107894791Y-82480000D01*
X107949922Y-82457164D01*
X107992118Y-82414968D01*
X108014954Y-82359837D01*
X108014954Y-82329999D01*
X108218507Y-82329999D01*
X108464954Y-82576446D01*
X108711400Y-82330001D01*
X108711400Y-82330000D01*
X108681563Y-82300163D01*
X108914954Y-82300163D01*
X108914954Y-82359837D01*
X108937790Y-82414968D01*
X108979986Y-82457164D01*
X109035117Y-82480000D01*
X109094791Y-82480000D01*
X109149922Y-82457164D01*
X109192118Y-82414968D01*
X109214954Y-82359837D01*
X109214954Y-82329999D01*
X109418507Y-82329999D01*
X109418507Y-82330001D01*
X109780799Y-82692293D01*
X109834211Y-82563347D01*
X109834212Y-82563343D01*
X109864953Y-82408797D01*
X109864954Y-82408794D01*
X109864954Y-82251206D01*
X109864953Y-82251202D01*
X109834212Y-82096656D01*
X109834211Y-82096652D01*
X109780799Y-81967706D01*
X109418507Y-82329999D01*
X109214954Y-82329999D01*
X109214954Y-82300163D01*
X109192118Y-82245032D01*
X109149922Y-82202836D01*
X109094791Y-82180000D01*
X109035117Y-82180000D01*
X108979986Y-82202836D01*
X108937790Y-82245032D01*
X108914954Y-82300163D01*
X108681563Y-82300163D01*
X108464954Y-82083553D01*
X108218507Y-82329999D01*
X108014954Y-82329999D01*
X108014954Y-82300163D01*
X107992118Y-82245032D01*
X107949922Y-82202836D01*
X107894791Y-82180000D01*
X107835117Y-82180000D01*
X107779986Y-82202836D01*
X107737790Y-82245032D01*
X107714954Y-82300163D01*
X107481563Y-82300163D01*
X107264954Y-82083553D01*
X107018507Y-82329999D01*
X106814954Y-82329999D01*
X106814954Y-82300163D01*
X106792118Y-82245032D01*
X106749922Y-82202836D01*
X106694791Y-82180000D01*
X106635117Y-82180000D01*
X106579986Y-82202836D01*
X106537790Y-82245032D01*
X106514954Y-82300163D01*
X106281563Y-82300163D01*
X106064954Y-82083553D01*
X105818507Y-82329999D01*
X105614954Y-82329999D01*
X105614954Y-82300163D01*
X105592118Y-82245032D01*
X105549922Y-82202836D01*
X105494791Y-82180000D01*
X105435117Y-82180000D01*
X105379986Y-82202836D01*
X105337790Y-82245032D01*
X105314954Y-82300163D01*
X105081564Y-82300163D01*
X104749107Y-81967705D01*
X104695697Y-82096648D01*
X104695695Y-82096656D01*
X104664954Y-82251202D01*
X99790317Y-82251202D01*
X99759576Y-82096656D01*
X99759575Y-82096652D01*
X99706163Y-81967706D01*
X99343871Y-82329999D01*
X99140318Y-82329999D01*
X99140318Y-82300163D01*
X99117482Y-82245032D01*
X99075286Y-82202836D01*
X99020155Y-82180000D01*
X98960481Y-82180000D01*
X98905350Y-82202836D01*
X98863154Y-82245032D01*
X98840318Y-82300163D01*
X98606927Y-82300163D01*
X98390318Y-82083553D01*
X98143871Y-82329999D01*
X97940318Y-82329999D01*
X97940318Y-82300163D01*
X97917482Y-82245032D01*
X97875286Y-82202836D01*
X97820155Y-82180000D01*
X97760481Y-82180000D01*
X97705350Y-82202836D01*
X97663154Y-82245032D01*
X97640318Y-82300163D01*
X97406927Y-82300163D01*
X97190318Y-82083553D01*
X96943871Y-82329999D01*
X96740318Y-82329999D01*
X96740318Y-82300163D01*
X96717482Y-82245032D01*
X96675286Y-82202836D01*
X96620155Y-82180000D01*
X96560481Y-82180000D01*
X96505350Y-82202836D01*
X96463154Y-82245032D01*
X96440318Y-82300163D01*
X96206927Y-82300163D01*
X95990318Y-82083553D01*
X95743871Y-82329999D01*
X95540318Y-82329999D01*
X95540318Y-82300163D01*
X95517482Y-82245032D01*
X95475286Y-82202836D01*
X95420155Y-82180000D01*
X95360481Y-82180000D01*
X95305350Y-82202836D01*
X95263154Y-82245032D01*
X95240318Y-82300163D01*
X95006928Y-82300163D01*
X94674471Y-81967705D01*
X94621061Y-82096648D01*
X94621059Y-82096656D01*
X94590318Y-82251202D01*
X89699999Y-82251202D01*
X89669258Y-82096656D01*
X89669257Y-82096652D01*
X89615845Y-81967706D01*
X89253553Y-82329999D01*
X89050000Y-82329999D01*
X89050000Y-82300163D01*
X89027164Y-82245032D01*
X88984968Y-82202836D01*
X88929837Y-82180000D01*
X88870163Y-82180000D01*
X88815032Y-82202836D01*
X88772836Y-82245032D01*
X88750000Y-82300163D01*
X88516609Y-82300163D01*
X88300000Y-82083553D01*
X88053553Y-82329999D01*
X87850000Y-82329999D01*
X87850000Y-82300163D01*
X87827164Y-82245032D01*
X87784968Y-82202836D01*
X87729837Y-82180000D01*
X87670163Y-82180000D01*
X87615032Y-82202836D01*
X87572836Y-82245032D01*
X87550000Y-82300163D01*
X87316609Y-82300163D01*
X87100000Y-82083553D01*
X86853553Y-82329999D01*
X86650000Y-82329999D01*
X86650000Y-82300163D01*
X86627164Y-82245032D01*
X86584968Y-82202836D01*
X86529837Y-82180000D01*
X86470163Y-82180000D01*
X86415032Y-82202836D01*
X86372836Y-82245032D01*
X86350000Y-82300163D01*
X86116609Y-82300163D01*
X85900000Y-82083553D01*
X85653553Y-82329999D01*
X85450000Y-82329999D01*
X85450000Y-82300163D01*
X85427164Y-82245032D01*
X85384968Y-82202836D01*
X85329837Y-82180000D01*
X85270163Y-82180000D01*
X85215032Y-82202836D01*
X85172836Y-82245032D01*
X85150000Y-82300163D01*
X84916610Y-82300163D01*
X84584153Y-81967705D01*
X84530743Y-82096648D01*
X84530741Y-82096656D01*
X84500000Y-82251202D01*
X79539656Y-82251202D01*
X79519258Y-82148655D01*
X79519257Y-82148652D01*
X79465845Y-82019706D01*
X79103553Y-82381999D01*
X78900000Y-82381999D01*
X78900000Y-82352163D01*
X78877164Y-82297032D01*
X78834968Y-82254836D01*
X78779837Y-82232000D01*
X78720163Y-82232000D01*
X78665032Y-82254836D01*
X78622836Y-82297032D01*
X78600000Y-82352163D01*
X78366609Y-82352163D01*
X78150000Y-82135553D01*
X77903553Y-82381999D01*
X77700000Y-82381999D01*
X77700000Y-82352163D01*
X77677164Y-82297032D01*
X77634968Y-82254836D01*
X77579837Y-82232000D01*
X77520163Y-82232000D01*
X77465032Y-82254836D01*
X77422836Y-82297032D01*
X77400000Y-82352163D01*
X77166609Y-82352163D01*
X76950000Y-82135553D01*
X76703553Y-82381999D01*
X76500000Y-82381999D01*
X76500000Y-82352163D01*
X76477164Y-82297032D01*
X76434968Y-82254836D01*
X76379837Y-82232000D01*
X76320163Y-82232000D01*
X76265032Y-82254836D01*
X76222836Y-82297032D01*
X76200000Y-82352163D01*
X75966609Y-82352163D01*
X75750000Y-82135553D01*
X75503553Y-82381999D01*
X75300000Y-82381999D01*
X75300000Y-82352163D01*
X75277164Y-82297032D01*
X75234968Y-82254836D01*
X75179837Y-82232000D01*
X75120163Y-82232000D01*
X75065032Y-82254836D01*
X75022836Y-82297032D01*
X75000000Y-82352163D01*
X74766610Y-82352163D01*
X74434153Y-82019705D01*
X74380743Y-82148648D01*
X74380741Y-82148656D01*
X74350000Y-82303202D01*
X68800500Y-82303202D01*
X68800500Y-81881999D01*
X75003553Y-81881999D01*
X75150000Y-82028446D01*
X75296446Y-81882001D01*
X75296446Y-81882000D01*
X75296445Y-81881999D01*
X76203553Y-81881999D01*
X76350000Y-82028446D01*
X76496446Y-81882001D01*
X76496446Y-81882000D01*
X76496445Y-81881999D01*
X77403553Y-81881999D01*
X77550000Y-82028446D01*
X77696446Y-81882001D01*
X77696446Y-81882000D01*
X77696445Y-81881999D01*
X78603553Y-81881999D01*
X78750000Y-82028446D01*
X78896446Y-81882001D01*
X78896446Y-81882000D01*
X78844445Y-81829999D01*
X85153553Y-81829999D01*
X85300000Y-81976446D01*
X85446446Y-81830001D01*
X85446446Y-81830000D01*
X85446445Y-81829999D01*
X86353553Y-81829999D01*
X86500000Y-81976446D01*
X86646446Y-81830001D01*
X86646446Y-81830000D01*
X86646445Y-81829999D01*
X87553553Y-81829999D01*
X87700000Y-81976446D01*
X87846446Y-81830001D01*
X87846446Y-81830000D01*
X87846445Y-81829999D01*
X88753553Y-81829999D01*
X88900000Y-81976446D01*
X89046446Y-81830001D01*
X89046446Y-81830000D01*
X89046445Y-81829999D01*
X95243871Y-81829999D01*
X95390318Y-81976446D01*
X95536764Y-81830001D01*
X95536764Y-81830000D01*
X95536763Y-81829999D01*
X96443871Y-81829999D01*
X96590318Y-81976446D01*
X96736764Y-81830001D01*
X96736764Y-81830000D01*
X96736763Y-81829999D01*
X97643871Y-81829999D01*
X97790318Y-81976446D01*
X97936764Y-81830001D01*
X97936764Y-81830000D01*
X97936763Y-81829999D01*
X98843871Y-81829999D01*
X98990318Y-81976446D01*
X99136764Y-81830001D01*
X99136764Y-81830000D01*
X99136763Y-81829999D01*
X105318507Y-81829999D01*
X105464954Y-81976446D01*
X105611400Y-81830001D01*
X105611400Y-81830000D01*
X105611399Y-81829999D01*
X106518507Y-81829999D01*
X106664954Y-81976446D01*
X106811400Y-81830001D01*
X106811400Y-81830000D01*
X106811399Y-81829999D01*
X107718507Y-81829999D01*
X107864954Y-81976446D01*
X108011400Y-81830001D01*
X108011400Y-81830000D01*
X108011399Y-81829999D01*
X108918507Y-81829999D01*
X109064954Y-81976446D01*
X109211400Y-81830001D01*
X109211400Y-81830000D01*
X109064954Y-81683553D01*
X108918507Y-81829999D01*
X108011399Y-81829999D01*
X107864954Y-81683553D01*
X107718507Y-81829999D01*
X106811399Y-81829999D01*
X106664954Y-81683553D01*
X106518507Y-81829999D01*
X105611399Y-81829999D01*
X105464954Y-81683553D01*
X105318507Y-81829999D01*
X99136763Y-81829999D01*
X98990318Y-81683553D01*
X98843871Y-81829999D01*
X97936763Y-81829999D01*
X97790318Y-81683553D01*
X97643871Y-81829999D01*
X96736763Y-81829999D01*
X96590318Y-81683553D01*
X96443871Y-81829999D01*
X95536763Y-81829999D01*
X95390318Y-81683553D01*
X95243871Y-81829999D01*
X89046445Y-81829999D01*
X88900000Y-81683553D01*
X88753553Y-81829999D01*
X87846445Y-81829999D01*
X87700000Y-81683553D01*
X87553553Y-81829999D01*
X86646445Y-81829999D01*
X86500000Y-81683553D01*
X86353553Y-81829999D01*
X85446445Y-81829999D01*
X85300000Y-81683553D01*
X85153553Y-81829999D01*
X78844445Y-81829999D01*
X78750000Y-81735553D01*
X78603553Y-81881999D01*
X77696445Y-81881999D01*
X77550000Y-81735553D01*
X77403553Y-81881999D01*
X76496445Y-81881999D01*
X76350000Y-81735553D01*
X76203553Y-81881999D01*
X75296445Y-81881999D01*
X75150000Y-81735553D01*
X75003553Y-81881999D01*
X68800500Y-81881999D01*
X68800500Y-81303202D01*
X74350000Y-81303202D01*
X74350000Y-81460797D01*
X74380741Y-81615343D01*
X74380743Y-81615351D01*
X74434153Y-81744293D01*
X74435490Y-81742957D01*
X74796446Y-81382001D01*
X74796446Y-81381999D01*
X74766610Y-81352163D01*
X75000000Y-81352163D01*
X75000000Y-81411837D01*
X75022836Y-81466968D01*
X75065032Y-81509164D01*
X75120163Y-81532000D01*
X75179837Y-81532000D01*
X75234968Y-81509164D01*
X75277164Y-81466968D01*
X75300000Y-81411837D01*
X75300000Y-81381999D01*
X75503553Y-81381999D01*
X75750000Y-81628446D01*
X75996446Y-81382001D01*
X75996446Y-81382000D01*
X75966609Y-81352163D01*
X76200000Y-81352163D01*
X76200000Y-81411837D01*
X76222836Y-81466968D01*
X76265032Y-81509164D01*
X76320163Y-81532000D01*
X76379837Y-81532000D01*
X76434968Y-81509164D01*
X76477164Y-81466968D01*
X76500000Y-81411837D01*
X76500000Y-81381999D01*
X76703553Y-81381999D01*
X76950000Y-81628446D01*
X77196446Y-81382001D01*
X77196446Y-81382000D01*
X77166609Y-81352163D01*
X77400000Y-81352163D01*
X77400000Y-81411837D01*
X77422836Y-81466968D01*
X77465032Y-81509164D01*
X77520163Y-81532000D01*
X77579837Y-81532000D01*
X77634968Y-81509164D01*
X77677164Y-81466968D01*
X77700000Y-81411837D01*
X77700000Y-81381999D01*
X77903553Y-81381999D01*
X78150000Y-81628446D01*
X78396446Y-81382001D01*
X78396446Y-81382000D01*
X78366609Y-81352163D01*
X78600000Y-81352163D01*
X78600000Y-81411837D01*
X78622836Y-81466968D01*
X78665032Y-81509164D01*
X78720163Y-81532000D01*
X78779837Y-81532000D01*
X78834968Y-81509164D01*
X78877164Y-81466968D01*
X78900000Y-81411837D01*
X78900000Y-81381999D01*
X79103553Y-81381999D01*
X79103553Y-81382001D01*
X79465845Y-81744293D01*
X79519257Y-81615347D01*
X79519258Y-81615343D01*
X79549999Y-81460797D01*
X79550000Y-81460794D01*
X79550000Y-81303206D01*
X79549999Y-81303205D01*
X79543257Y-81269307D01*
X79543257Y-81269306D01*
X79539656Y-81251202D01*
X84500000Y-81251202D01*
X84500000Y-81408797D01*
X84530741Y-81563343D01*
X84530743Y-81563351D01*
X84584153Y-81692293D01*
X84585490Y-81690957D01*
X84946446Y-81330001D01*
X84946446Y-81329999D01*
X84916610Y-81300163D01*
X85150000Y-81300163D01*
X85150000Y-81359837D01*
X85172836Y-81414968D01*
X85215032Y-81457164D01*
X85270163Y-81480000D01*
X85329837Y-81480000D01*
X85384968Y-81457164D01*
X85427164Y-81414968D01*
X85450000Y-81359837D01*
X85450000Y-81329999D01*
X85653553Y-81329999D01*
X85900000Y-81576446D01*
X86146446Y-81330001D01*
X86146446Y-81330000D01*
X86116609Y-81300163D01*
X86350000Y-81300163D01*
X86350000Y-81359837D01*
X86372836Y-81414968D01*
X86415032Y-81457164D01*
X86470163Y-81480000D01*
X86529837Y-81480000D01*
X86584968Y-81457164D01*
X86627164Y-81414968D01*
X86650000Y-81359837D01*
X86650000Y-81329999D01*
X86853553Y-81329999D01*
X87100000Y-81576446D01*
X87346446Y-81330001D01*
X87346446Y-81330000D01*
X87316609Y-81300163D01*
X87550000Y-81300163D01*
X87550000Y-81359837D01*
X87572836Y-81414968D01*
X87615032Y-81457164D01*
X87670163Y-81480000D01*
X87729837Y-81480000D01*
X87784968Y-81457164D01*
X87827164Y-81414968D01*
X87850000Y-81359837D01*
X87850000Y-81329999D01*
X88053553Y-81329999D01*
X88300000Y-81576446D01*
X88546446Y-81330001D01*
X88546446Y-81330000D01*
X88516609Y-81300163D01*
X88750000Y-81300163D01*
X88750000Y-81359837D01*
X88772836Y-81414968D01*
X88815032Y-81457164D01*
X88870163Y-81480000D01*
X88929837Y-81480000D01*
X88984968Y-81457164D01*
X89027164Y-81414968D01*
X89050000Y-81359837D01*
X89050000Y-81329999D01*
X89253553Y-81329999D01*
X89253553Y-81330001D01*
X89615845Y-81692293D01*
X89669257Y-81563347D01*
X89669258Y-81563343D01*
X89699999Y-81408797D01*
X89700000Y-81408794D01*
X89700000Y-81251206D01*
X89699999Y-81251202D01*
X94590318Y-81251202D01*
X94590318Y-81408797D01*
X94621059Y-81563343D01*
X94621061Y-81563351D01*
X94674471Y-81692293D01*
X94675808Y-81690957D01*
X95036764Y-81330001D01*
X95036764Y-81329999D01*
X95006928Y-81300163D01*
X95240318Y-81300163D01*
X95240318Y-81359837D01*
X95263154Y-81414968D01*
X95305350Y-81457164D01*
X95360481Y-81480000D01*
X95420155Y-81480000D01*
X95475286Y-81457164D01*
X95517482Y-81414968D01*
X95540318Y-81359837D01*
X95540318Y-81329999D01*
X95743871Y-81329999D01*
X95990318Y-81576446D01*
X96236764Y-81330001D01*
X96236764Y-81330000D01*
X96206927Y-81300163D01*
X96440318Y-81300163D01*
X96440318Y-81359837D01*
X96463154Y-81414968D01*
X96505350Y-81457164D01*
X96560481Y-81480000D01*
X96620155Y-81480000D01*
X96675286Y-81457164D01*
X96717482Y-81414968D01*
X96740318Y-81359837D01*
X96740318Y-81329999D01*
X96943871Y-81329999D01*
X97190318Y-81576446D01*
X97436764Y-81330001D01*
X97436764Y-81330000D01*
X97406927Y-81300163D01*
X97640318Y-81300163D01*
X97640318Y-81359837D01*
X97663154Y-81414968D01*
X97705350Y-81457164D01*
X97760481Y-81480000D01*
X97820155Y-81480000D01*
X97875286Y-81457164D01*
X97917482Y-81414968D01*
X97940318Y-81359837D01*
X97940318Y-81329999D01*
X98143871Y-81329999D01*
X98390318Y-81576446D01*
X98636764Y-81330001D01*
X98636764Y-81330000D01*
X98606927Y-81300163D01*
X98840318Y-81300163D01*
X98840318Y-81359837D01*
X98863154Y-81414968D01*
X98905350Y-81457164D01*
X98960481Y-81480000D01*
X99020155Y-81480000D01*
X99075286Y-81457164D01*
X99117482Y-81414968D01*
X99140318Y-81359837D01*
X99140318Y-81329999D01*
X99343871Y-81329999D01*
X99343871Y-81330001D01*
X99706163Y-81692293D01*
X99759575Y-81563347D01*
X99759576Y-81563343D01*
X99790317Y-81408797D01*
X99790318Y-81408794D01*
X99790318Y-81251206D01*
X99790317Y-81251202D01*
X104664954Y-81251202D01*
X104664954Y-81408797D01*
X104695695Y-81563343D01*
X104695697Y-81563351D01*
X104749107Y-81692293D01*
X104750444Y-81690957D01*
X105111400Y-81330001D01*
X105111400Y-81329999D01*
X105081564Y-81300163D01*
X105314954Y-81300163D01*
X105314954Y-81359837D01*
X105337790Y-81414968D01*
X105379986Y-81457164D01*
X105435117Y-81480000D01*
X105494791Y-81480000D01*
X105549922Y-81457164D01*
X105592118Y-81414968D01*
X105614954Y-81359837D01*
X105614954Y-81329999D01*
X105818507Y-81329999D01*
X106064954Y-81576446D01*
X106311400Y-81330001D01*
X106311400Y-81330000D01*
X106281563Y-81300163D01*
X106514954Y-81300163D01*
X106514954Y-81359837D01*
X106537790Y-81414968D01*
X106579986Y-81457164D01*
X106635117Y-81480000D01*
X106694791Y-81480000D01*
X106749922Y-81457164D01*
X106792118Y-81414968D01*
X106814954Y-81359837D01*
X106814954Y-81329999D01*
X107018507Y-81329999D01*
X107264954Y-81576446D01*
X107511400Y-81330001D01*
X107511400Y-81330000D01*
X107481563Y-81300163D01*
X107714954Y-81300163D01*
X107714954Y-81359837D01*
X107737790Y-81414968D01*
X107779986Y-81457164D01*
X107835117Y-81480000D01*
X107894791Y-81480000D01*
X107949922Y-81457164D01*
X107992118Y-81414968D01*
X108014954Y-81359837D01*
X108014954Y-81329999D01*
X108218507Y-81329999D01*
X108464954Y-81576446D01*
X108711400Y-81330001D01*
X108711400Y-81330000D01*
X108681563Y-81300163D01*
X108914954Y-81300163D01*
X108914954Y-81359837D01*
X108937790Y-81414968D01*
X108979986Y-81457164D01*
X109035117Y-81480000D01*
X109094791Y-81480000D01*
X109149922Y-81457164D01*
X109192118Y-81414968D01*
X109214954Y-81359837D01*
X109214954Y-81329999D01*
X109418507Y-81329999D01*
X109418507Y-81330001D01*
X109780799Y-81692293D01*
X109834211Y-81563347D01*
X109834212Y-81563343D01*
X109864953Y-81408797D01*
X109864954Y-81408794D01*
X109864954Y-81251206D01*
X109864953Y-81251202D01*
X109834212Y-81096656D01*
X109834211Y-81096652D01*
X109780799Y-80967706D01*
X109418507Y-81329999D01*
X109214954Y-81329999D01*
X109214954Y-81300163D01*
X109192118Y-81245032D01*
X109149922Y-81202836D01*
X109094791Y-81180000D01*
X109035117Y-81180000D01*
X108979986Y-81202836D01*
X108937790Y-81245032D01*
X108914954Y-81300163D01*
X108681563Y-81300163D01*
X108464954Y-81083553D01*
X108218507Y-81329999D01*
X108014954Y-81329999D01*
X108014954Y-81300163D01*
X107992118Y-81245032D01*
X107949922Y-81202836D01*
X107894791Y-81180000D01*
X107835117Y-81180000D01*
X107779986Y-81202836D01*
X107737790Y-81245032D01*
X107714954Y-81300163D01*
X107481563Y-81300163D01*
X107264954Y-81083553D01*
X107018507Y-81329999D01*
X106814954Y-81329999D01*
X106814954Y-81300163D01*
X106792118Y-81245032D01*
X106749922Y-81202836D01*
X106694791Y-81180000D01*
X106635117Y-81180000D01*
X106579986Y-81202836D01*
X106537790Y-81245032D01*
X106514954Y-81300163D01*
X106281563Y-81300163D01*
X106064954Y-81083553D01*
X105818507Y-81329999D01*
X105614954Y-81329999D01*
X105614954Y-81300163D01*
X105592118Y-81245032D01*
X105549922Y-81202836D01*
X105494791Y-81180000D01*
X105435117Y-81180000D01*
X105379986Y-81202836D01*
X105337790Y-81245032D01*
X105314954Y-81300163D01*
X105081564Y-81300163D01*
X104749107Y-80967705D01*
X104695697Y-81096648D01*
X104695695Y-81096656D01*
X104664954Y-81251202D01*
X99790317Y-81251202D01*
X99759576Y-81096656D01*
X99759575Y-81096652D01*
X99706163Y-80967706D01*
X99343871Y-81329999D01*
X99140318Y-81329999D01*
X99140318Y-81300163D01*
X99117482Y-81245032D01*
X99075286Y-81202836D01*
X99020155Y-81180000D01*
X98960481Y-81180000D01*
X98905350Y-81202836D01*
X98863154Y-81245032D01*
X98840318Y-81300163D01*
X98606927Y-81300163D01*
X98390318Y-81083553D01*
X98143871Y-81329999D01*
X97940318Y-81329999D01*
X97940318Y-81300163D01*
X97917482Y-81245032D01*
X97875286Y-81202836D01*
X97820155Y-81180000D01*
X97760481Y-81180000D01*
X97705350Y-81202836D01*
X97663154Y-81245032D01*
X97640318Y-81300163D01*
X97406927Y-81300163D01*
X97190318Y-81083553D01*
X96943871Y-81329999D01*
X96740318Y-81329999D01*
X96740318Y-81300163D01*
X96717482Y-81245032D01*
X96675286Y-81202836D01*
X96620155Y-81180000D01*
X96560481Y-81180000D01*
X96505350Y-81202836D01*
X96463154Y-81245032D01*
X96440318Y-81300163D01*
X96206927Y-81300163D01*
X95990318Y-81083553D01*
X95743871Y-81329999D01*
X95540318Y-81329999D01*
X95540318Y-81300163D01*
X95517482Y-81245032D01*
X95475286Y-81202836D01*
X95420155Y-81180000D01*
X95360481Y-81180000D01*
X95305350Y-81202836D01*
X95263154Y-81245032D01*
X95240318Y-81300163D01*
X95006928Y-81300163D01*
X94674471Y-80967705D01*
X94621061Y-81096648D01*
X94621059Y-81096656D01*
X94590318Y-81251202D01*
X89699999Y-81251202D01*
X89669258Y-81096656D01*
X89669257Y-81096652D01*
X89615845Y-80967706D01*
X89253553Y-81329999D01*
X89050000Y-81329999D01*
X89050000Y-81300163D01*
X89027164Y-81245032D01*
X88984968Y-81202836D01*
X88929837Y-81180000D01*
X88870163Y-81180000D01*
X88815032Y-81202836D01*
X88772836Y-81245032D01*
X88750000Y-81300163D01*
X88516609Y-81300163D01*
X88300000Y-81083553D01*
X88053553Y-81329999D01*
X87850000Y-81329999D01*
X87850000Y-81300163D01*
X87827164Y-81245032D01*
X87784968Y-81202836D01*
X87729837Y-81180000D01*
X87670163Y-81180000D01*
X87615032Y-81202836D01*
X87572836Y-81245032D01*
X87550000Y-81300163D01*
X87316609Y-81300163D01*
X87100000Y-81083553D01*
X86853553Y-81329999D01*
X86650000Y-81329999D01*
X86650000Y-81300163D01*
X86627164Y-81245032D01*
X86584968Y-81202836D01*
X86529837Y-81180000D01*
X86470163Y-81180000D01*
X86415032Y-81202836D01*
X86372836Y-81245032D01*
X86350000Y-81300163D01*
X86116609Y-81300163D01*
X85900000Y-81083553D01*
X85653553Y-81329999D01*
X85450000Y-81329999D01*
X85450000Y-81300163D01*
X85427164Y-81245032D01*
X85384968Y-81202836D01*
X85329837Y-81180000D01*
X85270163Y-81180000D01*
X85215032Y-81202836D01*
X85172836Y-81245032D01*
X85150000Y-81300163D01*
X84916610Y-81300163D01*
X84584153Y-80967705D01*
X84530743Y-81096648D01*
X84530741Y-81096656D01*
X84500000Y-81251202D01*
X79539656Y-81251202D01*
X79519258Y-81148655D01*
X79519257Y-81148652D01*
X79465845Y-81019706D01*
X79103553Y-81381999D01*
X78900000Y-81381999D01*
X78900000Y-81352163D01*
X78877164Y-81297032D01*
X78834968Y-81254836D01*
X78779837Y-81232000D01*
X78720163Y-81232000D01*
X78665032Y-81254836D01*
X78622836Y-81297032D01*
X78600000Y-81352163D01*
X78366609Y-81352163D01*
X78150000Y-81135553D01*
X77903553Y-81381999D01*
X77700000Y-81381999D01*
X77700000Y-81352163D01*
X77677164Y-81297032D01*
X77634968Y-81254836D01*
X77579837Y-81232000D01*
X77520163Y-81232000D01*
X77465032Y-81254836D01*
X77422836Y-81297032D01*
X77400000Y-81352163D01*
X77166609Y-81352163D01*
X76950000Y-81135553D01*
X76703553Y-81381999D01*
X76500000Y-81381999D01*
X76500000Y-81352163D01*
X76477164Y-81297032D01*
X76434968Y-81254836D01*
X76379837Y-81232000D01*
X76320163Y-81232000D01*
X76265032Y-81254836D01*
X76222836Y-81297032D01*
X76200000Y-81352163D01*
X75966609Y-81352163D01*
X75750000Y-81135553D01*
X75503553Y-81381999D01*
X75300000Y-81381999D01*
X75300000Y-81352163D01*
X75277164Y-81297032D01*
X75234968Y-81254836D01*
X75179837Y-81232000D01*
X75120163Y-81232000D01*
X75065032Y-81254836D01*
X75022836Y-81297032D01*
X75000000Y-81352163D01*
X74766610Y-81352163D01*
X74434153Y-81019705D01*
X74380743Y-81148648D01*
X74380741Y-81148656D01*
X74350000Y-81303202D01*
X68800500Y-81303202D01*
X68800500Y-80881999D01*
X75003553Y-80881999D01*
X75150000Y-81028446D01*
X75296446Y-80882001D01*
X75296446Y-80882000D01*
X75296445Y-80881999D01*
X76203553Y-80881999D01*
X76350000Y-81028446D01*
X76496446Y-80882001D01*
X76496446Y-80882000D01*
X76496445Y-80881999D01*
X77403553Y-80881999D01*
X77550000Y-81028446D01*
X77696446Y-80882001D01*
X77696446Y-80882000D01*
X77696445Y-80881999D01*
X78603553Y-80881999D01*
X78750000Y-81028446D01*
X78896446Y-80882001D01*
X78896446Y-80882000D01*
X78844445Y-80829999D01*
X85153553Y-80829999D01*
X85300000Y-80976446D01*
X85446446Y-80830001D01*
X85446446Y-80830000D01*
X85446445Y-80829999D01*
X86353553Y-80829999D01*
X86500000Y-80976446D01*
X86646446Y-80830001D01*
X86646446Y-80830000D01*
X86646445Y-80829999D01*
X87553553Y-80829999D01*
X87700000Y-80976446D01*
X87846446Y-80830001D01*
X87846446Y-80830000D01*
X87846445Y-80829999D01*
X88753553Y-80829999D01*
X88900000Y-80976446D01*
X89046446Y-80830001D01*
X89046446Y-80830000D01*
X89046445Y-80829999D01*
X95243871Y-80829999D01*
X95390318Y-80976446D01*
X95536764Y-80830001D01*
X95536764Y-80830000D01*
X95536763Y-80829999D01*
X96443871Y-80829999D01*
X96590318Y-80976446D01*
X96736764Y-80830001D01*
X96736764Y-80830000D01*
X96736763Y-80829999D01*
X97643871Y-80829999D01*
X97790318Y-80976446D01*
X97936764Y-80830001D01*
X97936764Y-80830000D01*
X97936763Y-80829999D01*
X98843871Y-80829999D01*
X98990318Y-80976446D01*
X99136764Y-80830001D01*
X99136764Y-80830000D01*
X99136763Y-80829999D01*
X105318507Y-80829999D01*
X105464954Y-80976446D01*
X105611400Y-80830001D01*
X105611400Y-80830000D01*
X105611399Y-80829999D01*
X106518507Y-80829999D01*
X106664954Y-80976446D01*
X106811400Y-80830001D01*
X106811400Y-80830000D01*
X106811399Y-80829999D01*
X107718507Y-80829999D01*
X107864954Y-80976446D01*
X108011400Y-80830001D01*
X108011400Y-80830000D01*
X108011399Y-80829999D01*
X108918507Y-80829999D01*
X109064954Y-80976446D01*
X109211400Y-80830001D01*
X109211400Y-80830000D01*
X109064954Y-80683553D01*
X108918507Y-80829999D01*
X108011399Y-80829999D01*
X107864954Y-80683553D01*
X107718507Y-80829999D01*
X106811399Y-80829999D01*
X106664954Y-80683553D01*
X106518507Y-80829999D01*
X105611399Y-80829999D01*
X105464954Y-80683553D01*
X105318507Y-80829999D01*
X99136763Y-80829999D01*
X98990318Y-80683553D01*
X98843871Y-80829999D01*
X97936763Y-80829999D01*
X97790318Y-80683553D01*
X97643871Y-80829999D01*
X96736763Y-80829999D01*
X96590318Y-80683553D01*
X96443871Y-80829999D01*
X95536763Y-80829999D01*
X95390318Y-80683553D01*
X95243871Y-80829999D01*
X89046445Y-80829999D01*
X88900000Y-80683553D01*
X88753553Y-80829999D01*
X87846445Y-80829999D01*
X87700000Y-80683553D01*
X87553553Y-80829999D01*
X86646445Y-80829999D01*
X86500000Y-80683553D01*
X86353553Y-80829999D01*
X85446445Y-80829999D01*
X85300000Y-80683553D01*
X85153553Y-80829999D01*
X78844445Y-80829999D01*
X78750000Y-80735553D01*
X78603553Y-80881999D01*
X77696445Y-80881999D01*
X77550000Y-80735553D01*
X77403553Y-80881999D01*
X76496445Y-80881999D01*
X76350000Y-80735553D01*
X76203553Y-80881999D01*
X75296445Y-80881999D01*
X75150000Y-80735553D01*
X75003553Y-80881999D01*
X68800500Y-80881999D01*
X68800500Y-80303202D01*
X74350000Y-80303202D01*
X74350000Y-80460797D01*
X74380741Y-80615343D01*
X74380743Y-80615351D01*
X74434153Y-80744293D01*
X74435490Y-80742957D01*
X74796446Y-80382001D01*
X74796446Y-80381999D01*
X74766610Y-80352163D01*
X75000000Y-80352163D01*
X75000000Y-80411837D01*
X75022836Y-80466968D01*
X75065032Y-80509164D01*
X75120163Y-80532000D01*
X75179837Y-80532000D01*
X75234968Y-80509164D01*
X75277164Y-80466968D01*
X75300000Y-80411837D01*
X75300000Y-80381999D01*
X75503553Y-80381999D01*
X75750000Y-80628446D01*
X75996446Y-80382001D01*
X75996446Y-80382000D01*
X75966609Y-80352163D01*
X76200000Y-80352163D01*
X76200000Y-80411837D01*
X76222836Y-80466968D01*
X76265032Y-80509164D01*
X76320163Y-80532000D01*
X76379837Y-80532000D01*
X76434968Y-80509164D01*
X76477164Y-80466968D01*
X76500000Y-80411837D01*
X76500000Y-80381999D01*
X76703553Y-80381999D01*
X76950000Y-80628446D01*
X77196446Y-80382001D01*
X77196446Y-80382000D01*
X77166609Y-80352163D01*
X77400000Y-80352163D01*
X77400000Y-80411837D01*
X77422836Y-80466968D01*
X77465032Y-80509164D01*
X77520163Y-80532000D01*
X77579837Y-80532000D01*
X77634968Y-80509164D01*
X77677164Y-80466968D01*
X77700000Y-80411837D01*
X77700000Y-80381999D01*
X77903553Y-80381999D01*
X78150000Y-80628446D01*
X78396446Y-80382001D01*
X78396446Y-80382000D01*
X78366609Y-80352163D01*
X78600000Y-80352163D01*
X78600000Y-80411837D01*
X78622836Y-80466968D01*
X78665032Y-80509164D01*
X78720163Y-80532000D01*
X78779837Y-80532000D01*
X78834968Y-80509164D01*
X78877164Y-80466968D01*
X78900000Y-80411837D01*
X78900000Y-80381999D01*
X79103553Y-80381999D01*
X79103553Y-80382001D01*
X79465845Y-80744293D01*
X79519257Y-80615347D01*
X79519258Y-80615343D01*
X79549999Y-80460797D01*
X79550000Y-80460794D01*
X79550000Y-80303206D01*
X79549999Y-80303205D01*
X79543257Y-80269307D01*
X79543257Y-80269306D01*
X79539656Y-80251202D01*
X84500000Y-80251202D01*
X84500000Y-80408797D01*
X84530741Y-80563343D01*
X84530743Y-80563351D01*
X84584153Y-80692293D01*
X84585490Y-80690957D01*
X84946446Y-80330001D01*
X84946446Y-80329999D01*
X84916610Y-80300163D01*
X85150000Y-80300163D01*
X85150000Y-80359837D01*
X85172836Y-80414968D01*
X85215032Y-80457164D01*
X85270163Y-80480000D01*
X85329837Y-80480000D01*
X85384968Y-80457164D01*
X85427164Y-80414968D01*
X85450000Y-80359837D01*
X85450000Y-80329999D01*
X85653553Y-80329999D01*
X85900000Y-80576446D01*
X86146446Y-80330001D01*
X86146446Y-80330000D01*
X86116609Y-80300163D01*
X86350000Y-80300163D01*
X86350000Y-80359837D01*
X86372836Y-80414968D01*
X86415032Y-80457164D01*
X86470163Y-80480000D01*
X86529837Y-80480000D01*
X86584968Y-80457164D01*
X86627164Y-80414968D01*
X86650000Y-80359837D01*
X86650000Y-80329999D01*
X86853553Y-80329999D01*
X87100000Y-80576446D01*
X87346446Y-80330001D01*
X87346446Y-80330000D01*
X87316609Y-80300163D01*
X87550000Y-80300163D01*
X87550000Y-80359837D01*
X87572836Y-80414968D01*
X87615032Y-80457164D01*
X87670163Y-80480000D01*
X87729837Y-80480000D01*
X87784968Y-80457164D01*
X87827164Y-80414968D01*
X87850000Y-80359837D01*
X87850000Y-80329999D01*
X88053553Y-80329999D01*
X88300000Y-80576446D01*
X88546446Y-80330001D01*
X88546446Y-80330000D01*
X88516609Y-80300163D01*
X88750000Y-80300163D01*
X88750000Y-80359837D01*
X88772836Y-80414968D01*
X88815032Y-80457164D01*
X88870163Y-80480000D01*
X88929837Y-80480000D01*
X88984968Y-80457164D01*
X89027164Y-80414968D01*
X89050000Y-80359837D01*
X89050000Y-80329999D01*
X89253553Y-80329999D01*
X89253553Y-80330001D01*
X89615845Y-80692293D01*
X89669257Y-80563347D01*
X89669258Y-80563343D01*
X89699999Y-80408797D01*
X89700000Y-80408794D01*
X89700000Y-80251206D01*
X89699999Y-80251202D01*
X94590318Y-80251202D01*
X94590318Y-80408797D01*
X94621059Y-80563343D01*
X94621061Y-80563351D01*
X94674471Y-80692293D01*
X94675808Y-80690957D01*
X95036764Y-80330001D01*
X95036764Y-80329999D01*
X95006928Y-80300163D01*
X95240318Y-80300163D01*
X95240318Y-80359837D01*
X95263154Y-80414968D01*
X95305350Y-80457164D01*
X95360481Y-80480000D01*
X95420155Y-80480000D01*
X95475286Y-80457164D01*
X95517482Y-80414968D01*
X95540318Y-80359837D01*
X95540318Y-80329999D01*
X95743871Y-80329999D01*
X95990318Y-80576446D01*
X96236764Y-80330001D01*
X96236764Y-80330000D01*
X96206927Y-80300163D01*
X96440318Y-80300163D01*
X96440318Y-80359837D01*
X96463154Y-80414968D01*
X96505350Y-80457164D01*
X96560481Y-80480000D01*
X96620155Y-80480000D01*
X96675286Y-80457164D01*
X96717482Y-80414968D01*
X96740318Y-80359837D01*
X96740318Y-80329999D01*
X96943871Y-80329999D01*
X97190318Y-80576446D01*
X97436764Y-80330001D01*
X97436764Y-80330000D01*
X97406927Y-80300163D01*
X97640318Y-80300163D01*
X97640318Y-80359837D01*
X97663154Y-80414968D01*
X97705350Y-80457164D01*
X97760481Y-80480000D01*
X97820155Y-80480000D01*
X97875286Y-80457164D01*
X97917482Y-80414968D01*
X97940318Y-80359837D01*
X97940318Y-80329999D01*
X98143871Y-80329999D01*
X98390318Y-80576446D01*
X98636764Y-80330001D01*
X98636764Y-80330000D01*
X98606927Y-80300163D01*
X98840318Y-80300163D01*
X98840318Y-80359837D01*
X98863154Y-80414968D01*
X98905350Y-80457164D01*
X98960481Y-80480000D01*
X99020155Y-80480000D01*
X99075286Y-80457164D01*
X99117482Y-80414968D01*
X99140318Y-80359837D01*
X99140318Y-80329999D01*
X99343871Y-80329999D01*
X99343871Y-80330001D01*
X99706163Y-80692293D01*
X99759575Y-80563347D01*
X99759576Y-80563343D01*
X99790317Y-80408797D01*
X99790318Y-80408794D01*
X99790318Y-80251206D01*
X99790317Y-80251202D01*
X104664954Y-80251202D01*
X104664954Y-80408797D01*
X104695695Y-80563343D01*
X104695697Y-80563351D01*
X104749107Y-80692293D01*
X104750444Y-80690957D01*
X105111400Y-80330001D01*
X105111400Y-80329999D01*
X105081564Y-80300163D01*
X105314954Y-80300163D01*
X105314954Y-80359837D01*
X105337790Y-80414968D01*
X105379986Y-80457164D01*
X105435117Y-80480000D01*
X105494791Y-80480000D01*
X105549922Y-80457164D01*
X105592118Y-80414968D01*
X105614954Y-80359837D01*
X105614954Y-80329999D01*
X105818507Y-80329999D01*
X106064954Y-80576446D01*
X106311400Y-80330001D01*
X106311400Y-80330000D01*
X106281563Y-80300163D01*
X106514954Y-80300163D01*
X106514954Y-80359837D01*
X106537790Y-80414968D01*
X106579986Y-80457164D01*
X106635117Y-80480000D01*
X106694791Y-80480000D01*
X106749922Y-80457164D01*
X106792118Y-80414968D01*
X106814954Y-80359837D01*
X106814954Y-80329999D01*
X107018507Y-80329999D01*
X107264954Y-80576446D01*
X107511400Y-80330001D01*
X107511400Y-80330000D01*
X107481563Y-80300163D01*
X107714954Y-80300163D01*
X107714954Y-80359837D01*
X107737790Y-80414968D01*
X107779986Y-80457164D01*
X107835117Y-80480000D01*
X107894791Y-80480000D01*
X107949922Y-80457164D01*
X107992118Y-80414968D01*
X108014954Y-80359837D01*
X108014954Y-80329999D01*
X108218507Y-80329999D01*
X108464954Y-80576446D01*
X108711400Y-80330001D01*
X108711400Y-80330000D01*
X108681563Y-80300163D01*
X108914954Y-80300163D01*
X108914954Y-80359837D01*
X108937790Y-80414968D01*
X108979986Y-80457164D01*
X109035117Y-80480000D01*
X109094791Y-80480000D01*
X109149922Y-80457164D01*
X109192118Y-80414968D01*
X109214954Y-80359837D01*
X109214954Y-80329999D01*
X109418507Y-80329999D01*
X109418507Y-80330001D01*
X109780799Y-80692293D01*
X109834211Y-80563347D01*
X109834212Y-80563343D01*
X109864953Y-80408797D01*
X109864954Y-80408794D01*
X109864954Y-80251206D01*
X109864953Y-80251202D01*
X109834212Y-80096656D01*
X109834211Y-80096652D01*
X109780799Y-79967706D01*
X109418507Y-80329999D01*
X109214954Y-80329999D01*
X109214954Y-80300163D01*
X109192118Y-80245032D01*
X109149922Y-80202836D01*
X109094791Y-80180000D01*
X109035117Y-80180000D01*
X108979986Y-80202836D01*
X108937790Y-80245032D01*
X108914954Y-80300163D01*
X108681563Y-80300163D01*
X108464954Y-80083553D01*
X108218507Y-80329999D01*
X108014954Y-80329999D01*
X108014954Y-80300163D01*
X107992118Y-80245032D01*
X107949922Y-80202836D01*
X107894791Y-80180000D01*
X107835117Y-80180000D01*
X107779986Y-80202836D01*
X107737790Y-80245032D01*
X107714954Y-80300163D01*
X107481563Y-80300163D01*
X107264954Y-80083553D01*
X107018507Y-80329999D01*
X106814954Y-80329999D01*
X106814954Y-80300163D01*
X106792118Y-80245032D01*
X106749922Y-80202836D01*
X106694791Y-80180000D01*
X106635117Y-80180000D01*
X106579986Y-80202836D01*
X106537790Y-80245032D01*
X106514954Y-80300163D01*
X106281563Y-80300163D01*
X106064954Y-80083553D01*
X105818507Y-80329999D01*
X105614954Y-80329999D01*
X105614954Y-80300163D01*
X105592118Y-80245032D01*
X105549922Y-80202836D01*
X105494791Y-80180000D01*
X105435117Y-80180000D01*
X105379986Y-80202836D01*
X105337790Y-80245032D01*
X105314954Y-80300163D01*
X105081564Y-80300163D01*
X104749107Y-79967705D01*
X104695697Y-80096648D01*
X104695695Y-80096656D01*
X104664954Y-80251202D01*
X99790317Y-80251202D01*
X99759576Y-80096656D01*
X99759575Y-80096652D01*
X99706163Y-79967706D01*
X99343871Y-80329999D01*
X99140318Y-80329999D01*
X99140318Y-80300163D01*
X99117482Y-80245032D01*
X99075286Y-80202836D01*
X99020155Y-80180000D01*
X98960481Y-80180000D01*
X98905350Y-80202836D01*
X98863154Y-80245032D01*
X98840318Y-80300163D01*
X98606927Y-80300163D01*
X98390318Y-80083553D01*
X98143871Y-80329999D01*
X97940318Y-80329999D01*
X97940318Y-80300163D01*
X97917482Y-80245032D01*
X97875286Y-80202836D01*
X97820155Y-80180000D01*
X97760481Y-80180000D01*
X97705350Y-80202836D01*
X97663154Y-80245032D01*
X97640318Y-80300163D01*
X97406927Y-80300163D01*
X97190318Y-80083553D01*
X96943871Y-80329999D01*
X96740318Y-80329999D01*
X96740318Y-80300163D01*
X96717482Y-80245032D01*
X96675286Y-80202836D01*
X96620155Y-80180000D01*
X96560481Y-80180000D01*
X96505350Y-80202836D01*
X96463154Y-80245032D01*
X96440318Y-80300163D01*
X96206927Y-80300163D01*
X95990318Y-80083553D01*
X95743871Y-80329999D01*
X95540318Y-80329999D01*
X95540318Y-80300163D01*
X95517482Y-80245032D01*
X95475286Y-80202836D01*
X95420155Y-80180000D01*
X95360481Y-80180000D01*
X95305350Y-80202836D01*
X95263154Y-80245032D01*
X95240318Y-80300163D01*
X95006928Y-80300163D01*
X94674471Y-79967705D01*
X94621061Y-80096648D01*
X94621059Y-80096656D01*
X94590318Y-80251202D01*
X89699999Y-80251202D01*
X89669258Y-80096656D01*
X89669257Y-80096652D01*
X89615845Y-79967706D01*
X89253553Y-80329999D01*
X89050000Y-80329999D01*
X89050000Y-80300163D01*
X89027164Y-80245032D01*
X88984968Y-80202836D01*
X88929837Y-80180000D01*
X88870163Y-80180000D01*
X88815032Y-80202836D01*
X88772836Y-80245032D01*
X88750000Y-80300163D01*
X88516609Y-80300163D01*
X88300000Y-80083553D01*
X88053553Y-80329999D01*
X87850000Y-80329999D01*
X87850000Y-80300163D01*
X87827164Y-80245032D01*
X87784968Y-80202836D01*
X87729837Y-80180000D01*
X87670163Y-80180000D01*
X87615032Y-80202836D01*
X87572836Y-80245032D01*
X87550000Y-80300163D01*
X87316609Y-80300163D01*
X87100000Y-80083553D01*
X86853553Y-80329999D01*
X86650000Y-80329999D01*
X86650000Y-80300163D01*
X86627164Y-80245032D01*
X86584968Y-80202836D01*
X86529837Y-80180000D01*
X86470163Y-80180000D01*
X86415032Y-80202836D01*
X86372836Y-80245032D01*
X86350000Y-80300163D01*
X86116609Y-80300163D01*
X85900000Y-80083553D01*
X85653553Y-80329999D01*
X85450000Y-80329999D01*
X85450000Y-80300163D01*
X85427164Y-80245032D01*
X85384968Y-80202836D01*
X85329837Y-80180000D01*
X85270163Y-80180000D01*
X85215032Y-80202836D01*
X85172836Y-80245032D01*
X85150000Y-80300163D01*
X84916610Y-80300163D01*
X84584153Y-79967705D01*
X84530743Y-80096648D01*
X84530741Y-80096656D01*
X84500000Y-80251202D01*
X79539656Y-80251202D01*
X79519258Y-80148655D01*
X79519257Y-80148652D01*
X79465845Y-80019706D01*
X79103553Y-80381999D01*
X78900000Y-80381999D01*
X78900000Y-80352163D01*
X78877164Y-80297032D01*
X78834968Y-80254836D01*
X78779837Y-80232000D01*
X78720163Y-80232000D01*
X78665032Y-80254836D01*
X78622836Y-80297032D01*
X78600000Y-80352163D01*
X78366609Y-80352163D01*
X78150000Y-80135553D01*
X77903553Y-80381999D01*
X77700000Y-80381999D01*
X77700000Y-80352163D01*
X77677164Y-80297032D01*
X77634968Y-80254836D01*
X77579837Y-80232000D01*
X77520163Y-80232000D01*
X77465032Y-80254836D01*
X77422836Y-80297032D01*
X77400000Y-80352163D01*
X77166609Y-80352163D01*
X76950000Y-80135553D01*
X76703553Y-80381999D01*
X76500000Y-80381999D01*
X76500000Y-80352163D01*
X76477164Y-80297032D01*
X76434968Y-80254836D01*
X76379837Y-80232000D01*
X76320163Y-80232000D01*
X76265032Y-80254836D01*
X76222836Y-80297032D01*
X76200000Y-80352163D01*
X75966609Y-80352163D01*
X75750000Y-80135553D01*
X75503553Y-80381999D01*
X75300000Y-80381999D01*
X75300000Y-80352163D01*
X75277164Y-80297032D01*
X75234968Y-80254836D01*
X75179837Y-80232000D01*
X75120163Y-80232000D01*
X75065032Y-80254836D01*
X75022836Y-80297032D01*
X75000000Y-80352163D01*
X74766610Y-80352163D01*
X74434153Y-80019705D01*
X74380743Y-80148648D01*
X74380741Y-80148656D01*
X74350000Y-80303202D01*
X68800500Y-80303202D01*
X68800500Y-79666153D01*
X74787705Y-79666153D01*
X75150000Y-80028446D01*
X75150001Y-80028446D01*
X75512293Y-79666153D01*
X75987705Y-79666153D01*
X76350000Y-80028446D01*
X76350001Y-80028446D01*
X76712293Y-79666153D01*
X77187705Y-79666153D01*
X77550000Y-80028446D01*
X77550001Y-80028446D01*
X77912293Y-79666153D01*
X78387705Y-79666153D01*
X78750000Y-80028446D01*
X78750001Y-80028446D01*
X79112293Y-79666153D01*
X78986755Y-79614153D01*
X84937705Y-79614153D01*
X85300000Y-79976446D01*
X85300001Y-79976446D01*
X85662293Y-79614153D01*
X86137705Y-79614153D01*
X86500000Y-79976446D01*
X86500001Y-79976446D01*
X86862293Y-79614153D01*
X87337705Y-79614153D01*
X87700000Y-79976446D01*
X87700001Y-79976446D01*
X88062293Y-79614153D01*
X88537705Y-79614153D01*
X88900000Y-79976446D01*
X88900001Y-79976446D01*
X89262293Y-79614153D01*
X95028023Y-79614153D01*
X95390318Y-79976446D01*
X95390319Y-79976446D01*
X95752611Y-79614153D01*
X96228023Y-79614153D01*
X96590318Y-79976446D01*
X96590319Y-79976446D01*
X96952611Y-79614153D01*
X97428023Y-79614153D01*
X97790318Y-79976446D01*
X97790319Y-79976446D01*
X98152611Y-79614153D01*
X98628023Y-79614153D01*
X98990318Y-79976446D01*
X98990319Y-79976446D01*
X99352611Y-79614153D01*
X105102659Y-79614153D01*
X105464954Y-79976446D01*
X105464955Y-79976446D01*
X105827247Y-79614153D01*
X106302659Y-79614153D01*
X106664954Y-79976446D01*
X106664955Y-79976446D01*
X107027247Y-79614153D01*
X107502659Y-79614153D01*
X107864954Y-79976446D01*
X107864955Y-79976446D01*
X108227247Y-79614153D01*
X108702659Y-79614153D01*
X109064954Y-79976446D01*
X109064955Y-79976446D01*
X109427247Y-79614153D01*
X109298305Y-79560743D01*
X109298297Y-79560741D01*
X109143751Y-79530000D01*
X108986156Y-79530000D01*
X108831610Y-79560741D01*
X108831602Y-79560743D01*
X108702659Y-79614153D01*
X108227247Y-79614153D01*
X108098305Y-79560743D01*
X108098297Y-79560741D01*
X107943751Y-79530000D01*
X107786156Y-79530000D01*
X107631610Y-79560741D01*
X107631602Y-79560743D01*
X107502659Y-79614153D01*
X107027247Y-79614153D01*
X106898305Y-79560743D01*
X106898297Y-79560741D01*
X106743751Y-79530000D01*
X106586156Y-79530000D01*
X106431610Y-79560741D01*
X106431602Y-79560743D01*
X106302659Y-79614153D01*
X105827247Y-79614153D01*
X105698305Y-79560743D01*
X105698297Y-79560741D01*
X105543751Y-79530000D01*
X105386156Y-79530000D01*
X105231610Y-79560741D01*
X105231602Y-79560743D01*
X105102659Y-79614153D01*
X99352611Y-79614153D01*
X99223669Y-79560743D01*
X99223661Y-79560741D01*
X99069115Y-79530000D01*
X98911520Y-79530000D01*
X98756974Y-79560741D01*
X98756966Y-79560743D01*
X98628023Y-79614153D01*
X98152611Y-79614153D01*
X98023669Y-79560743D01*
X98023661Y-79560741D01*
X97869115Y-79530000D01*
X97711520Y-79530000D01*
X97556974Y-79560741D01*
X97556966Y-79560743D01*
X97428023Y-79614153D01*
X96952611Y-79614153D01*
X96823669Y-79560743D01*
X96823661Y-79560741D01*
X96669115Y-79530000D01*
X96511520Y-79530000D01*
X96356974Y-79560741D01*
X96356966Y-79560743D01*
X96228023Y-79614153D01*
X95752611Y-79614153D01*
X95623669Y-79560743D01*
X95623661Y-79560741D01*
X95469115Y-79530000D01*
X95311520Y-79530000D01*
X95156974Y-79560741D01*
X95156966Y-79560743D01*
X95028023Y-79614153D01*
X89262293Y-79614153D01*
X89133351Y-79560743D01*
X89133343Y-79560741D01*
X88978797Y-79530000D01*
X88821202Y-79530000D01*
X88666656Y-79560741D01*
X88666648Y-79560743D01*
X88537705Y-79614153D01*
X88062293Y-79614153D01*
X87933351Y-79560743D01*
X87933343Y-79560741D01*
X87778797Y-79530000D01*
X87621202Y-79530000D01*
X87466656Y-79560741D01*
X87466648Y-79560743D01*
X87337705Y-79614153D01*
X86862293Y-79614153D01*
X86733351Y-79560743D01*
X86733343Y-79560741D01*
X86578797Y-79530000D01*
X86421202Y-79530000D01*
X86266656Y-79560741D01*
X86266648Y-79560743D01*
X86137705Y-79614153D01*
X85662293Y-79614153D01*
X85533351Y-79560743D01*
X85533343Y-79560741D01*
X85378797Y-79530000D01*
X85221202Y-79530000D01*
X85066656Y-79560741D01*
X85066648Y-79560743D01*
X84937705Y-79614153D01*
X78986755Y-79614153D01*
X78983351Y-79612743D01*
X78983343Y-79612741D01*
X78828797Y-79582000D01*
X78671202Y-79582000D01*
X78516656Y-79612741D01*
X78516648Y-79612743D01*
X78387705Y-79666153D01*
X77912293Y-79666153D01*
X77783351Y-79612743D01*
X77783343Y-79612741D01*
X77628797Y-79582000D01*
X77471202Y-79582000D01*
X77316656Y-79612741D01*
X77316648Y-79612743D01*
X77187705Y-79666153D01*
X76712293Y-79666153D01*
X76583351Y-79612743D01*
X76583343Y-79612741D01*
X76428797Y-79582000D01*
X76271202Y-79582000D01*
X76116656Y-79612741D01*
X76116648Y-79612743D01*
X75987705Y-79666153D01*
X75512293Y-79666153D01*
X75383351Y-79612743D01*
X75383343Y-79612741D01*
X75228797Y-79582000D01*
X75071202Y-79582000D01*
X74916656Y-79612741D01*
X74916648Y-79612743D01*
X74787705Y-79666153D01*
X68800500Y-79666153D01*
X68800500Y-74921153D01*
X71999500Y-74921153D01*
X71999500Y-75078846D01*
X72030261Y-75233489D01*
X72030264Y-75233501D01*
X72090602Y-75379172D01*
X72090609Y-75379185D01*
X72178210Y-75510288D01*
X72178213Y-75510292D01*
X72289707Y-75621786D01*
X72289711Y-75621789D01*
X72420814Y-75709390D01*
X72420827Y-75709397D01*
X72566498Y-75769735D01*
X72566503Y-75769737D01*
X72688727Y-75794049D01*
X72721153Y-75800499D01*
X72721156Y-75800500D01*
X72721158Y-75800500D01*
X72878844Y-75800500D01*
X72878845Y-75800499D01*
X73033497Y-75769737D01*
X73179179Y-75709394D01*
X73310289Y-75621789D01*
X73310292Y-75621786D01*
X73313260Y-75618819D01*
X73374583Y-75585334D01*
X73400941Y-75582500D01*
X76997178Y-75582500D01*
X77064217Y-75602185D01*
X77071146Y-75607228D01*
X77237867Y-75718628D01*
X77237880Y-75718635D01*
X77388906Y-75781191D01*
X77419953Y-75794051D01*
X77419957Y-75794051D01*
X77419958Y-75794052D01*
X77613244Y-75832500D01*
X77613247Y-75832500D01*
X77810331Y-75832500D01*
X77971207Y-75800499D01*
X78003623Y-75794051D01*
X78185702Y-75718632D01*
X78314608Y-75632500D01*
X78354635Y-75605755D01*
X78355655Y-75607282D01*
X78412043Y-75583334D01*
X78426398Y-75582500D01*
X83195396Y-75582500D01*
X83242844Y-75591937D01*
X83266503Y-75601737D01*
X83266508Y-75601738D01*
X83266511Y-75601739D01*
X83421153Y-75632499D01*
X83421156Y-75632500D01*
X83421158Y-75632500D01*
X83578844Y-75632500D01*
X83578845Y-75632499D01*
X83705621Y-75607282D01*
X83733488Y-75601739D01*
X83733489Y-75601738D01*
X83733497Y-75601737D01*
X83757155Y-75591937D01*
X83804604Y-75582500D01*
X87518227Y-75582500D01*
X87565679Y-75591939D01*
X87682918Y-75640500D01*
X87751847Y-75669051D01*
X87751851Y-75669051D01*
X87751852Y-75669052D01*
X87945138Y-75707500D01*
X87945141Y-75707500D01*
X88142225Y-75707500D01*
X88272264Y-75681632D01*
X88335517Y-75669051D01*
X88476337Y-75610721D01*
X88517589Y-75593635D01*
X88517589Y-75593634D01*
X88517596Y-75593632D01*
X88617875Y-75526628D01*
X88686529Y-75480755D01*
X88687549Y-75482282D01*
X88743937Y-75458334D01*
X88758292Y-75457500D01*
X92495396Y-75457500D01*
X92542844Y-75466937D01*
X92566503Y-75476737D01*
X92566508Y-75476738D01*
X92566511Y-75476739D01*
X92721153Y-75507499D01*
X92721156Y-75507500D01*
X92721158Y-75507500D01*
X92878844Y-75507500D01*
X92878845Y-75507499D01*
X93005621Y-75482282D01*
X93033488Y-75476739D01*
X93033489Y-75476738D01*
X93033497Y-75476737D01*
X93057155Y-75466937D01*
X93104604Y-75457500D01*
X97747871Y-75457500D01*
X97814910Y-75477185D01*
X97816762Y-75478398D01*
X97829079Y-75486628D01*
X97829092Y-75486635D01*
X98011160Y-75562049D01*
X98011165Y-75562051D01*
X98011169Y-75562051D01*
X98011170Y-75562052D01*
X98204456Y-75600500D01*
X98204459Y-75600500D01*
X98401543Y-75600500D01*
X98546905Y-75571585D01*
X98594835Y-75562051D01*
X98776914Y-75486632D01*
X98880918Y-75417139D01*
X98945847Y-75373755D01*
X98946867Y-75375282D01*
X99003255Y-75351334D01*
X99017610Y-75350500D01*
X102595396Y-75350500D01*
X102642844Y-75359937D01*
X102666503Y-75369737D01*
X102666508Y-75369738D01*
X102666511Y-75369739D01*
X102821153Y-75400499D01*
X102821156Y-75400500D01*
X102821158Y-75400500D01*
X102978844Y-75400500D01*
X102978845Y-75400499D01*
X103085999Y-75379185D01*
X103133488Y-75369739D01*
X103133489Y-75369738D01*
X103133497Y-75369737D01*
X103157155Y-75359937D01*
X103204604Y-75350500D01*
X107334534Y-75350500D01*
X107401573Y-75370185D01*
X107422215Y-75386819D01*
X107452532Y-75417136D01*
X107452536Y-75417139D01*
X107616397Y-75526628D01*
X107616410Y-75526635D01*
X107797725Y-75601737D01*
X107798483Y-75602051D01*
X107798487Y-75602051D01*
X107798488Y-75602052D01*
X107991774Y-75640500D01*
X107991777Y-75640500D01*
X108188861Y-75640500D01*
X108318900Y-75614632D01*
X108382153Y-75602051D01*
X108564232Y-75526632D01*
X108624102Y-75486628D01*
X108733165Y-75413755D01*
X108734185Y-75415282D01*
X108790573Y-75391334D01*
X108804928Y-75390500D01*
X113782770Y-75390500D01*
X113849809Y-75410185D01*
X113870451Y-75426819D01*
X114050914Y-75607282D01*
X114224824Y-75781191D01*
X114258309Y-75842514D01*
X114259616Y-75888270D01*
X114244500Y-75983707D01*
X114244500Y-76196286D01*
X114277753Y-76406239D01*
X114343444Y-76608414D01*
X114439951Y-76797820D01*
X114564890Y-76969786D01*
X114678430Y-77083326D01*
X114711915Y-77144649D01*
X114706931Y-77214341D01*
X114665059Y-77270274D01*
X114634083Y-77287189D01*
X114502669Y-77336203D01*
X114502664Y-77336206D01*
X114387455Y-77422452D01*
X114387452Y-77422455D01*
X114301206Y-77537664D01*
X114301202Y-77537671D01*
X114250908Y-77672517D01*
X114244501Y-77732116D01*
X114244501Y-77732123D01*
X114244500Y-77732135D01*
X114244500Y-79527870D01*
X114244501Y-79527876D01*
X114250908Y-79587483D01*
X114301202Y-79722328D01*
X114301206Y-79722335D01*
X114387452Y-79837544D01*
X114387455Y-79837547D01*
X114502664Y-79923793D01*
X114502671Y-79923797D01*
X114637517Y-79974091D01*
X114637516Y-79974091D01*
X114644444Y-79974835D01*
X114697127Y-79980500D01*
X116492872Y-79980499D01*
X116552483Y-79974091D01*
X116687331Y-79923796D01*
X116802546Y-79837546D01*
X116888796Y-79722331D01*
X116939091Y-79587483D01*
X116945500Y-79527873D01*
X116945499Y-77732128D01*
X116940125Y-77682135D01*
X124694500Y-77682135D01*
X124694500Y-79477870D01*
X124694501Y-79477876D01*
X124700908Y-79537483D01*
X124751202Y-79672328D01*
X124751206Y-79672335D01*
X124837452Y-79787544D01*
X124837455Y-79787547D01*
X124952664Y-79873793D01*
X124952671Y-79873797D01*
X125087517Y-79924091D01*
X125087516Y-79924091D01*
X125094444Y-79924835D01*
X125147127Y-79930500D01*
X126942872Y-79930499D01*
X127002483Y-79924091D01*
X127137331Y-79873796D01*
X127252546Y-79787546D01*
X127338796Y-79672331D01*
X127389091Y-79537483D01*
X127395500Y-79477873D01*
X127395499Y-77682128D01*
X127389091Y-77622517D01*
X127338796Y-77487669D01*
X127338795Y-77487668D01*
X127338793Y-77487664D01*
X127252547Y-77372455D01*
X127252544Y-77372452D01*
X127137335Y-77286206D01*
X127137328Y-77286202D01*
X127002482Y-77235908D01*
X127002483Y-77235908D01*
X126942883Y-77229501D01*
X126942881Y-77229500D01*
X126942873Y-77229500D01*
X126942864Y-77229500D01*
X125147129Y-77229500D01*
X125147123Y-77229501D01*
X125087516Y-77235908D01*
X124952671Y-77286202D01*
X124952664Y-77286206D01*
X124837455Y-77372452D01*
X124837452Y-77372455D01*
X124751206Y-77487664D01*
X124751202Y-77487671D01*
X124700908Y-77622517D01*
X124695533Y-77672516D01*
X124694501Y-77682123D01*
X124694500Y-77682135D01*
X116940125Y-77682135D01*
X116939091Y-77672517D01*
X116920442Y-77622517D01*
X116888797Y-77537671D01*
X116888793Y-77537664D01*
X116802547Y-77422455D01*
X116802544Y-77422452D01*
X116687335Y-77336206D01*
X116687328Y-77336202D01*
X116555917Y-77287189D01*
X116499983Y-77245318D01*
X116475566Y-77179853D01*
X116490418Y-77111580D01*
X116511563Y-77083332D01*
X116625104Y-76969792D01*
X116750051Y-76797816D01*
X116846557Y-76608412D01*
X116912246Y-76406243D01*
X116945500Y-76196287D01*
X116945500Y-75983713D01*
X116912246Y-75773757D01*
X116846557Y-75571588D01*
X116750051Y-75382184D01*
X116750049Y-75382181D01*
X116750048Y-75382179D01*
X116625109Y-75210213D01*
X116474786Y-75059890D01*
X116302820Y-74934951D01*
X116302115Y-74934591D01*
X116294054Y-74930485D01*
X116243259Y-74882512D01*
X116226463Y-74814692D01*
X116248999Y-74748556D01*
X116294054Y-74709515D01*
X116302816Y-74705051D01*
X116324789Y-74689086D01*
X116474786Y-74580109D01*
X116474788Y-74580106D01*
X116474792Y-74580104D01*
X116625104Y-74429792D01*
X116625106Y-74429788D01*
X116625109Y-74429786D01*
X116750048Y-74257820D01*
X116750047Y-74257820D01*
X116750051Y-74257816D01*
X116846557Y-74068412D01*
X116912246Y-73866243D01*
X116945500Y-73656287D01*
X116945500Y-73443713D01*
X116912246Y-73233757D01*
X116846557Y-73031588D01*
X116750051Y-72842184D01*
X116750049Y-72842181D01*
X116750048Y-72842179D01*
X116625109Y-72670213D01*
X116474786Y-72519890D01*
X116302820Y-72394951D01*
X116113414Y-72298444D01*
X116113413Y-72298443D01*
X116113412Y-72298443D01*
X115911243Y-72232754D01*
X115911241Y-72232753D01*
X115911240Y-72232753D01*
X115749957Y-72207208D01*
X115701287Y-72199500D01*
X115488713Y-72199500D01*
X115440042Y-72207208D01*
X115278760Y-72232753D01*
X115076585Y-72298444D01*
X114887179Y-72394951D01*
X114715213Y-72519890D01*
X114564890Y-72670213D01*
X114439951Y-72842179D01*
X114343444Y-73031585D01*
X114277753Y-73233760D01*
X114244500Y-73443713D01*
X114244500Y-73656287D01*
X114244499Y-73656287D01*
X114258725Y-73746103D01*
X114249770Y-73815396D01*
X114204774Y-73868848D01*
X114138022Y-73889487D01*
X114136252Y-73889500D01*
X108804928Y-73889500D01*
X108737889Y-73869815D01*
X108730959Y-73864771D01*
X108564238Y-73753371D01*
X108564225Y-73753364D01*
X108382157Y-73677950D01*
X108382147Y-73677947D01*
X108188861Y-73639500D01*
X108188859Y-73639500D01*
X107991777Y-73639500D01*
X107991775Y-73639500D01*
X107798488Y-73677947D01*
X107798478Y-73677950D01*
X107616406Y-73753366D01*
X107503808Y-73828602D01*
X107437130Y-73849480D01*
X107434917Y-73849500D01*
X103204604Y-73849500D01*
X103157155Y-73840062D01*
X103133497Y-73830263D01*
X103133493Y-73830262D01*
X103133488Y-73830260D01*
X102978845Y-73799500D01*
X102978842Y-73799500D01*
X102821158Y-73799500D01*
X102821155Y-73799500D01*
X102666511Y-73830260D01*
X102666506Y-73830262D01*
X102666504Y-73830262D01*
X102666503Y-73830263D01*
X102642844Y-73840062D01*
X102595396Y-73849500D01*
X99017610Y-73849500D01*
X98950571Y-73829815D01*
X98943641Y-73824771D01*
X98776920Y-73713371D01*
X98776907Y-73713364D01*
X98594839Y-73637950D01*
X98594829Y-73637947D01*
X98401543Y-73599500D01*
X98401541Y-73599500D01*
X98204459Y-73599500D01*
X98204457Y-73599500D01*
X98011170Y-73637947D01*
X98011160Y-73637950D01*
X97829092Y-73713364D01*
X97829079Y-73713371D01*
X97665219Y-73822859D01*
X97638599Y-73849480D01*
X97567896Y-73920182D01*
X97506576Y-73953666D01*
X97480217Y-73956500D01*
X93104604Y-73956500D01*
X93057155Y-73947062D01*
X93033497Y-73937263D01*
X93033493Y-73937262D01*
X93033488Y-73937260D01*
X92878845Y-73906500D01*
X92878842Y-73906500D01*
X92721158Y-73906500D01*
X92721155Y-73906500D01*
X92566511Y-73937260D01*
X92566506Y-73937262D01*
X92566504Y-73937262D01*
X92566503Y-73937263D01*
X92542844Y-73947062D01*
X92495396Y-73956500D01*
X88758292Y-73956500D01*
X88691253Y-73936815D01*
X88684323Y-73931771D01*
X88517602Y-73820371D01*
X88517589Y-73820364D01*
X88335521Y-73744950D01*
X88335511Y-73744947D01*
X88142225Y-73706500D01*
X88142223Y-73706500D01*
X87945141Y-73706500D01*
X87945139Y-73706500D01*
X87751852Y-73744947D01*
X87751842Y-73744950D01*
X87569774Y-73820364D01*
X87569761Y-73820371D01*
X87405901Y-73929859D01*
X87348241Y-73987520D01*
X87290578Y-74045182D01*
X87229258Y-74078666D01*
X87202899Y-74081500D01*
X83804604Y-74081500D01*
X83757155Y-74072062D01*
X83733497Y-74062263D01*
X83733493Y-74062262D01*
X83733488Y-74062260D01*
X83578845Y-74031500D01*
X83578842Y-74031500D01*
X83421158Y-74031500D01*
X83421155Y-74031500D01*
X83266511Y-74062260D01*
X83266506Y-74062262D01*
X83266504Y-74062262D01*
X83266503Y-74062263D01*
X83242844Y-74072062D01*
X83195396Y-74081500D01*
X78426398Y-74081500D01*
X78359359Y-74061815D01*
X78352429Y-74056771D01*
X78185708Y-73945371D01*
X78185695Y-73945364D01*
X78003627Y-73869950D01*
X78003617Y-73869947D01*
X77810331Y-73831500D01*
X77810329Y-73831500D01*
X77613247Y-73831500D01*
X77613245Y-73831500D01*
X77419958Y-73869947D01*
X77419948Y-73869950D01*
X77237880Y-73945364D01*
X77237867Y-73945371D01*
X77068941Y-74058245D01*
X77067920Y-74056717D01*
X77011533Y-74080666D01*
X76997178Y-74081500D01*
X72894080Y-74081500D01*
X72749092Y-74110340D01*
X72749082Y-74110343D01*
X72612511Y-74166912D01*
X72612499Y-74166919D01*
X72586268Y-74184446D01*
X72586241Y-74184464D01*
X72584945Y-74185331D01*
X72489584Y-74249048D01*
X72477199Y-74261431D01*
X72468529Y-74267552D01*
X72459910Y-74270494D01*
X72444480Y-74280805D01*
X72420822Y-74290605D01*
X72420818Y-74290607D01*
X72289715Y-74378207D01*
X72289707Y-74378213D01*
X72178213Y-74489707D01*
X72178210Y-74489711D01*
X72090609Y-74620814D01*
X72090602Y-74620827D01*
X72030264Y-74766498D01*
X72030261Y-74766510D01*
X71999500Y-74921153D01*
X68800500Y-74921153D01*
X68800500Y-70621153D01*
X78899500Y-70621153D01*
X78899500Y-70778846D01*
X78930261Y-70933489D01*
X78930264Y-70933501D01*
X78990602Y-71079172D01*
X78990609Y-71079185D01*
X79078210Y-71210288D01*
X79078213Y-71210292D01*
X79130240Y-71262319D01*
X79163725Y-71323642D01*
X79158741Y-71393334D01*
X79130240Y-71437681D01*
X79078213Y-71489707D01*
X79078210Y-71489711D01*
X78990609Y-71620814D01*
X78990602Y-71620827D01*
X78930264Y-71766498D01*
X78930261Y-71766510D01*
X78899500Y-71921153D01*
X78899500Y-72078846D01*
X78930261Y-72233489D01*
X78930264Y-72233501D01*
X78990602Y-72379172D01*
X78990609Y-72379185D01*
X79078210Y-72510288D01*
X79078213Y-72510292D01*
X79189707Y-72621786D01*
X79189711Y-72621789D01*
X79320814Y-72709390D01*
X79320827Y-72709397D01*
X79466498Y-72769735D01*
X79466503Y-72769737D01*
X79621153Y-72800499D01*
X79621156Y-72800500D01*
X79621158Y-72800500D01*
X79778844Y-72800500D01*
X79778845Y-72800499D01*
X79933497Y-72769737D01*
X80079179Y-72709394D01*
X80079185Y-72709390D01*
X80210875Y-72621398D01*
X80277553Y-72600520D01*
X80279766Y-72600500D01*
X81420234Y-72600500D01*
X81487273Y-72620185D01*
X81489125Y-72621398D01*
X81620814Y-72709390D01*
X81620827Y-72709397D01*
X81766498Y-72769735D01*
X81766503Y-72769737D01*
X81921153Y-72800499D01*
X81921156Y-72800500D01*
X81921158Y-72800500D01*
X82078844Y-72800500D01*
X82078845Y-72800499D01*
X82233497Y-72769737D01*
X82379179Y-72709394D01*
X82510289Y-72621789D01*
X82621789Y-72510289D01*
X82709394Y-72379179D01*
X82769737Y-72233497D01*
X82800500Y-72078842D01*
X82800500Y-71921158D01*
X82800500Y-71921155D01*
X82800499Y-71921153D01*
X83099500Y-71921153D01*
X83099500Y-72078846D01*
X83130261Y-72233489D01*
X83130264Y-72233501D01*
X83190602Y-72379172D01*
X83190609Y-72379185D01*
X83278210Y-72510288D01*
X83278213Y-72510292D01*
X83389707Y-72621786D01*
X83389711Y-72621789D01*
X83520814Y-72709390D01*
X83520827Y-72709397D01*
X83666498Y-72769735D01*
X83666503Y-72769737D01*
X83821153Y-72800499D01*
X83821156Y-72800500D01*
X83821158Y-72800500D01*
X83978844Y-72800500D01*
X83978845Y-72800499D01*
X84133497Y-72769737D01*
X84279179Y-72709394D01*
X84279185Y-72709390D01*
X84410875Y-72621398D01*
X84477553Y-72600520D01*
X84479766Y-72600500D01*
X93820234Y-72600500D01*
X93887273Y-72620185D01*
X93889125Y-72621398D01*
X94020814Y-72709390D01*
X94020827Y-72709397D01*
X94166498Y-72769735D01*
X94166503Y-72769737D01*
X94321153Y-72800499D01*
X94321156Y-72800500D01*
X94321158Y-72800500D01*
X94478844Y-72800500D01*
X94478845Y-72800499D01*
X94633497Y-72769737D01*
X94779179Y-72709394D01*
X94910289Y-72621789D01*
X95021789Y-72510289D01*
X95109394Y-72379179D01*
X95169737Y-72233497D01*
X95200500Y-72078842D01*
X95200500Y-71921158D01*
X95200500Y-71921155D01*
X95200499Y-71921153D01*
X95169738Y-71766510D01*
X95169737Y-71766503D01*
X95169735Y-71766498D01*
X95109397Y-71620827D01*
X95109390Y-71620814D01*
X95021789Y-71489711D01*
X95021786Y-71489707D01*
X94919759Y-71387680D01*
X94886274Y-71326357D01*
X94891258Y-71256665D01*
X94918002Y-71215054D01*
X94917928Y-71214993D01*
X94918454Y-71214351D01*
X94919764Y-71212313D01*
X94921789Y-71210289D01*
X95009394Y-71079179D01*
X95069737Y-70933497D01*
X95100500Y-70778842D01*
X95100500Y-70621158D01*
X95100500Y-70621155D01*
X95100499Y-70621153D01*
X95069738Y-70466510D01*
X95069737Y-70466503D01*
X95069735Y-70466498D01*
X95009397Y-70320827D01*
X95009390Y-70320814D01*
X94921789Y-70189711D01*
X94921786Y-70189707D01*
X94810292Y-70078213D01*
X94810288Y-70078210D01*
X94679185Y-69990609D01*
X94679172Y-69990602D01*
X94533501Y-69930264D01*
X94533489Y-69930261D01*
X94378845Y-69899500D01*
X94378842Y-69899500D01*
X94221158Y-69899500D01*
X94221155Y-69899500D01*
X94066510Y-69930261D01*
X94066498Y-69930264D01*
X93920827Y-69990602D01*
X93920814Y-69990609D01*
X93789125Y-70078602D01*
X93722447Y-70099480D01*
X93720234Y-70099500D01*
X84979766Y-70099500D01*
X84912727Y-70079815D01*
X84910875Y-70078602D01*
X84779185Y-69990609D01*
X84779172Y-69990602D01*
X84633501Y-69930264D01*
X84633489Y-69930261D01*
X84478845Y-69899500D01*
X84478842Y-69899500D01*
X84321158Y-69899500D01*
X84321155Y-69899500D01*
X84166510Y-69930261D01*
X84166498Y-69930264D01*
X84020827Y-69990602D01*
X84020814Y-69990609D01*
X83889711Y-70078210D01*
X83889707Y-70078213D01*
X83778213Y-70189707D01*
X83778210Y-70189711D01*
X83690609Y-70320814D01*
X83690602Y-70320827D01*
X83630264Y-70466498D01*
X83630261Y-70466510D01*
X83599500Y-70621153D01*
X83599500Y-70778846D01*
X83630261Y-70933489D01*
X83630264Y-70933501D01*
X83692937Y-71084808D01*
X83690374Y-71085869D01*
X83702080Y-71142722D01*
X83676934Y-71207910D01*
X83625955Y-71247058D01*
X83520823Y-71290604D01*
X83520814Y-71290609D01*
X83389711Y-71378210D01*
X83389707Y-71378213D01*
X83278213Y-71489707D01*
X83278210Y-71489711D01*
X83190609Y-71620814D01*
X83190602Y-71620827D01*
X83130264Y-71766498D01*
X83130261Y-71766510D01*
X83099500Y-71921153D01*
X82800499Y-71921153D01*
X82769738Y-71766510D01*
X82769737Y-71766503D01*
X82769735Y-71766498D01*
X82709397Y-71620827D01*
X82709390Y-71620814D01*
X82621789Y-71489711D01*
X82621786Y-71489707D01*
X82569760Y-71437681D01*
X82536275Y-71376358D01*
X82541259Y-71306666D01*
X82569760Y-71262319D01*
X82621786Y-71210292D01*
X82621789Y-71210289D01*
X82709394Y-71079179D01*
X82769737Y-70933497D01*
X82800500Y-70778842D01*
X82800500Y-70621158D01*
X82800500Y-70621155D01*
X82800499Y-70621153D01*
X82769738Y-70466510D01*
X82769737Y-70466503D01*
X82769735Y-70466498D01*
X82709397Y-70320827D01*
X82709390Y-70320814D01*
X82621789Y-70189711D01*
X82621786Y-70189707D01*
X82510292Y-70078213D01*
X82510288Y-70078210D01*
X82379185Y-69990609D01*
X82379172Y-69990602D01*
X82233501Y-69930264D01*
X82233489Y-69930261D01*
X82078845Y-69899500D01*
X82078842Y-69899500D01*
X81921158Y-69899500D01*
X81921155Y-69899500D01*
X81766510Y-69930261D01*
X81766498Y-69930264D01*
X81620827Y-69990602D01*
X81620814Y-69990609D01*
X81489125Y-70078602D01*
X81422447Y-70099480D01*
X81420234Y-70099500D01*
X80279766Y-70099500D01*
X80212727Y-70079815D01*
X80210875Y-70078602D01*
X80079185Y-69990609D01*
X80079172Y-69990602D01*
X79933501Y-69930264D01*
X79933489Y-69930261D01*
X79778845Y-69899500D01*
X79778842Y-69899500D01*
X79621158Y-69899500D01*
X79621155Y-69899500D01*
X79466510Y-69930261D01*
X79466498Y-69930264D01*
X79320827Y-69990602D01*
X79320814Y-69990609D01*
X79189711Y-70078210D01*
X79189707Y-70078213D01*
X79078213Y-70189707D01*
X79078210Y-70189711D01*
X78990609Y-70320814D01*
X78990602Y-70320827D01*
X78930264Y-70466498D01*
X78930261Y-70466510D01*
X78899500Y-70621153D01*
X68800500Y-70621153D01*
X68800500Y-67106153D01*
X71994500Y-67106153D01*
X71994500Y-67263846D01*
X72025261Y-67418489D01*
X72025264Y-67418501D01*
X72085602Y-67564172D01*
X72085609Y-67564185D01*
X72120304Y-67616109D01*
X72141182Y-67682786D01*
X72122698Y-67750167D01*
X72120304Y-67753891D01*
X72085609Y-67805814D01*
X72085602Y-67805827D01*
X72025264Y-67951498D01*
X72025261Y-67951510D01*
X71994500Y-68106153D01*
X71994500Y-68263846D01*
X72025261Y-68418489D01*
X72025264Y-68418501D01*
X72085602Y-68564172D01*
X72085609Y-68564185D01*
X72173210Y-68695288D01*
X72173213Y-68695292D01*
X72284707Y-68806786D01*
X72284711Y-68806789D01*
X72415814Y-68894390D01*
X72415827Y-68894397D01*
X72547995Y-68949142D01*
X72561503Y-68954737D01*
X72626147Y-68967595D01*
X72716849Y-68985638D01*
X72778760Y-69018023D01*
X72780337Y-69019572D01*
X73941284Y-70180520D01*
X73941286Y-70180521D01*
X73941290Y-70180524D01*
X74078209Y-70259573D01*
X74078216Y-70259577D01*
X74230943Y-70300501D01*
X74230945Y-70300501D01*
X74396654Y-70300501D01*
X74396670Y-70300500D01*
X77013331Y-70300500D01*
X77013347Y-70300501D01*
X77020943Y-70300501D01*
X77179054Y-70300501D01*
X77179057Y-70300501D01*
X77331785Y-70259577D01*
X77381904Y-70230639D01*
X77468716Y-70180520D01*
X77580520Y-70068716D01*
X77580520Y-70068714D01*
X77590728Y-70058507D01*
X77590729Y-70058504D01*
X77914661Y-69734572D01*
X77975983Y-69701089D01*
X77978150Y-69700638D01*
X78036085Y-69689113D01*
X78133497Y-69669737D01*
X78279179Y-69609394D01*
X78410289Y-69521789D01*
X78521789Y-69410289D01*
X78609394Y-69279179D01*
X78669737Y-69133497D01*
X78687630Y-69043543D01*
X119869499Y-69043543D01*
X119907947Y-69236829D01*
X119907950Y-69236839D01*
X119983364Y-69418907D01*
X119983371Y-69418920D01*
X120092860Y-69582781D01*
X120092863Y-69582785D01*
X120232214Y-69722136D01*
X120232218Y-69722139D01*
X120396079Y-69831628D01*
X120396092Y-69831635D01*
X120559935Y-69899500D01*
X120578165Y-69907051D01*
X120578169Y-69907051D01*
X120578170Y-69907052D01*
X120771456Y-69945500D01*
X120771459Y-69945500D01*
X122068543Y-69945500D01*
X122198582Y-69919632D01*
X122261835Y-69907051D01*
X122443914Y-69831632D01*
X122607782Y-69722139D01*
X122747139Y-69582782D01*
X122856632Y-69418914D01*
X122932051Y-69236835D01*
X122952606Y-69133501D01*
X122970500Y-69043543D01*
X124219499Y-69043543D01*
X124257947Y-69236829D01*
X124257950Y-69236839D01*
X124333364Y-69418907D01*
X124333371Y-69418920D01*
X124442860Y-69582781D01*
X124442863Y-69582785D01*
X124582214Y-69722136D01*
X124582218Y-69722139D01*
X124746079Y-69831628D01*
X124746092Y-69831635D01*
X124909935Y-69899500D01*
X124928165Y-69907051D01*
X124928169Y-69907051D01*
X124928170Y-69907052D01*
X125121456Y-69945500D01*
X125121459Y-69945500D01*
X126118543Y-69945500D01*
X126248582Y-69919632D01*
X126311835Y-69907051D01*
X126493914Y-69831632D01*
X126657782Y-69722139D01*
X126797139Y-69582782D01*
X126906632Y-69418914D01*
X126982051Y-69236835D01*
X127002606Y-69133501D01*
X127020500Y-69043543D01*
X127020500Y-68846456D01*
X126982052Y-68653170D01*
X126982051Y-68653169D01*
X126982051Y-68653165D01*
X126951405Y-68579179D01*
X126906635Y-68471092D01*
X126906628Y-68471079D01*
X126797139Y-68307218D01*
X126797136Y-68307214D01*
X126657785Y-68167863D01*
X126657781Y-68167860D01*
X126493920Y-68058371D01*
X126493907Y-68058364D01*
X126311839Y-67982950D01*
X126311829Y-67982947D01*
X126118543Y-67944500D01*
X126118541Y-67944500D01*
X125121459Y-67944500D01*
X125121457Y-67944500D01*
X124928170Y-67982947D01*
X124928160Y-67982950D01*
X124746092Y-68058364D01*
X124746079Y-68058371D01*
X124582218Y-68167860D01*
X124582214Y-68167863D01*
X124442863Y-68307214D01*
X124442860Y-68307218D01*
X124333371Y-68471079D01*
X124333364Y-68471092D01*
X124257950Y-68653160D01*
X124257947Y-68653170D01*
X124219500Y-68846456D01*
X124219500Y-68846459D01*
X124219500Y-69043541D01*
X124219500Y-69043543D01*
X124219499Y-69043543D01*
X122970500Y-69043543D01*
X122970500Y-68846456D01*
X122932052Y-68653170D01*
X122932051Y-68653169D01*
X122932051Y-68653165D01*
X122901405Y-68579179D01*
X122856635Y-68471092D01*
X122856628Y-68471079D01*
X122747139Y-68307218D01*
X122747136Y-68307214D01*
X122607785Y-68167863D01*
X122607781Y-68167860D01*
X122443916Y-68058369D01*
X122438644Y-68055551D01*
X122388798Y-68006590D01*
X122373336Y-67938453D01*
X122397165Y-67872772D01*
X122398726Y-67870694D01*
X122400507Y-67868372D01*
X122400515Y-67868365D01*
X122476281Y-67737135D01*
X122515500Y-67590766D01*
X122515500Y-67439234D01*
X122476281Y-67292865D01*
X122400515Y-67161635D01*
X122293365Y-67054485D01*
X122227750Y-67016602D01*
X122162136Y-66978719D01*
X122077036Y-66955917D01*
X122015766Y-66939500D01*
X121864234Y-66939500D01*
X121717863Y-66978719D01*
X121586635Y-67054485D01*
X121586632Y-67054487D01*
X121479487Y-67161632D01*
X121479485Y-67161635D01*
X121403719Y-67292863D01*
X121370056Y-67418497D01*
X121364500Y-67439234D01*
X121364500Y-67590766D01*
X121399607Y-67721789D01*
X121403720Y-67737137D01*
X121403721Y-67737140D01*
X121416053Y-67758499D01*
X121432527Y-67826398D01*
X121409675Y-67892426D01*
X121354755Y-67935617D01*
X121308667Y-67944500D01*
X120771457Y-67944500D01*
X120578170Y-67982947D01*
X120578160Y-67982950D01*
X120396092Y-68058364D01*
X120396079Y-68058371D01*
X120232218Y-68167860D01*
X120232214Y-68167863D01*
X120092863Y-68307214D01*
X120092860Y-68307218D01*
X119983371Y-68471079D01*
X119983364Y-68471092D01*
X119907950Y-68653160D01*
X119907947Y-68653170D01*
X119869500Y-68846456D01*
X119869500Y-68846459D01*
X119869500Y-69043541D01*
X119869500Y-69043543D01*
X119869499Y-69043543D01*
X78687630Y-69043543D01*
X78700500Y-68978842D01*
X78700500Y-68821158D01*
X78700500Y-68821155D01*
X78700499Y-68821153D01*
X78678447Y-68710292D01*
X78669737Y-68666503D01*
X78633569Y-68579185D01*
X78609397Y-68520827D01*
X78609390Y-68520814D01*
X78521789Y-68389711D01*
X78521786Y-68389707D01*
X78410292Y-68278213D01*
X78410288Y-68278210D01*
X78279185Y-68190609D01*
X78279172Y-68190602D01*
X78133501Y-68130264D01*
X78133489Y-68130261D01*
X77978845Y-68099500D01*
X77978842Y-68099500D01*
X77821158Y-68099500D01*
X77821155Y-68099500D01*
X77666510Y-68130261D01*
X77666498Y-68130264D01*
X77520827Y-68190602D01*
X77520814Y-68190609D01*
X77389711Y-68278210D01*
X77389707Y-68278213D01*
X77337681Y-68330240D01*
X77276358Y-68363725D01*
X77206666Y-68358741D01*
X77165060Y-68332001D01*
X77164999Y-68332076D01*
X77164360Y-68331552D01*
X77162319Y-68330240D01*
X77160292Y-68328213D01*
X77160288Y-68328210D01*
X77029185Y-68240609D01*
X77029172Y-68240602D01*
X76883501Y-68180264D01*
X76883491Y-68180261D01*
X76728149Y-68149361D01*
X76666238Y-68116976D01*
X76664660Y-68115425D01*
X75372590Y-66823355D01*
X75372588Y-66823352D01*
X75253717Y-66704481D01*
X75253716Y-66704480D01*
X75166904Y-66654360D01*
X75166904Y-66654359D01*
X75166900Y-66654358D01*
X75116785Y-66625423D01*
X74964057Y-66584499D01*
X74805943Y-66584499D01*
X74798347Y-66584499D01*
X74798331Y-66584500D01*
X73374766Y-66584500D01*
X73307727Y-66564815D01*
X73305875Y-66563602D01*
X73174185Y-66475609D01*
X73174172Y-66475602D01*
X73028501Y-66415264D01*
X73028489Y-66415261D01*
X72873845Y-66384500D01*
X72873842Y-66384500D01*
X72716158Y-66384500D01*
X72716155Y-66384500D01*
X72561510Y-66415261D01*
X72561498Y-66415264D01*
X72415827Y-66475602D01*
X72415814Y-66475609D01*
X72284711Y-66563210D01*
X72284707Y-66563213D01*
X72173213Y-66674707D01*
X72173210Y-66674711D01*
X72085609Y-66805814D01*
X72085602Y-66805827D01*
X72025264Y-66951498D01*
X72025261Y-66951510D01*
X71994500Y-67106153D01*
X68800500Y-67106153D01*
X68800500Y-65521153D01*
X76299500Y-65521153D01*
X76299500Y-65678846D01*
X76330261Y-65833489D01*
X76330264Y-65833501D01*
X76390602Y-65979172D01*
X76390609Y-65979185D01*
X76478210Y-66110288D01*
X76478213Y-66110292D01*
X76589707Y-66221786D01*
X76589711Y-66221789D01*
X76720814Y-66309390D01*
X76720827Y-66309397D01*
X76863328Y-66368422D01*
X76866503Y-66369737D01*
X76931147Y-66382595D01*
X77021849Y-66400638D01*
X77083760Y-66433023D01*
X77085339Y-66434574D01*
X77765425Y-67114660D01*
X77798910Y-67175983D01*
X77799361Y-67178149D01*
X77830261Y-67333491D01*
X77830264Y-67333501D01*
X77890602Y-67479172D01*
X77890609Y-67479185D01*
X77978210Y-67610288D01*
X77978213Y-67610292D01*
X78089707Y-67721786D01*
X78089711Y-67721789D01*
X78220814Y-67809390D01*
X78220827Y-67809397D01*
X78366498Y-67869735D01*
X78366503Y-67869737D01*
X78459031Y-67888142D01*
X78521153Y-67900499D01*
X78521156Y-67900500D01*
X78521158Y-67900500D01*
X78678844Y-67900500D01*
X78772275Y-67881915D01*
X78841867Y-67888142D01*
X78897044Y-67931005D01*
X78920289Y-67996894D01*
X78918085Y-68027722D01*
X78899500Y-68121158D01*
X78899500Y-68278846D01*
X78930261Y-68433489D01*
X78930264Y-68433501D01*
X78990602Y-68579172D01*
X78990609Y-68579185D01*
X79078210Y-68710288D01*
X79078213Y-68710292D01*
X79189707Y-68821786D01*
X79189711Y-68821789D01*
X79320814Y-68909390D01*
X79320827Y-68909397D01*
X79466498Y-68969735D01*
X79466503Y-68969737D01*
X79612285Y-68998735D01*
X79621153Y-69000499D01*
X79621156Y-69000500D01*
X79621158Y-69000500D01*
X79778844Y-69000500D01*
X79778845Y-69000499D01*
X79933497Y-68969737D01*
X80079179Y-68909394D01*
X80173368Y-68846459D01*
X80210875Y-68821398D01*
X80277553Y-68800520D01*
X80279766Y-68800500D01*
X81620234Y-68800500D01*
X81687273Y-68820185D01*
X81689125Y-68821398D01*
X81820814Y-68909390D01*
X81820827Y-68909397D01*
X81966498Y-68969735D01*
X81966503Y-68969737D01*
X82112285Y-68998735D01*
X82121153Y-69000499D01*
X82121156Y-69000500D01*
X82121158Y-69000500D01*
X82278844Y-69000500D01*
X82278845Y-69000499D01*
X82433497Y-68969737D01*
X82579179Y-68909394D01*
X82710289Y-68821789D01*
X82821789Y-68710289D01*
X82909394Y-68579179D01*
X82969737Y-68433497D01*
X83000500Y-68278842D01*
X83000500Y-68121158D01*
X83000500Y-68121155D01*
X83000499Y-68121153D01*
X82973903Y-67987447D01*
X82969737Y-67966503D01*
X82960623Y-67944500D01*
X82909397Y-67820827D01*
X82909390Y-67820814D01*
X82821789Y-67689711D01*
X82821786Y-67689707D01*
X82710292Y-67578213D01*
X82710288Y-67578210D01*
X82579185Y-67490609D01*
X82579172Y-67490602D01*
X82433501Y-67430264D01*
X82433489Y-67430261D01*
X82278845Y-67399500D01*
X82278842Y-67399500D01*
X82121158Y-67399500D01*
X82121155Y-67399500D01*
X81966510Y-67430261D01*
X81966498Y-67430264D01*
X81820827Y-67490602D01*
X81820814Y-67490609D01*
X81689125Y-67578602D01*
X81622447Y-67599480D01*
X81620234Y-67599500D01*
X80279766Y-67599500D01*
X80212727Y-67579815D01*
X80210875Y-67578602D01*
X80079185Y-67490609D01*
X80079172Y-67490602D01*
X79933501Y-67430264D01*
X79933489Y-67430261D01*
X79778845Y-67399500D01*
X79778842Y-67399500D01*
X79621158Y-67399500D01*
X79527722Y-67418085D01*
X79458131Y-67411856D01*
X79402954Y-67368993D01*
X79379710Y-67303103D01*
X79381915Y-67272275D01*
X79400500Y-67178844D01*
X79400500Y-67021155D01*
X79400499Y-67021153D01*
X79392265Y-66979758D01*
X79369737Y-66866503D01*
X79351865Y-66823355D01*
X79309397Y-66720827D01*
X79309390Y-66720814D01*
X79221789Y-66589711D01*
X79221786Y-66589707D01*
X79110292Y-66478213D01*
X79110288Y-66478210D01*
X78979185Y-66390609D01*
X78979172Y-66390602D01*
X78833501Y-66330264D01*
X78833491Y-66330261D01*
X78678149Y-66299361D01*
X78616238Y-66266976D01*
X78614660Y-66265425D01*
X77934574Y-65585339D01*
X77901089Y-65524016D01*
X77900638Y-65521849D01*
X77882595Y-65431147D01*
X77869737Y-65366503D01*
X77869735Y-65366498D01*
X77809397Y-65220827D01*
X77809390Y-65220814D01*
X77721789Y-65089711D01*
X77721786Y-65089707D01*
X77610292Y-64978213D01*
X77610288Y-64978210D01*
X77479185Y-64890609D01*
X77479172Y-64890602D01*
X77333501Y-64830264D01*
X77333489Y-64830261D01*
X77178845Y-64799500D01*
X77178842Y-64799500D01*
X77021158Y-64799500D01*
X77021155Y-64799500D01*
X76866510Y-64830261D01*
X76866498Y-64830264D01*
X76720827Y-64890602D01*
X76720814Y-64890609D01*
X76589711Y-64978210D01*
X76589707Y-64978213D01*
X76478213Y-65089707D01*
X76478210Y-65089711D01*
X76390609Y-65220814D01*
X76390602Y-65220827D01*
X76330264Y-65366498D01*
X76330261Y-65366510D01*
X76299500Y-65521153D01*
X68800500Y-65521153D01*
X68800500Y-63421153D01*
X82999500Y-63421153D01*
X82999500Y-63578846D01*
X83030261Y-63733489D01*
X83030264Y-63733501D01*
X83090602Y-63879172D01*
X83090609Y-63879185D01*
X83178209Y-64010287D01*
X83178210Y-64010288D01*
X83178211Y-64010289D01*
X83263182Y-64095260D01*
X83296666Y-64156581D01*
X83299500Y-64182940D01*
X83299500Y-66320234D01*
X83279815Y-66387273D01*
X83278602Y-66389125D01*
X83190609Y-66520814D01*
X83190602Y-66520827D01*
X83130264Y-66666498D01*
X83130261Y-66666510D01*
X83099500Y-66821153D01*
X83099500Y-66978846D01*
X83130261Y-67133489D01*
X83130264Y-67133501D01*
X83190602Y-67279172D01*
X83190609Y-67279185D01*
X83278210Y-67410288D01*
X83278213Y-67410292D01*
X83389707Y-67521786D01*
X83389711Y-67521789D01*
X83520814Y-67609390D01*
X83520827Y-67609397D01*
X83664031Y-67668713D01*
X83666503Y-67669737D01*
X83821153Y-67700499D01*
X83821156Y-67700500D01*
X83821158Y-67700500D01*
X83978844Y-67700500D01*
X83978845Y-67700499D01*
X84133497Y-67669737D01*
X84250923Y-67621097D01*
X84320392Y-67613629D01*
X84382871Y-67644904D01*
X84418523Y-67704993D01*
X84416029Y-67774818D01*
X84401478Y-67804549D01*
X84390608Y-67820816D01*
X84390602Y-67820827D01*
X84330264Y-67966498D01*
X84330261Y-67966510D01*
X84299500Y-68121153D01*
X84299500Y-68278846D01*
X84330261Y-68433489D01*
X84330264Y-68433501D01*
X84390602Y-68579172D01*
X84390609Y-68579185D01*
X84478210Y-68710288D01*
X84478213Y-68710292D01*
X84589707Y-68821786D01*
X84589711Y-68821789D01*
X84720814Y-68909390D01*
X84720827Y-68909397D01*
X84866498Y-68969735D01*
X84866503Y-68969737D01*
X85012285Y-68998735D01*
X85021153Y-69000499D01*
X85021156Y-69000500D01*
X85021158Y-69000500D01*
X85178844Y-69000500D01*
X85178845Y-69000499D01*
X85333497Y-68969737D01*
X85479179Y-68909394D01*
X85610289Y-68821789D01*
X85631578Y-68800500D01*
X85679393Y-68752686D01*
X85721786Y-68710292D01*
X85721789Y-68710289D01*
X85809394Y-68579179D01*
X85869737Y-68433497D01*
X85894856Y-68307218D01*
X85900638Y-68278150D01*
X85933023Y-68216239D01*
X85934518Y-68214716D01*
X86212416Y-67936819D01*
X86273739Y-67903334D01*
X86300097Y-67900500D01*
X93913331Y-67900500D01*
X93913347Y-67900501D01*
X93920943Y-67900501D01*
X94079054Y-67900501D01*
X94079057Y-67900501D01*
X94231785Y-67859577D01*
X94306770Y-67816284D01*
X94368716Y-67780520D01*
X94480520Y-67668716D01*
X94480520Y-67668714D01*
X94490724Y-67658511D01*
X94490727Y-67658506D01*
X96080520Y-66068716D01*
X96159577Y-65931784D01*
X96200501Y-65779057D01*
X96200501Y-65620942D01*
X96200501Y-65613347D01*
X96200500Y-65613329D01*
X96200500Y-65121153D01*
X105599500Y-65121153D01*
X105599500Y-65278846D01*
X105630261Y-65433489D01*
X105630264Y-65433501D01*
X105690602Y-65579172D01*
X105690609Y-65579185D01*
X105778210Y-65710288D01*
X105778213Y-65710292D01*
X105889707Y-65821786D01*
X105889711Y-65821789D01*
X106020814Y-65909390D01*
X106020827Y-65909397D01*
X106166498Y-65969735D01*
X106166503Y-65969737D01*
X106321153Y-66000499D01*
X106321156Y-66000500D01*
X106321158Y-66000500D01*
X106478844Y-66000500D01*
X106478845Y-66000499D01*
X106633497Y-65969737D01*
X106779179Y-65909394D01*
X106810130Y-65888713D01*
X106910875Y-65821398D01*
X106977553Y-65800520D01*
X106979766Y-65800500D01*
X110599903Y-65800500D01*
X110666942Y-65820185D01*
X110687584Y-65836819D01*
X111248181Y-66397417D01*
X111281666Y-66458740D01*
X111284500Y-66485098D01*
X111284500Y-66892870D01*
X111284501Y-66892876D01*
X111290908Y-66952483D01*
X111341202Y-67087328D01*
X111341206Y-67087335D01*
X111427452Y-67202544D01*
X111427455Y-67202547D01*
X111542664Y-67288793D01*
X111542671Y-67288797D01*
X111677517Y-67339091D01*
X111677516Y-67339091D01*
X111684444Y-67339835D01*
X111737127Y-67345500D01*
X113532872Y-67345499D01*
X113592483Y-67339091D01*
X113727331Y-67288796D01*
X113842546Y-67202546D01*
X113928796Y-67087331D01*
X113977810Y-66955916D01*
X114019681Y-66899984D01*
X114085145Y-66875566D01*
X114153418Y-66890417D01*
X114181673Y-66911569D01*
X114295213Y-67025109D01*
X114467179Y-67150048D01*
X114467181Y-67150049D01*
X114467184Y-67150051D01*
X114656588Y-67246557D01*
X114858757Y-67312246D01*
X115068713Y-67345500D01*
X115068714Y-67345500D01*
X115281286Y-67345500D01*
X115281287Y-67345500D01*
X115491243Y-67312246D01*
X115693412Y-67246557D01*
X115882816Y-67150051D01*
X115969138Y-67087335D01*
X116054786Y-67025109D01*
X116054788Y-67025106D01*
X116054792Y-67025104D01*
X116187819Y-66892077D01*
X116249142Y-66858592D01*
X116318834Y-66863576D01*
X116374767Y-66905448D01*
X116399184Y-66970912D01*
X116399500Y-66979758D01*
X116399500Y-66998541D01*
X116399500Y-66998543D01*
X116399499Y-66998543D01*
X116437947Y-67191829D01*
X116437950Y-67191839D01*
X116513364Y-67373907D01*
X116513371Y-67373920D01*
X116622860Y-67537781D01*
X116622863Y-67537785D01*
X116762214Y-67677136D01*
X116762218Y-67677139D01*
X116926079Y-67786628D01*
X116926092Y-67786635D01*
X117022090Y-67826398D01*
X117108165Y-67862051D01*
X117108169Y-67862051D01*
X117108170Y-67862052D01*
X117301456Y-67900500D01*
X117301459Y-67900500D01*
X117498543Y-67900500D01*
X117628582Y-67874632D01*
X117691835Y-67862051D01*
X117873914Y-67786632D01*
X118037782Y-67677139D01*
X118177139Y-67537782D01*
X118286632Y-67373914D01*
X118362051Y-67191835D01*
X118389372Y-67054485D01*
X118400500Y-66998543D01*
X118400500Y-66801456D01*
X118362052Y-66608170D01*
X118362051Y-66608169D01*
X118362051Y-66608165D01*
X118343593Y-66563602D01*
X118286635Y-66426092D01*
X118286628Y-66426079D01*
X118173755Y-66257153D01*
X118175278Y-66256135D01*
X118151331Y-66199723D01*
X118150500Y-66185389D01*
X118150500Y-62915783D01*
X118170185Y-62848744D01*
X118186814Y-62828106D01*
X118277139Y-62737782D01*
X118386632Y-62573914D01*
X118462051Y-62391835D01*
X118480328Y-62299951D01*
X118500500Y-62198543D01*
X118500500Y-62001456D01*
X118462052Y-61808170D01*
X118462051Y-61808169D01*
X118462051Y-61808165D01*
X118462049Y-61808160D01*
X118386635Y-61626092D01*
X118386628Y-61626079D01*
X118277139Y-61462218D01*
X118277136Y-61462214D01*
X118137785Y-61322863D01*
X118137781Y-61322860D01*
X117973920Y-61213371D01*
X117973907Y-61213364D01*
X117791839Y-61137950D01*
X117791829Y-61137947D01*
X117598543Y-61099500D01*
X117598541Y-61099500D01*
X117401459Y-61099500D01*
X117401457Y-61099500D01*
X117208170Y-61137947D01*
X117208160Y-61137950D01*
X117026092Y-61213364D01*
X117026079Y-61213371D01*
X116862218Y-61322860D01*
X116862214Y-61322863D01*
X116722863Y-61462214D01*
X116722860Y-61462218D01*
X116613371Y-61626079D01*
X116613364Y-61626092D01*
X116537950Y-61808160D01*
X116537947Y-61808170D01*
X116499500Y-62001456D01*
X116499500Y-62001459D01*
X116499500Y-62198541D01*
X116499500Y-62198543D01*
X116499499Y-62198543D01*
X116537947Y-62391829D01*
X116537950Y-62391839D01*
X116613364Y-62573907D01*
X116613369Y-62573916D01*
X116628601Y-62596711D01*
X116634252Y-62614759D01*
X116644477Y-62630669D01*
X116648927Y-62661624D01*
X116649480Y-62663388D01*
X116649500Y-62665604D01*
X116649500Y-62857640D01*
X116629815Y-62924679D01*
X116577011Y-62970434D01*
X116507853Y-62980378D01*
X116444297Y-62951353D01*
X116415015Y-62913935D01*
X116396876Y-62878336D01*
X116330051Y-62747184D01*
X116295407Y-62699500D01*
X116205109Y-62575213D01*
X116054786Y-62424890D01*
X115882820Y-62299951D01*
X115693414Y-62203444D01*
X115693413Y-62203443D01*
X115693412Y-62203443D01*
X115491243Y-62137754D01*
X115491241Y-62137753D01*
X115491240Y-62137753D01*
X115329957Y-62112208D01*
X115281287Y-62104500D01*
X115068713Y-62104500D01*
X115020042Y-62112208D01*
X114858760Y-62137753D01*
X114656585Y-62203444D01*
X114467179Y-62299951D01*
X114295213Y-62424890D01*
X114144890Y-62575213D01*
X114019949Y-62747182D01*
X114015484Y-62755946D01*
X113967509Y-62806742D01*
X113899688Y-62823536D01*
X113833553Y-62800998D01*
X113794516Y-62755946D01*
X113790050Y-62747182D01*
X113665109Y-62575213D01*
X113514786Y-62424890D01*
X113342820Y-62299951D01*
X113153414Y-62203444D01*
X113153413Y-62203443D01*
X113153412Y-62203443D01*
X112951243Y-62137754D01*
X112951241Y-62137753D01*
X112951240Y-62137753D01*
X112789957Y-62112208D01*
X112741287Y-62104500D01*
X112528713Y-62104500D01*
X112480042Y-62112208D01*
X112318760Y-62137753D01*
X112116585Y-62203444D01*
X111927179Y-62299951D01*
X111755213Y-62424890D01*
X111604890Y-62575213D01*
X111479949Y-62747182D01*
X111383442Y-62936589D01*
X111383440Y-62936593D01*
X111377848Y-62953804D01*
X111370862Y-62965203D01*
X111368752Y-62974905D01*
X111347606Y-63003152D01*
X111347602Y-63003160D01*
X111320502Y-63030261D01*
X111264480Y-63086284D01*
X111264478Y-63086285D01*
X111264477Y-63086286D01*
X111264478Y-63086286D01*
X110687584Y-63663181D01*
X110626261Y-63696666D01*
X110599903Y-63699500D01*
X107479766Y-63699500D01*
X107412727Y-63679815D01*
X107410875Y-63678602D01*
X107279185Y-63590609D01*
X107279172Y-63590602D01*
X107133501Y-63530264D01*
X107133489Y-63530261D01*
X106978845Y-63499500D01*
X106978842Y-63499500D01*
X106821158Y-63499500D01*
X106821155Y-63499500D01*
X106666510Y-63530261D01*
X106666498Y-63530264D01*
X106520827Y-63590602D01*
X106520814Y-63590609D01*
X106389711Y-63678210D01*
X106389707Y-63678213D01*
X106278213Y-63789707D01*
X106278210Y-63789711D01*
X106190609Y-63920814D01*
X106190602Y-63920827D01*
X106130264Y-64066498D01*
X106130261Y-64066510D01*
X106099500Y-64221153D01*
X106099500Y-64375161D01*
X106079815Y-64442200D01*
X106027011Y-64487955D01*
X106022962Y-64489718D01*
X106020830Y-64490601D01*
X106020814Y-64490609D01*
X105889711Y-64578210D01*
X105889707Y-64578213D01*
X105778213Y-64689707D01*
X105778210Y-64689711D01*
X105690609Y-64820814D01*
X105690602Y-64820827D01*
X105630264Y-64966498D01*
X105630261Y-64966510D01*
X105599500Y-65121153D01*
X96200500Y-65121153D01*
X96200500Y-64379765D01*
X96220185Y-64312726D01*
X96221398Y-64310874D01*
X96309390Y-64179185D01*
X96309390Y-64179184D01*
X96309394Y-64179179D01*
X96369737Y-64033497D01*
X96400500Y-63878842D01*
X96400500Y-63721158D01*
X96400500Y-63721155D01*
X96400499Y-63721153D01*
X96391957Y-63678210D01*
X96369737Y-63566503D01*
X96369735Y-63566498D01*
X96309397Y-63420827D01*
X96309390Y-63420814D01*
X96221789Y-63289711D01*
X96221786Y-63289707D01*
X96110292Y-63178213D01*
X96110288Y-63178210D01*
X95979185Y-63090609D01*
X95979172Y-63090602D01*
X95833501Y-63030264D01*
X95833489Y-63030261D01*
X95678845Y-62999500D01*
X95678842Y-62999500D01*
X95521158Y-62999500D01*
X95521155Y-62999500D01*
X95366510Y-63030261D01*
X95366498Y-63030264D01*
X95220827Y-63090602D01*
X95220814Y-63090609D01*
X95089711Y-63178210D01*
X95089707Y-63178213D01*
X94978213Y-63289707D01*
X94978210Y-63289711D01*
X94890609Y-63420814D01*
X94890602Y-63420827D01*
X94830264Y-63566498D01*
X94830261Y-63566510D01*
X94799500Y-63721153D01*
X94799500Y-63878846D01*
X94830261Y-64033489D01*
X94830264Y-64033501D01*
X94890602Y-64179172D01*
X94890609Y-64179185D01*
X94978602Y-64310874D01*
X94999480Y-64377551D01*
X94999500Y-64379765D01*
X94999500Y-65399902D01*
X94979815Y-65466941D01*
X94963181Y-65487583D01*
X93787584Y-66663181D01*
X93726261Y-66696666D01*
X93699903Y-66699500D01*
X86079057Y-66699500D01*
X85920942Y-66699500D01*
X85768215Y-66740423D01*
X85768214Y-66740423D01*
X85768212Y-66740424D01*
X85768209Y-66740425D01*
X85718096Y-66769359D01*
X85718095Y-66769360D01*
X85674689Y-66794420D01*
X85631285Y-66819479D01*
X85631282Y-66819481D01*
X85085339Y-67365425D01*
X85024016Y-67398910D01*
X85021850Y-67399361D01*
X84866508Y-67430261D01*
X84866503Y-67430263D01*
X84749075Y-67478902D01*
X84679606Y-67486370D01*
X84617127Y-67455094D01*
X84581475Y-67395005D01*
X84583970Y-67325180D01*
X84598525Y-67295445D01*
X84600251Y-67292863D01*
X84609394Y-67279179D01*
X84669737Y-67133497D01*
X84700500Y-66978842D01*
X84700500Y-66821158D01*
X84700500Y-66821155D01*
X84700499Y-66821153D01*
X84684441Y-66740424D01*
X84669737Y-66666503D01*
X84664707Y-66654359D01*
X84609397Y-66520827D01*
X84609390Y-66520814D01*
X84521398Y-66389125D01*
X84500520Y-66322447D01*
X84500500Y-66320234D01*
X84500500Y-63925316D01*
X84509939Y-63877864D01*
X84539264Y-63807065D01*
X84569737Y-63733497D01*
X84600500Y-63578842D01*
X84600500Y-63421158D01*
X84600500Y-63421155D01*
X84600499Y-63421153D01*
X84574353Y-63289711D01*
X84569737Y-63266503D01*
X84569735Y-63266498D01*
X84509397Y-63120827D01*
X84509391Y-63120816D01*
X84507158Y-63117474D01*
X84507157Y-63117473D01*
X84463231Y-63051733D01*
X90411000Y-63051733D01*
X90411000Y-64101751D01*
X90411001Y-64101769D01*
X90421500Y-64204546D01*
X90421501Y-64204549D01*
X90476685Y-64371081D01*
X90476687Y-64371086D01*
X90480675Y-64377551D01*
X90568596Y-64520095D01*
X90568789Y-64520407D01*
X90649631Y-64601249D01*
X90683116Y-64662572D01*
X90678132Y-64732264D01*
X90667489Y-64754026D01*
X90608954Y-64848926D01*
X90608950Y-64848935D01*
X90591144Y-64902671D01*
X90556064Y-65008535D01*
X90556064Y-65008536D01*
X90556063Y-65008536D01*
X90546000Y-65107038D01*
X90546000Y-65715401D01*
X90556063Y-65813903D01*
X90608950Y-65973504D01*
X90608955Y-65973515D01*
X90697216Y-66116607D01*
X90697219Y-66116611D01*
X90816108Y-66235500D01*
X90816112Y-66235503D01*
X90959204Y-66323764D01*
X90959207Y-66323765D01*
X90959213Y-66323769D01*
X91118815Y-66376656D01*
X91217326Y-66386720D01*
X91217331Y-66386720D01*
X91750669Y-66386720D01*
X91750674Y-66386720D01*
X91849185Y-66376656D01*
X92008787Y-66323769D01*
X92151891Y-66235501D01*
X92183819Y-66203573D01*
X92245142Y-66170088D01*
X92314834Y-66175072D01*
X92359181Y-66203573D01*
X92391108Y-66235500D01*
X92391112Y-66235503D01*
X92534204Y-66323764D01*
X92534207Y-66323765D01*
X92534213Y-66323769D01*
X92693815Y-66376656D01*
X92792326Y-66386720D01*
X92792331Y-66386720D01*
X93325669Y-66386720D01*
X93325674Y-66386720D01*
X93424185Y-66376656D01*
X93583787Y-66323769D01*
X93726891Y-66235501D01*
X93845781Y-66116611D01*
X93934049Y-65973507D01*
X93986936Y-65813905D01*
X93997000Y-65715394D01*
X93997000Y-65107046D01*
X93986936Y-65008535D01*
X93934049Y-64848933D01*
X93934013Y-64848875D01*
X93934001Y-64848832D01*
X93930995Y-64842384D01*
X93932096Y-64841870D01*
X93915569Y-64781486D01*
X93936486Y-64714821D01*
X93974451Y-64678233D01*
X94029845Y-64644065D01*
X94153815Y-64520095D01*
X94245856Y-64370874D01*
X94245858Y-64370869D01*
X94301005Y-64204447D01*
X94301006Y-64204440D01*
X94311499Y-64101736D01*
X94311500Y-64101723D01*
X94311500Y-63826750D01*
X93435500Y-63826750D01*
X93368461Y-63807065D01*
X93322706Y-63754261D01*
X93311500Y-63702750D01*
X93311500Y-63576750D01*
X93185500Y-63576750D01*
X93118461Y-63557065D01*
X93072706Y-63504261D01*
X93061500Y-63452750D01*
X93061500Y-62923220D01*
X93044664Y-62906384D01*
X93034961Y-62903535D01*
X92989206Y-62850731D01*
X92978000Y-62799220D01*
X92978000Y-62221750D01*
X93478000Y-62221750D01*
X93494835Y-62238585D01*
X93504539Y-62241435D01*
X93550294Y-62294239D01*
X93561500Y-62345750D01*
X93561500Y-63326750D01*
X94311499Y-63326750D01*
X94311499Y-63051778D01*
X94311498Y-63051763D01*
X94301005Y-62949052D01*
X94245858Y-62782630D01*
X94245856Y-62782625D01*
X94153815Y-62633404D01*
X94143897Y-62623486D01*
X94110412Y-62562163D01*
X94115396Y-62492471D01*
X94126040Y-62470707D01*
X94188450Y-62369526D01*
X94188453Y-62369520D01*
X94242680Y-62205872D01*
X94252999Y-62104874D01*
X94253000Y-62104861D01*
X94253000Y-62068220D01*
X93478000Y-62068220D01*
X93478000Y-62221750D01*
X92978000Y-62221750D01*
X92978000Y-61568220D01*
X93478000Y-61568220D01*
X94252999Y-61568220D01*
X94252999Y-61531580D01*
X94252998Y-61531565D01*
X94242680Y-61430567D01*
X94188453Y-61266919D01*
X94188448Y-61266908D01*
X94097947Y-61120185D01*
X94097944Y-61120181D01*
X93976038Y-60998275D01*
X93976034Y-60998272D01*
X93829311Y-60907771D01*
X93829300Y-60907766D01*
X93665652Y-60853539D01*
X93564654Y-60843220D01*
X93478000Y-60843220D01*
X93478000Y-61568220D01*
X92978000Y-61568220D01*
X92978000Y-60843220D01*
X92977999Y-60843219D01*
X92891360Y-60843220D01*
X92891343Y-60843221D01*
X92790347Y-60853539D01*
X92626699Y-60907766D01*
X92626688Y-60907771D01*
X92479965Y-60998272D01*
X92479961Y-60998275D01*
X92441033Y-61037203D01*
X92379710Y-61070688D01*
X92310018Y-61065702D01*
X92265672Y-61037202D01*
X92226351Y-60997881D01*
X92226350Y-60997880D01*
X92135129Y-60941615D01*
X92079518Y-60907313D01*
X92079513Y-60907311D01*
X92078069Y-60906832D01*
X91915753Y-60853046D01*
X91915751Y-60853045D01*
X91814678Y-60842720D01*
X91141330Y-60842720D01*
X91141312Y-60842721D01*
X91040247Y-60853045D01*
X90876484Y-60907312D01*
X90876481Y-60907313D01*
X90729648Y-60997881D01*
X90607661Y-61119868D01*
X90517093Y-61266701D01*
X90517091Y-61266706D01*
X90504236Y-61305500D01*
X90462826Y-61430467D01*
X90462826Y-61430468D01*
X90462825Y-61430468D01*
X90452500Y-61531535D01*
X90452500Y-61531548D01*
X90452501Y-62104882D01*
X90452501Y-62104907D01*
X90462825Y-62205972D01*
X90493967Y-62299949D01*
X90517022Y-62369526D01*
X90517092Y-62369735D01*
X90517095Y-62369742D01*
X90585812Y-62481150D01*
X90604252Y-62548542D01*
X90583329Y-62615206D01*
X90572638Y-62628223D01*
X90568790Y-62633091D01*
X90476687Y-62782413D01*
X90476685Y-62782418D01*
X90468625Y-62806742D01*
X90421501Y-62948953D01*
X90421501Y-62948954D01*
X90421500Y-62948954D01*
X90411000Y-63051733D01*
X84463231Y-63051733D01*
X84421789Y-62989711D01*
X84421786Y-62989707D01*
X84310292Y-62878213D01*
X84310288Y-62878210D01*
X84179185Y-62790609D01*
X84179172Y-62790602D01*
X84033501Y-62730264D01*
X84033489Y-62730261D01*
X83878845Y-62699500D01*
X83878842Y-62699500D01*
X83721158Y-62699500D01*
X83721155Y-62699500D01*
X83566510Y-62730261D01*
X83566498Y-62730264D01*
X83420827Y-62790602D01*
X83420814Y-62790609D01*
X83289711Y-62878210D01*
X83289707Y-62878213D01*
X83178213Y-62989707D01*
X83178210Y-62989711D01*
X83090609Y-63120814D01*
X83090602Y-63120827D01*
X83030264Y-63266498D01*
X83030261Y-63266510D01*
X82999500Y-63421153D01*
X68800500Y-63421153D01*
X68800500Y-60403543D01*
X119869499Y-60403543D01*
X119907947Y-60596829D01*
X119907950Y-60596839D01*
X119983364Y-60778907D01*
X119983371Y-60778920D01*
X120092860Y-60942781D01*
X120092863Y-60942785D01*
X120232214Y-61082136D01*
X120232218Y-61082139D01*
X120396079Y-61191628D01*
X120396092Y-61191635D01*
X120567303Y-61262552D01*
X120578165Y-61267051D01*
X120578169Y-61267051D01*
X120578170Y-61267052D01*
X120771456Y-61305500D01*
X120771459Y-61305500D01*
X121308667Y-61305500D01*
X121375706Y-61325185D01*
X121421461Y-61377989D01*
X121431405Y-61447147D01*
X121416053Y-61491501D01*
X121403721Y-61512859D01*
X121403720Y-61512862D01*
X121403720Y-61512863D01*
X121403719Y-61512865D01*
X121388887Y-61568220D01*
X121364500Y-61659234D01*
X121364500Y-61810765D01*
X121403719Y-61957136D01*
X121441602Y-62022750D01*
X121479485Y-62088365D01*
X121586635Y-62195515D01*
X121717865Y-62271281D01*
X121864234Y-62310500D01*
X121864236Y-62310500D01*
X122015764Y-62310500D01*
X122015766Y-62310500D01*
X122162135Y-62271281D01*
X122293365Y-62195515D01*
X122400515Y-62088365D01*
X122476281Y-61957135D01*
X122515500Y-61810766D01*
X122515500Y-61659234D01*
X122476281Y-61512865D01*
X122463946Y-61491501D01*
X122400516Y-61381637D01*
X122400515Y-61381635D01*
X122400512Y-61381632D01*
X122398722Y-61379300D01*
X122397821Y-61376970D01*
X122396451Y-61374597D01*
X122396821Y-61374383D01*
X122373525Y-61314132D01*
X122387559Y-61245686D01*
X122436371Y-61195694D01*
X122438648Y-61194446D01*
X122443906Y-61191635D01*
X122443914Y-61191632D01*
X122607782Y-61082139D01*
X122747139Y-60942782D01*
X122856632Y-60778914D01*
X122932051Y-60596835D01*
X122970500Y-60403543D01*
X124219499Y-60403543D01*
X124257947Y-60596829D01*
X124257950Y-60596839D01*
X124333364Y-60778907D01*
X124333371Y-60778920D01*
X124442860Y-60942781D01*
X124442863Y-60942785D01*
X124582214Y-61082136D01*
X124582218Y-61082139D01*
X124746079Y-61191628D01*
X124746092Y-61191635D01*
X124917303Y-61262552D01*
X124928165Y-61267051D01*
X124928169Y-61267051D01*
X124928170Y-61267052D01*
X125121456Y-61305500D01*
X125121459Y-61305500D01*
X126118543Y-61305500D01*
X126274462Y-61274485D01*
X126311835Y-61267051D01*
X126452655Y-61208721D01*
X126493907Y-61191635D01*
X126493907Y-61191634D01*
X126493914Y-61191632D01*
X126657782Y-61082139D01*
X126797139Y-60942782D01*
X126906632Y-60778914D01*
X126982051Y-60596835D01*
X127020500Y-60403541D01*
X127020500Y-60206459D01*
X127020500Y-60206456D01*
X126982052Y-60013170D01*
X126982051Y-60013169D01*
X126982051Y-60013165D01*
X126982049Y-60013160D01*
X126906635Y-59831092D01*
X126906628Y-59831079D01*
X126797139Y-59667218D01*
X126797136Y-59667214D01*
X126657785Y-59527863D01*
X126657781Y-59527860D01*
X126493920Y-59418371D01*
X126493907Y-59418364D01*
X126311839Y-59342950D01*
X126311829Y-59342947D01*
X126118543Y-59304500D01*
X126118541Y-59304500D01*
X125121459Y-59304500D01*
X125121457Y-59304500D01*
X124928170Y-59342947D01*
X124928160Y-59342950D01*
X124746092Y-59418364D01*
X124746079Y-59418371D01*
X124582218Y-59527860D01*
X124582214Y-59527863D01*
X124442863Y-59667214D01*
X124442860Y-59667218D01*
X124333371Y-59831079D01*
X124333364Y-59831092D01*
X124257950Y-60013160D01*
X124257947Y-60013170D01*
X124219500Y-60206456D01*
X124219500Y-60206459D01*
X124219500Y-60403541D01*
X124219500Y-60403543D01*
X124219499Y-60403543D01*
X122970500Y-60403543D01*
X122970500Y-60403541D01*
X122970500Y-60206459D01*
X122970500Y-60206456D01*
X122932052Y-60013170D01*
X122932051Y-60013169D01*
X122932051Y-60013165D01*
X122932049Y-60013160D01*
X122856635Y-59831092D01*
X122856628Y-59831079D01*
X122747139Y-59667218D01*
X122747136Y-59667214D01*
X122607785Y-59527863D01*
X122607781Y-59527860D01*
X122443920Y-59418371D01*
X122443907Y-59418364D01*
X122261839Y-59342950D01*
X122261829Y-59342947D01*
X122068543Y-59304500D01*
X122068541Y-59304500D01*
X120771459Y-59304500D01*
X120771457Y-59304500D01*
X120578170Y-59342947D01*
X120578160Y-59342950D01*
X120396092Y-59418364D01*
X120396079Y-59418371D01*
X120232218Y-59527860D01*
X120232214Y-59527863D01*
X120092863Y-59667214D01*
X120092860Y-59667218D01*
X119983371Y-59831079D01*
X119983364Y-59831092D01*
X119907950Y-60013160D01*
X119907947Y-60013170D01*
X119869500Y-60206456D01*
X119869500Y-60206459D01*
X119869500Y-60403541D01*
X119869500Y-60403543D01*
X119869499Y-60403543D01*
X68800500Y-60403543D01*
X68800500Y-58621153D01*
X84199500Y-58621153D01*
X84199500Y-58778846D01*
X84230261Y-58933489D01*
X84230264Y-58933501D01*
X84290602Y-59079172D01*
X84290609Y-59079185D01*
X84378210Y-59210288D01*
X84378213Y-59210292D01*
X84489707Y-59321786D01*
X84489711Y-59321789D01*
X84620814Y-59409390D01*
X84620827Y-59409397D01*
X84766498Y-59469735D01*
X84766503Y-59469737D01*
X84921153Y-59500499D01*
X84921156Y-59500500D01*
X84921158Y-59500500D01*
X85078844Y-59500500D01*
X85078845Y-59500499D01*
X85233497Y-59469737D01*
X85346166Y-59423067D01*
X85379172Y-59409397D01*
X85379172Y-59409396D01*
X85379179Y-59409394D01*
X85379185Y-59409390D01*
X85510875Y-59321398D01*
X85577553Y-59300520D01*
X85579766Y-59300500D01*
X88620234Y-59300500D01*
X88687273Y-59320185D01*
X88689125Y-59321398D01*
X88820814Y-59409390D01*
X88820827Y-59409397D01*
X88966498Y-59469735D01*
X88966503Y-59469737D01*
X89121153Y-59500499D01*
X89121156Y-59500500D01*
X89121158Y-59500500D01*
X89278844Y-59500500D01*
X89278845Y-59500499D01*
X89433497Y-59469737D01*
X89546166Y-59423067D01*
X89579172Y-59409397D01*
X89579172Y-59409396D01*
X89579179Y-59409394D01*
X89710289Y-59321789D01*
X89821789Y-59210289D01*
X89909394Y-59079179D01*
X89969737Y-58933497D01*
X90000500Y-58778842D01*
X90000500Y-58621158D01*
X90000500Y-58621155D01*
X90000499Y-58621153D01*
X89969738Y-58466510D01*
X89969737Y-58466503D01*
X89969735Y-58466498D01*
X89909397Y-58320827D01*
X89909390Y-58320814D01*
X89828664Y-58200000D01*
X93800000Y-58200000D01*
X98000000Y-58200000D01*
X98000000Y-54800000D01*
X93800000Y-54800000D01*
X93800000Y-58200000D01*
X89828664Y-58200000D01*
X89821789Y-58189711D01*
X89821786Y-58189707D01*
X89710292Y-58078213D01*
X89710288Y-58078210D01*
X89579185Y-57990609D01*
X89579172Y-57990602D01*
X89433501Y-57930264D01*
X89433489Y-57930261D01*
X89278845Y-57899500D01*
X89278842Y-57899500D01*
X89121158Y-57899500D01*
X89121155Y-57899500D01*
X88966510Y-57930261D01*
X88966498Y-57930264D01*
X88820827Y-57990602D01*
X88820814Y-57990609D01*
X88689125Y-58078602D01*
X88622447Y-58099480D01*
X88620234Y-58099500D01*
X85579766Y-58099500D01*
X85512727Y-58079815D01*
X85510875Y-58078602D01*
X85379185Y-57990609D01*
X85379172Y-57990602D01*
X85233501Y-57930264D01*
X85233489Y-57930261D01*
X85078845Y-57899500D01*
X85078842Y-57899500D01*
X84921158Y-57899500D01*
X84921155Y-57899500D01*
X84766510Y-57930261D01*
X84766498Y-57930264D01*
X84620827Y-57990602D01*
X84620814Y-57990609D01*
X84489711Y-58078210D01*
X84489707Y-58078213D01*
X84378213Y-58189707D01*
X84378210Y-58189711D01*
X84290609Y-58320814D01*
X84290602Y-58320827D01*
X84230264Y-58466498D01*
X84230261Y-58466510D01*
X84199500Y-58621153D01*
X68800500Y-58621153D01*
X68800500Y-46224500D01*
X68820185Y-46157461D01*
X68872989Y-46111706D01*
X68924500Y-46100500D01*
X127675500Y-46100500D01*
X127742539Y-46120185D01*
G37*
%TD.AperFunction*%
%TD*%
M02*
