%TF.GenerationSoftware,KiCad,Pcbnew,10.0.3*%
%TF.CreationDate,2026-06-03T18:53:55+08:00*%
%TF.ProjectId,motor_slider,6d6f746f-725f-4736-9c69-6465722e6b69,rev?*%
%TF.SameCoordinates,Original*%
%TF.FileFunction,Legend,Bot*%
%TF.FilePolarity,Positive*%
%FSLAX46Y46*%
G04 Gerber Fmt 4.6, Leading zero omitted, Abs format (unit mm)*
G04 Created by KiCad (PCBNEW 10.0.3) date 2026-06-03 18:53:55*
%MOMM*%
%LPD*%
G01*
G04 APERTURE LIST*
G04 Aperture macros list*
%AMRoundRect*
0 Rectangle with rounded corners*
0 $1 Rounding radius*
0 $2 $3 $4 $5 $6 $7 $8 $9 X,Y pos of 4 corners*
0 Add a 4 corners polygon primitive as box body*
4,1,4,$2,$3,$4,$5,$6,$7,$8,$9,$2,$3,0*
0 Add four circle primitives for the rounded corners*
1,1,$1+$1,$2,$3*
1,1,$1+$1,$4,$5*
1,1,$1+$1,$6,$7*
1,1,$1+$1,$8,$9*
0 Add four rect primitives between the rounded corners*
20,1,$1+$1,$2,$3,$4,$5,0*
20,1,$1+$1,$4,$5,$6,$7,0*
20,1,$1+$1,$6,$7,$8,$9,0*
20,1,$1+$1,$8,$9,$2,$3,0*%
G04 Aperture macros list end*
%ADD10C,0.120000*%
%ADD11R,1.700000X1.700000*%
%ADD12C,1.700000*%
%ADD13C,0.650000*%
%ADD14O,2.100000X1.000000*%
%ADD15O,1.800000X1.000000*%
%ADD16RoundRect,0.250000X-0.250000X-0.475000X0.250000X-0.475000X0.250000X0.475000X-0.250000X0.475000X0*%
%ADD17RoundRect,0.237500X-0.287500X-0.237500X0.287500X-0.237500X0.287500X0.237500X-0.287500X0.237500X0*%
%ADD18RoundRect,0.218750X0.218750X0.256250X-0.218750X0.256250X-0.218750X-0.256250X0.218750X-0.256250X0*%
G04 APERTURE END LIST*
%TO.C,C22*%
D10*
X90861500Y-62576750D02*
X93861500Y-62576750D01*
X93861500Y-64576750D02*
X90861500Y-64576750D01*
X90861500Y-64576750D02*
G75*
G02*
X90861500Y-62576750I1122254J1000000D01*
G01*
X93861500Y-62576750D02*
G75*
G02*
X93861500Y-64576750I-1122254J-1000000D01*
G01*
%TO.C,C23*%
X90702000Y-61119720D02*
X94004000Y-61119720D01*
X90702000Y-62516720D02*
X90702000Y-61119720D01*
X94004000Y-61119720D02*
X94004000Y-62516720D01*
X94004000Y-62516720D02*
X90702000Y-62516720D01*
%TO.C,L1*%
X90671500Y-64611220D02*
X93871500Y-64611220D01*
X90671500Y-66211220D02*
X90671500Y-64611220D01*
X93871500Y-64611220D02*
X93871500Y-66211220D01*
X93871500Y-66211220D02*
X90671500Y-66211220D01*
%TD*%
%LPC*%
D11*
%TO.C,J6*%
X126045000Y-78580000D03*
%TD*%
%TO.C,J7*%
X125945000Y-88170000D03*
%TD*%
%TO.C,J2*%
X112635000Y-65995000D03*
D12*
X115175000Y-65995000D03*
X112635000Y-63455000D03*
X115175000Y-63455000D03*
%TD*%
D13*
%TO.C,J1*%
X121940000Y-67515000D03*
X121940000Y-61735000D03*
D14*
X121420000Y-68945000D03*
D15*
X125620000Y-68945000D03*
D14*
X121420000Y-60305000D03*
D15*
X125620000Y-60305000D03*
%TD*%
D11*
%TO.C,J8*%
X115595000Y-78630000D03*
D12*
X115595000Y-76090000D03*
X115595000Y-73550000D03*
%TD*%
D16*
%TO.C,C22*%
X91411500Y-63576750D03*
X93311500Y-63576750D03*
%TD*%
D17*
%TO.C,C23*%
X91478000Y-61818220D03*
X93228000Y-61818220D03*
%TD*%
D18*
%TO.C,L1*%
X93059000Y-65411220D03*
X91484000Y-65411220D03*
%TD*%
%LPD*%
M02*
