%TF.GenerationSoftware,KiCad,Pcbnew,10.0.3*%
%TF.CreationDate,2026-06-03T18:53:55+08:00*%
%TF.ProjectId,motor_slider,6d6f746f-725f-4736-9c69-6465722e6b69,rev?*%
%TF.SameCoordinates,Original*%
%TF.FileFunction,Soldermask,Top*%
%TF.FilePolarity,Negative*%
%FSLAX46Y46*%
G04 Gerber Fmt 4.6, Leading zero omitted, Abs format (unit mm)*
G04 Created by KiCad (PCBNEW 10.0.3) date 2026-06-03 18:53:55*
%MOMM*%
%LPD*%
G01*
G04 APERTURE LIST*
G04 Aperture macros list*
%AMRoundRect*
0 Rectangle with rounded corners*
0 $1 Rounding radius*
0 $2 $3 $4 $5 $6 $7 $8 $9 X,Y pos of 4 corners*
0 Add a 4 corners polygon primitive as box body*
4,1,4,$2,$3,$4,$5,$6,$7,$8,$9,$2,$3,0*
0 Add four circle primitives for the rounded corners*
1,1,$1+$1,$2,$3*
1,1,$1+$1,$4,$5*
1,1,$1+$1,$6,$7*
1,1,$1+$1,$8,$9*
0 Add four rect primitives between the rounded corners*
20,1,$1+$1,$2,$3,$4,$5,0*
20,1,$1+$1,$4,$5,$6,$7,0*
20,1,$1+$1,$6,$7,$8,$9,0*
20,1,$1+$1,$8,$9,$2,$3,0*%
G04 Aperture macros list end*
%ADD10R,0.500000X1.400000*%
%ADD11R,1.200000X2.000000*%
%ADD12RoundRect,0.237500X0.250000X0.237500X-0.250000X0.237500X-0.250000X-0.237500X0.250000X-0.237500X0*%
%ADD13R,2.310000X2.460000*%
%ADD14RoundRect,0.100000X0.100000X-0.687500X0.100000X0.687500X-0.100000X0.687500X-0.100000X-0.687500X0*%
%ADD15RoundRect,0.250000X-0.475000X0.250000X-0.475000X-0.250000X0.475000X-0.250000X0.475000X0.250000X0*%
%ADD16RoundRect,0.250000X0.475000X-0.250000X0.475000X0.250000X-0.475000X0.250000X-0.475000X-0.250000X0*%
%ADD17RoundRect,0.237500X0.237500X-0.250000X0.237500X0.250000X-0.237500X0.250000X-0.237500X-0.250000X0*%
%ADD18R,0.500000X1.200000*%
%ADD19R,0.800000X1.500000*%
%ADD20RoundRect,0.237500X0.287500X0.237500X-0.287500X0.237500X-0.287500X-0.237500X0.287500X-0.237500X0*%
%ADD21R,1.700000X1.700000*%
%ADD22R,1.700000X0.900000*%
%ADD23RoundRect,0.237500X-0.250000X-0.237500X0.250000X-0.237500X0.250000X0.237500X-0.250000X0.237500X0*%
%ADD24RoundRect,0.237500X0.237500X-0.287500X0.237500X0.287500X-0.237500X0.287500X-0.237500X-0.287500X0*%
%ADD25RoundRect,0.150000X-0.150000X0.587500X-0.150000X-0.587500X0.150000X-0.587500X0.150000X0.587500X0*%
%ADD26RoundRect,0.150000X0.587500X0.150000X-0.587500X0.150000X-0.587500X-0.150000X0.587500X-0.150000X0*%
%ADD27RoundRect,0.237500X-0.237500X0.287500X-0.237500X-0.287500X0.237500X-0.287500X0.237500X0.287500X0*%
%ADD28C,1.700000*%
%ADD29RoundRect,0.237500X-0.287500X-0.237500X0.287500X-0.237500X0.287500X0.237500X-0.287500X0.237500X0*%
%ADD30R,1.200000X0.500000*%
%ADD31R,1.500000X0.800000*%
%ADD32R,1.240000X0.600000*%
%ADD33R,1.240000X0.300000*%
%ADD34O,2.100000X1.000000*%
%ADD35O,1.800000X1.000000*%
%ADD36RoundRect,0.250000X0.250000X0.475000X-0.250000X0.475000X-0.250000X-0.475000X0.250000X-0.475000X0*%
%ADD37RoundRect,0.250000X-0.450000X-0.350000X0.450000X-0.350000X0.450000X0.350000X-0.450000X0.350000X0*%
%ADD38O,0.270000X1.500000*%
%ADD39O,1.500000X0.270000*%
G04 APERTURE END LIST*
D10*
%TO.C,U6*%
X84685000Y-88550000D03*
X83685000Y-88550000D03*
D11*
X82585000Y-91010000D03*
X85785000Y-91010000D03*
%TD*%
D12*
%TO.C,R22*%
X82423500Y-51977500D03*
X80598500Y-51977500D03*
%TD*%
D10*
%TO.C,U2*%
X74645000Y-88602000D03*
X73645000Y-88602000D03*
D11*
X72545000Y-91062000D03*
X75745000Y-91062000D03*
%TD*%
D13*
%TO.C,U1*%
X76950000Y-81382000D03*
D14*
X74675000Y-84244500D03*
X75325000Y-84244500D03*
X75975000Y-84244500D03*
X76625000Y-84244500D03*
X77275000Y-84244500D03*
X77925000Y-84244500D03*
X78575000Y-84244500D03*
X79225000Y-84244500D03*
X79225000Y-78519500D03*
X78575000Y-78519500D03*
X77925000Y-78519500D03*
X77275000Y-78519500D03*
X76625000Y-78519500D03*
X75975000Y-78519500D03*
X75325000Y-78519500D03*
X74675000Y-78519500D03*
%TD*%
D15*
%TO.C,C9*%
X111225364Y-55750000D03*
X111225364Y-57650000D03*
%TD*%
D16*
%TO.C,C6*%
X77711788Y-74832000D03*
X77711788Y-72932000D03*
%TD*%
D17*
%TO.C,R14*%
X103761954Y-84473000D03*
X103761954Y-82648000D03*
%TD*%
D18*
%TO.C,U23*%
X82434796Y-50350000D03*
X81434796Y-50350000D03*
X80434796Y-50350000D03*
D19*
X79234796Y-47350000D03*
X83634796Y-47350000D03*
%TD*%
D12*
%TO.C,R3*%
X122687500Y-58509500D03*
X120862500Y-58509500D03*
%TD*%
D17*
%TO.C,R11*%
X93700000Y-84472000D03*
X93700000Y-82647000D03*
%TD*%
D18*
%TO.C,U24*%
X76205000Y-50350000D03*
X75205000Y-50350000D03*
X74205000Y-50350000D03*
D19*
X73005000Y-47350000D03*
X77405000Y-47350000D03*
%TD*%
D17*
%TO.C,R2*%
X124175000Y-58539000D03*
X124175000Y-56714000D03*
%TD*%
D20*
%TO.C,C29*%
X82428000Y-53460500D03*
X80678000Y-53460500D03*
%TD*%
D16*
%TO.C,C14*%
X98303000Y-74600000D03*
X98303000Y-72700000D03*
%TD*%
D18*
%TO.C,U17*%
X113583775Y-50350000D03*
X112583775Y-50350000D03*
X111583775Y-50350000D03*
D19*
X110383775Y-47350000D03*
X114783775Y-47350000D03*
%TD*%
D13*
%TO.C,U15*%
X107264954Y-81330000D03*
D14*
X104989954Y-84192500D03*
X105639954Y-84192500D03*
X106289954Y-84192500D03*
X106939954Y-84192500D03*
X107589954Y-84192500D03*
X108239954Y-84192500D03*
X108889954Y-84192500D03*
X109539954Y-84192500D03*
X109539954Y-78467500D03*
X108889954Y-78467500D03*
X108239954Y-78467500D03*
X107589954Y-78467500D03*
X106939954Y-78467500D03*
X106289954Y-78467500D03*
X105639954Y-78467500D03*
X104989954Y-78467500D03*
%TD*%
D21*
%TO.C,J6*%
X126045000Y-78580000D03*
%TD*%
D12*
%TO.C,R12*%
X94912500Y-86593500D03*
X93087500Y-86593500D03*
%TD*%
D18*
%TO.C,U19*%
X101124183Y-50350000D03*
X100124183Y-50350000D03*
X99124183Y-50350000D03*
D19*
X97924183Y-47350000D03*
X102324183Y-47350000D03*
%TD*%
D20*
%TO.C,C24*%
X110386000Y-50775500D03*
X108636000Y-50775500D03*
%TD*%
%TO.C,C15*%
X98496318Y-76160500D03*
X96746318Y-76160500D03*
%TD*%
D22*
%TO.C,SW1*%
X70525000Y-62870000D03*
X70525000Y-58420000D03*
%TD*%
D16*
%TO.C,C17*%
X108090318Y-74640000D03*
X108090318Y-72740000D03*
%TD*%
D23*
%TO.C,R23*%
X85998500Y-51994500D03*
X87823500Y-51994500D03*
%TD*%
D10*
%TO.C,U9*%
X94965318Y-88550000D03*
X93965318Y-88550000D03*
D11*
X92865318Y-91010000D03*
X96065318Y-91010000D03*
%TD*%
D16*
%TO.C,C5*%
X75680894Y-74822000D03*
X75680894Y-72922000D03*
%TD*%
%TO.C,C20*%
X124394470Y-54190000D03*
X124394470Y-52290000D03*
%TD*%
D23*
%TO.C,R19*%
X104509500Y-52326500D03*
X106334500Y-52326500D03*
%TD*%
D21*
%TO.C,J7*%
X125945000Y-88170000D03*
%TD*%
D18*
%TO.C,U18*%
X107353979Y-50350000D03*
X106353979Y-50350000D03*
X105353979Y-50350000D03*
D19*
X104153979Y-47350000D03*
X108553979Y-47350000D03*
%TD*%
D18*
%TO.C,U20*%
X94894388Y-50350000D03*
X93894388Y-50350000D03*
X92894388Y-50350000D03*
D19*
X91694388Y-47350000D03*
X96094388Y-47350000D03*
%TD*%
D23*
%TO.C,R10*%
X88828182Y-86546000D03*
X90653182Y-86546000D03*
%TD*%
D20*
%TO.C,C25*%
X104128000Y-50792500D03*
X102378000Y-50792500D03*
%TD*%
%TO.C,C7*%
X77887000Y-76378500D03*
X76137000Y-76378500D03*
%TD*%
D23*
%TO.C,R13*%
X99087500Y-86576500D03*
X100912500Y-86576500D03*
%TD*%
D17*
%TO.C,R7*%
X73425000Y-84559000D03*
X73425000Y-82734000D03*
%TD*%
D24*
%TO.C,C2*%
X93024500Y-57366000D03*
X93024500Y-55616000D03*
%TD*%
D23*
%TO.C,R18*%
X110698500Y-52309500D03*
X112523500Y-52309500D03*
%TD*%
%TO.C,R17*%
X116998500Y-51892500D03*
X118823500Y-51892500D03*
%TD*%
D25*
%TO.C,U4*%
X114929470Y-55967500D03*
X113029470Y-55967500D03*
X113979470Y-57842500D03*
%TD*%
D26*
%TO.C,U16*%
X122407500Y-54185000D03*
X122407500Y-52285000D03*
X120532500Y-53235000D03*
%TD*%
D27*
%TO.C,C3*%
X98807500Y-55616000D03*
X98807500Y-57366000D03*
%TD*%
D17*
%TO.C,R1*%
X72975000Y-62605000D03*
X72975000Y-60780000D03*
%TD*%
D20*
%TO.C,C27*%
X89428000Y-53526500D03*
X87678000Y-53526500D03*
%TD*%
D12*
%TO.C,R21*%
X77023500Y-51960500D03*
X75198500Y-51960500D03*
%TD*%
%TO.C,R5*%
X74512500Y-86495500D03*
X72687500Y-86495500D03*
%TD*%
D10*
%TO.C,U13*%
X110729954Y-88550000D03*
X109729954Y-88550000D03*
D11*
X108629954Y-91010000D03*
X111829954Y-91010000D03*
%TD*%
D13*
%TO.C,U11*%
X97190318Y-81330000D03*
D14*
X94915318Y-84192500D03*
X95565318Y-84192500D03*
X96215318Y-84192500D03*
X96865318Y-84192500D03*
X97515318Y-84192500D03*
X98165318Y-84192500D03*
X98815318Y-84192500D03*
X99465318Y-84192500D03*
X99465318Y-78467500D03*
X98815318Y-78467500D03*
X98165318Y-78467500D03*
X97515318Y-78467500D03*
X96865318Y-78467500D03*
X96215318Y-78467500D03*
X95565318Y-78467500D03*
X94915318Y-78467500D03*
%TD*%
D20*
%TO.C,C12*%
X88237000Y-76243500D03*
X86487000Y-76243500D03*
%TD*%
D23*
%TO.C,R6*%
X78687500Y-86512500D03*
X80512500Y-86512500D03*
%TD*%
D16*
%TO.C,C10*%
X86074576Y-74693500D03*
X86074576Y-72793500D03*
%TD*%
D15*
%TO.C,C8*%
X116725364Y-55730000D03*
X116725364Y-57630000D03*
%TD*%
D21*
%TO.C,J2*%
X112635000Y-65995000D03*
D28*
X115175000Y-65995000D03*
X112635000Y-63455000D03*
X115175000Y-63455000D03*
%TD*%
D12*
%TO.C,R9*%
X84653182Y-86529000D03*
X82828182Y-86529000D03*
%TD*%
D24*
%TO.C,C30*%
X78606000Y-53752500D03*
X78606000Y-52002500D03*
%TD*%
D29*
%TO.C,C26*%
X95037000Y-51909500D03*
X96787000Y-51909500D03*
%TD*%
D30*
%TO.C,U22*%
X72795000Y-66185000D03*
X72795000Y-67185000D03*
X72795000Y-68185000D03*
D31*
X69795000Y-69385000D03*
X69795000Y-64985000D03*
%TD*%
D24*
%TO.C,C4*%
X127131000Y-58484500D03*
X127131000Y-56734500D03*
%TD*%
D32*
%TO.C,J1*%
X120820000Y-67825000D03*
X120820000Y-67025000D03*
D33*
X120820000Y-65875000D03*
X120820000Y-64875000D03*
X120820000Y-64375000D03*
X120820000Y-63375000D03*
D32*
X120820000Y-62225000D03*
X120820000Y-61425000D03*
X120820000Y-61425000D03*
X120820000Y-62225000D03*
D33*
X120820000Y-62875000D03*
X120820000Y-63875000D03*
X120820000Y-65375000D03*
X120820000Y-66375000D03*
D32*
X120820000Y-67025000D03*
X120820000Y-67825000D03*
D34*
X121420000Y-68945000D03*
D35*
X125620000Y-68945000D03*
D34*
X121420000Y-60305000D03*
D35*
X125620000Y-60305000D03*
%TD*%
D13*
%TO.C,U8*%
X87100000Y-81330000D03*
D14*
X84825000Y-84192500D03*
X85475000Y-84192500D03*
X86125000Y-84192500D03*
X86775000Y-84192500D03*
X87425000Y-84192500D03*
X88075000Y-84192500D03*
X88725000Y-84192500D03*
X89375000Y-84192500D03*
X89375000Y-78467500D03*
X88725000Y-78467500D03*
X88075000Y-78467500D03*
X87425000Y-78467500D03*
X86775000Y-78467500D03*
X86125000Y-78467500D03*
X85475000Y-78467500D03*
X84825000Y-78467500D03*
%TD*%
D16*
%TO.C,C11*%
X88043682Y-74707000D03*
X88043682Y-72807000D03*
%TD*%
D10*
%TO.C,U12*%
X105629954Y-88550000D03*
X104629954Y-88550000D03*
D11*
X103529954Y-91010000D03*
X106729954Y-91010000D03*
%TD*%
D10*
%TO.C,U7*%
X89785000Y-88550000D03*
X88785000Y-88550000D03*
D11*
X87685000Y-91010000D03*
X90885000Y-91010000D03*
%TD*%
D23*
%TO.C,R24*%
X89451500Y-51955000D03*
X91276500Y-51955000D03*
%TD*%
D36*
%TO.C,C19*%
X122644470Y-55920000D03*
X120744470Y-55920000D03*
%TD*%
D21*
%TO.C,J8*%
X115595000Y-78630000D03*
D28*
X115595000Y-76090000D03*
X115595000Y-73550000D03*
%TD*%
D23*
%TO.C,R16*%
X109749454Y-86594500D03*
X111574454Y-86594500D03*
%TD*%
D16*
%TO.C,C13*%
X96303000Y-74580000D03*
X96303000Y-72680000D03*
%TD*%
D18*
%TO.C,U14*%
X119813571Y-50350000D03*
X118813571Y-50350000D03*
X117813571Y-50350000D03*
D19*
X116613571Y-47350000D03*
X121013571Y-47350000D03*
%TD*%
D20*
%TO.C,C18*%
X108270954Y-76177500D03*
X106520954Y-76177500D03*
%TD*%
D24*
%TO.C,C28*%
X84453000Y-52518500D03*
X84453000Y-50768500D03*
%TD*%
D27*
%TO.C,C33*%
X96975000Y-68876000D03*
X96975000Y-70626000D03*
%TD*%
D29*
%TO.C,C32*%
X97000000Y-60258500D03*
X98750000Y-60258500D03*
%TD*%
D27*
%TO.C,C1*%
X72931000Y-52783500D03*
X72931000Y-54533500D03*
%TD*%
%TO.C,C21*%
X118711000Y-53483500D03*
X118711000Y-55233500D03*
%TD*%
D20*
%TO.C,C31*%
X88428000Y-68794500D03*
X86678000Y-68794500D03*
%TD*%
D16*
%TO.C,C16*%
X106077636Y-74620000D03*
X106077636Y-72720000D03*
%TD*%
D22*
%TO.C,SW2*%
X70525000Y-56990000D03*
X70525000Y-52540000D03*
%TD*%
D17*
%TO.C,R4*%
X125675000Y-58556000D03*
X125675000Y-56731000D03*
%TD*%
D12*
%TO.C,R15*%
X105474454Y-86577500D03*
X103649454Y-86577500D03*
%TD*%
D37*
%TO.C,Y1*%
X94810000Y-57370000D03*
X97010000Y-57370000D03*
X97010000Y-55670000D03*
X94810000Y-55670000D03*
%TD*%
D17*
%TO.C,R8*%
X83540682Y-84524500D03*
X83540682Y-82699500D03*
%TD*%
D10*
%TO.C,U5*%
X79545000Y-88602000D03*
X78545000Y-88602000D03*
D11*
X77445000Y-91062000D03*
X80645000Y-91062000D03*
%TD*%
D10*
%TO.C,U10*%
X100065318Y-88550000D03*
X99065318Y-88550000D03*
D11*
X97965318Y-91010000D03*
X101165318Y-91010000D03*
%TD*%
D38*
%TO.C,U3*%
X95440000Y-60300000D03*
X94940000Y-60300000D03*
X94440000Y-60300000D03*
X93940000Y-60300000D03*
X93440000Y-60300000D03*
X92940000Y-60300000D03*
X92440000Y-60300000D03*
X91940000Y-60300000D03*
X91440000Y-60300000D03*
X90940000Y-60300000D03*
X90440000Y-60300000D03*
X89940000Y-60300000D03*
D39*
X88440000Y-61800000D03*
X88440000Y-62300000D03*
X88440000Y-62800000D03*
X88440000Y-63300000D03*
X88440000Y-63800000D03*
X88440000Y-64300000D03*
X88440000Y-64800000D03*
X88440000Y-65300000D03*
X88440000Y-65800000D03*
X88440000Y-66300000D03*
X88440000Y-66800000D03*
X88440000Y-67300000D03*
D38*
X89940000Y-68800000D03*
X90440000Y-68800000D03*
X90940000Y-68800000D03*
X91440000Y-68800000D03*
X91940000Y-68800000D03*
X92440000Y-68800000D03*
X92940000Y-68800000D03*
X93440000Y-68800000D03*
X93940000Y-68800000D03*
X94440000Y-68800000D03*
X94940000Y-68800000D03*
X95440000Y-68800000D03*
D39*
X96940000Y-67300000D03*
X96940000Y-66800000D03*
X96940000Y-66300000D03*
X96940000Y-65800000D03*
X96940000Y-65300000D03*
X96940000Y-64800000D03*
X96940000Y-64300000D03*
X96940000Y-63800000D03*
X96940000Y-63300000D03*
X96940000Y-62800000D03*
X96940000Y-62300000D03*
X96940000Y-61800000D03*
%TD*%
D23*
%TO.C,R20*%
X98298500Y-51943500D03*
X100123500Y-51943500D03*
%TD*%
D18*
%TO.C,U21*%
X88664592Y-50350000D03*
X87664592Y-50350000D03*
X86664592Y-50350000D03*
D19*
X85464592Y-47350000D03*
X89864592Y-47350000D03*
%TD*%
M02*
